M48
; DRILL file {KiCad 9.0.6} date 2026-05-04T10:06:29-0300
; FORMAT={-:-/ absolute / inch / decimal}
; #@! TF.CreationDate,2026-05-04T10:06:29-03:00
; #@! TF.GenerationSoftware,Kicad,Pcbnew,9.0.6
; #@! TF.FileFunction,Plated,1,2,PTH
FMAT,2
INCH
; #@! TA.AperFunction,Plated,PTH,ViaDrill
T1C0.0118
; #@! TA.AperFunction,Plated,PTH,ComponentDrill
T2C0.0236
; #@! TA.AperFunction,Plated,PTH,ComponentDrill
T3C0.0315
; #@! TA.AperFunction,Plated,PTH,ComponentDrill
T4C0.0335
; #@! TA.AperFunction,Plated,PTH,ComponentDrill
T5C0.0394
; #@! TA.AperFunction,Plated,PTH,ComponentDrill
T6C0.0400
%
G90
G05
T1
X4.685Y-3.315
X5.1811Y-2.4173
X5.1811Y-2.5197
X5.2205Y-4.7369
X5.2559Y-5.6417
X5.2992Y-4.3307
X5.378Y-5.1181
X5.3976Y-5.1427
X5.3976Y-2.5445
X5.4016Y-2.8937
X5.4094Y-4.7638
X5.4231Y-4.8558
X5.4235Y-2.6022
X5.4252Y-4.5512
X5.4567Y-4.6457
X5.5Y-5.4016
X5.5118Y-3.5433
X5.5197Y-2.7717
X5.5197Y-2.7717
X5.5489Y-4.648
X5.5827Y-4.9567
X5.6023Y-4.7244
X5.6654Y-2.4488
X5.6693Y-2.5197
X5.7047Y-4.4843
X5.7087Y-5.1457
X5.7717Y-2.6575
X5.7756Y-4.1614
X5.7795Y-4.0118
X5.826Y-4.3197
X5.8617Y-2.523
X5.878Y-4.0866
X5.9016Y-3.4784
X5.9606Y-3.8976
X6.0512Y-2.0551
X6.0512Y-5.8701
X6.0551Y-3.9291
X6.0551Y-4.0512
X6.0591Y-3.4291
X6.0591Y-3.5315
X6.0591Y-3.6299
X6.0591Y-3.7323
X6.0591Y-3.8307
T2
X5.1732Y-4.2036
X5.1732Y-4.2824
T3
X5.0272Y-4.8976
X5.0551Y-5.011
X5.0551Y-5.311
X5.1772Y-5.0114
X5.1772Y-5.3114
X5.2953Y-5.011
X5.2953Y-5.311
X5.3272Y-4.8976
X5.4252Y-3.098
X5.4252Y-3.398
X5.472Y-3.7913
X5.472Y-3.9383
X5.472Y-4.0853
X5.472Y-4.2323
X5.5Y-4.7346
X5.5Y-4.8346
X5.5Y-4.9346
X5.5Y-5.0346
X5.5Y-5.1346
X5.5Y-5.2346
X5.5Y-5.3346
X5.5512Y-3.098
X5.5512Y-3.398
X5.6614Y-4.4173
X5.6614Y-4.5709
X5.6772Y-3.0976
X5.6772Y-3.3976
X5.772Y-3.7913
X5.772Y-3.9383
X5.772Y-4.0853
X5.772Y-4.2323
X5.8Y-4.7346
X5.8Y-4.8346
X5.8Y-4.9346
X5.8Y-5.0346
X5.8Y-5.1346
X5.8Y-5.2346
X5.8Y-5.3346
X5.8031Y-3.0976
X5.8031Y-3.3976
X5.8583Y-4.4173
X5.8583Y-4.5709
T4
X5.1211Y-5.5748
X5.1211Y-5.6748
X5.1211Y-5.7748
X5.3878Y-5.5748
X5.3878Y-5.6748
X5.3878Y-5.7748
X5.6545Y-5.5748
X5.6545Y-5.6748
X5.6545Y-5.7748
X5.9213Y-5.5748
X5.9213Y-5.6748
X5.9213Y-5.7748
T5
X5.0118Y-2.2622
X5.0118Y-2.3622
X5.0118Y-2.4622
X5.0118Y-2.5622
X5.0118Y-2.6622
X5.0118Y-2.7622
X5.0118Y-2.8622
X5.0118Y-2.9622
X5.0756Y-4.6772
X5.1008Y-3.3236
X5.1008Y-3.4236
X5.1008Y-3.5236
X5.1008Y-3.6236
X5.1008Y-3.7236
X5.1008Y-3.8236
X5.1008Y-3.9236
X5.1008Y-4.0236
X5.1756Y-4.6772
X5.2008Y-3.3236
X5.2008Y-3.4236
X5.2008Y-3.5236
X5.2008Y-3.6236
X5.2008Y-3.7236
X5.2008Y-3.8236
X5.2008Y-3.9236
X5.2008Y-4.0236
X5.2756Y-4.6772
X5.3278Y-2.2228
X5.3278Y-2.3228
X5.3278Y-2.4228
X5.3278Y-2.5228
X5.3278Y-2.6228
X5.3278Y-2.7228
X5.3278Y-2.8228
X5.9148Y-2.2268
X5.9148Y-2.3268
X5.9148Y-2.4268
X5.9148Y-2.5268
X5.9148Y-2.6268
X5.9148Y-2.7268
X5.9148Y-2.8268
X6.0118Y-4.2583
X6.0118Y-4.3583
X6.0118Y-4.4583
X6.0118Y-4.5583
X6.0118Y-4.6583
X6.0118Y-4.7583
X6.0118Y-4.8583
X6.0118Y-4.9583
X6.0118Y-5.0583
X6.0118Y-5.1583
X6.0276Y-3.2803
X6.0276Y-3.3803
X6.0276Y-3.4803
X6.0276Y-3.5803
X6.0276Y-3.6803
X6.0276Y-3.7803
X6.0276Y-3.8803
X6.0276Y-3.9803
T6
X5.0417Y-4.4724
X5.1417Y-4.4724
X5.2417Y-4.4724
M30
