%TF.GenerationSoftware,KiCad,Pcbnew,9.0.6*%
%TF.CreationDate,2026-04-24T13:37:01-03:00*%
%TF.ProjectId,MainPCB_V2.1,4d61696e-5043-4425-9f56-322e312e6b69,rev?*%
%TF.SameCoordinates,Original*%
%TF.FileFunction,Soldermask,Top*%
%TF.FilePolarity,Negative*%
%FSLAX46Y46*%
G04 Gerber Fmt 4.6, Leading zero omitted, Abs format (unit mm)*
G04 Created by KiCad (PCBNEW 9.0.6) date 2026-04-24 13:37:01*
%MOMM*%
%LPD*%
G01*
G04 APERTURE LIST*
G04 Aperture macros list*
%AMRoundRect*
0 Rectangle with rounded corners*
0 $1 Rounding radius*
0 $2 $3 $4 $5 $6 $7 $8 $9 X,Y pos of 4 corners*
0 Add a 4 corners polygon primitive as box body*
4,1,4,$2,$3,$4,$5,$6,$7,$8,$9,$2,$3,0*
0 Add four circle primitives for the rounded corners*
1,1,$1+$1,$2,$3*
1,1,$1+$1,$4,$5*
1,1,$1+$1,$6,$7*
1,1,$1+$1,$8,$9*
0 Add four rect primitives between the rounded corners*
20,1,$1+$1,$2,$3,$4,$5,0*
20,1,$1+$1,$4,$5,$6,$7,0*
20,1,$1+$1,$6,$7,$8,$9,0*
20,1,$1+$1,$8,$9,$2,$3,0*%
G04 Aperture macros list end*
%ADD10C,1.600000*%
%ADD11R,1.700000X1.700000*%
%ADD12C,1.700000*%
%ADD13RoundRect,0.250000X0.350000X-0.350000X0.350000X0.350000X-0.350000X0.350000X-0.350000X-0.350000X0*%
%ADD14C,1.200000*%
%ADD15RoundRect,0.250000X-0.550000X-0.550000X0.550000X-0.550000X0.550000X0.550000X-0.550000X0.550000X0*%
%ADD16R,1.800000X1.800000*%
%ADD17O,1.800000X1.800000*%
%ADD18RoundRect,0.250000X-0.600000X-0.600000X0.600000X-0.600000X0.600000X0.600000X-0.600000X0.600000X0*%
%ADD19O,1.727200X2.032000*%
%ADD20RoundRect,0.412500X0.412500X-0.412500X0.412500X0.412500X-0.412500X0.412500X-0.412500X-0.412500X0*%
%ADD21C,1.650000*%
G04 APERTURE END LIST*
D10*
%TO.C,R3*%
X146610000Y-100033333D03*
X138990000Y-100033333D03*
%TD*%
%TO.C,R4*%
X128400000Y-127280000D03*
X128400000Y-134900000D03*
%TD*%
%TO.C,R9*%
X147400000Y-86300000D03*
X147400000Y-78680000D03*
%TD*%
D11*
%TO.C,J2*%
X127300000Y-57460000D03*
D12*
X127300000Y-60000000D03*
X127300000Y-62540000D03*
X127300000Y-65080000D03*
X127300000Y-67620000D03*
X127300000Y-70160000D03*
X127300000Y-72700000D03*
X127300000Y-75240000D03*
%TD*%
D10*
%TO.C,R1*%
X146610000Y-96300000D03*
X138990000Y-96300000D03*
%TD*%
%TO.C,R8*%
X134500000Y-127280000D03*
X134500000Y-134900000D03*
%TD*%
D13*
%TO.C,C2*%
X139700000Y-113272600D03*
D14*
X139700000Y-111272600D03*
%TD*%
D10*
%TO.C,R11*%
X141000000Y-86310000D03*
X141000000Y-78690000D03*
%TD*%
%TO.C,R5*%
X146610000Y-103766667D03*
X138990000Y-103766667D03*
%TD*%
%TO.C,R7*%
X146610000Y-107500000D03*
X138990000Y-107500000D03*
%TD*%
%TO.C,C3*%
X143800000Y-116100000D03*
X148800000Y-116100000D03*
%TD*%
%TO.C,R6*%
X131500000Y-127290000D03*
X131500000Y-134910000D03*
%TD*%
D15*
%TO.C,U1*%
X139700000Y-120260000D03*
D10*
X139700000Y-122800000D03*
X139700000Y-125340000D03*
X139700000Y-127880000D03*
X139700000Y-130420000D03*
X139700000Y-132960000D03*
X139700000Y-135500000D03*
X147320000Y-135500000D03*
X147320000Y-132960000D03*
X147320000Y-130420000D03*
X147320000Y-127880000D03*
X147320000Y-125340000D03*
X147320000Y-122800000D03*
X147320000Y-120260000D03*
%TD*%
%TO.C,C1*%
X143800000Y-112200000D03*
X148800000Y-112200000D03*
%TD*%
%TO.C,R10*%
X144200000Y-86300000D03*
X144200000Y-78680000D03*
%TD*%
%TO.C,R12*%
X137800000Y-86310000D03*
X137800000Y-78690000D03*
%TD*%
D11*
%TO.C,J1*%
X153100000Y-83320000D03*
D12*
X153100000Y-85860000D03*
X153100000Y-88400000D03*
X153100000Y-90940000D03*
X153100000Y-93480000D03*
X153100000Y-96020000D03*
X153100000Y-98560000D03*
X153100000Y-101100000D03*
%TD*%
D10*
%TO.C,R2*%
X127690000Y-124400000D03*
X135310000Y-124400000D03*
%TD*%
D11*
%TO.C,J4*%
X152700000Y-108160000D03*
D12*
X152700000Y-110700000D03*
X152700000Y-113240000D03*
X152700000Y-115780000D03*
X152700000Y-118320000D03*
X152700000Y-120860000D03*
X152700000Y-123400000D03*
X152700000Y-125940000D03*
X152700000Y-128480000D03*
X152700000Y-131020000D03*
%TD*%
D16*
%TO.C,U2*%
X128900000Y-112800000D03*
D17*
X131440000Y-112800000D03*
X133980000Y-112800000D03*
%TD*%
D11*
%TO.C,J6*%
X150235000Y-56559750D03*
D12*
X150235000Y-59099750D03*
X150235000Y-61639750D03*
X150235000Y-64179750D03*
X150235000Y-66719750D03*
X150235000Y-69259750D03*
X150235000Y-71799750D03*
%TD*%
D18*
%TO.C,J5*%
X129560000Y-102200000D03*
D12*
X132100000Y-102200000D03*
X129560000Y-99660000D03*
X132100000Y-99660000D03*
X129560000Y-97120000D03*
X132100000Y-97120000D03*
X129560000Y-94580000D03*
X132100000Y-94580000D03*
X129560000Y-92040000D03*
X132100000Y-92040000D03*
X129560000Y-89500000D03*
X132100000Y-89500000D03*
X129560000Y-86960000D03*
X132100000Y-86960000D03*
X129560000Y-84420000D03*
X132100000Y-84420000D03*
%TD*%
D19*
%TO.C,J3*%
X134700000Y-118600000D03*
X132160000Y-118600000D03*
X129620000Y-118600000D03*
%TD*%
D11*
%TO.C,J7*%
X135327175Y-71699750D03*
D12*
X135327175Y-69159750D03*
X135327175Y-66619750D03*
X135327175Y-64079750D03*
X135327175Y-61539750D03*
X135327175Y-58999750D03*
X135327175Y-56459750D03*
%TD*%
D20*
%TO.C,RV2*%
X136850000Y-146680000D03*
D21*
X136850000Y-144140000D03*
X136850000Y-141600000D03*
%TD*%
D20*
%TO.C,RV1*%
X130075000Y-146680000D03*
D21*
X130075000Y-144140000D03*
X130075000Y-141600000D03*
%TD*%
D20*
%TO.C,RV3*%
X143625000Y-146680000D03*
D21*
X143625000Y-144140000D03*
X143625000Y-141600000D03*
%TD*%
D20*
%TO.C,RV4*%
X150400000Y-146680000D03*
D21*
X150400000Y-144140000D03*
X150400000Y-141600000D03*
%TD*%
M02*
