%TF.GenerationSoftware,KiCad,Pcbnew,9.0.6*%
%TF.CreationDate,2026-04-24T13:37:00-03:00*%
%TF.ProjectId,MainPCB_V2.1,4d61696e-5043-4425-9f56-322e312e6b69,rev?*%
%TF.SameCoordinates,Original*%
%TF.FileFunction,Legend,Top*%
%TF.FilePolarity,Positive*%
%FSLAX46Y46*%
G04 Gerber Fmt 4.6, Leading zero omitted, Abs format (unit mm)*
G04 Created by KiCad (PCBNEW 9.0.6) date 2026-04-24 13:37:00*
%MOMM*%
%LPD*%
G01*
G04 APERTURE LIST*
G04 Aperture macros list*
%AMRoundRect*
0 Rectangle with rounded corners*
0 $1 Rounding radius*
0 $2 $3 $4 $5 $6 $7 $8 $9 X,Y pos of 4 corners*
0 Add a 4 corners polygon primitive as box body*
4,1,4,$2,$3,$4,$5,$6,$7,$8,$9,$2,$3,0*
0 Add four circle primitives for the rounded corners*
1,1,$1+$1,$2,$3*
1,1,$1+$1,$4,$5*
1,1,$1+$1,$6,$7*
1,1,$1+$1,$8,$9*
0 Add four rect primitives between the rounded corners*
20,1,$1+$1,$2,$3,$4,$5,0*
20,1,$1+$1,$4,$5,$6,$7,0*
20,1,$1+$1,$6,$7,$8,$9,0*
20,1,$1+$1,$8,$9,$2,$3,0*%
G04 Aperture macros list end*
%ADD10C,0.150000*%
%ADD11C,0.120000*%
%ADD12C,1.600000*%
%ADD13R,1.700000X1.700000*%
%ADD14C,1.700000*%
%ADD15RoundRect,0.250000X0.350000X-0.350000X0.350000X0.350000X-0.350000X0.350000X-0.350000X-0.350000X0*%
%ADD16C,1.200000*%
%ADD17RoundRect,0.250000X-0.550000X-0.550000X0.550000X-0.550000X0.550000X0.550000X-0.550000X0.550000X0*%
%ADD18R,1.800000X1.800000*%
%ADD19O,1.800000X1.800000*%
%ADD20RoundRect,0.250000X-0.600000X-0.600000X0.600000X-0.600000X0.600000X0.600000X-0.600000X0.600000X0*%
%ADD21O,1.727200X2.032000*%
%ADD22RoundRect,0.412500X0.412500X-0.412500X0.412500X0.412500X-0.412500X0.412500X-0.412500X-0.412500X0*%
%ADD23C,1.650000*%
G04 APERTURE END LIST*
D10*
X136833333Y-100654819D02*
X136500000Y-100178628D01*
X136261905Y-100654819D02*
X136261905Y-99654819D01*
X136261905Y-99654819D02*
X136642857Y-99654819D01*
X136642857Y-99654819D02*
X136738095Y-99702438D01*
X136738095Y-99702438D02*
X136785714Y-99750057D01*
X136785714Y-99750057D02*
X136833333Y-99845295D01*
X136833333Y-99845295D02*
X136833333Y-99988152D01*
X136833333Y-99988152D02*
X136785714Y-100083390D01*
X136785714Y-100083390D02*
X136738095Y-100131009D01*
X136738095Y-100131009D02*
X136642857Y-100178628D01*
X136642857Y-100178628D02*
X136261905Y-100178628D01*
X137166667Y-99654819D02*
X137785714Y-99654819D01*
X137785714Y-99654819D02*
X137452381Y-100035771D01*
X137452381Y-100035771D02*
X137595238Y-100035771D01*
X137595238Y-100035771D02*
X137690476Y-100083390D01*
X137690476Y-100083390D02*
X137738095Y-100131009D01*
X137738095Y-100131009D02*
X137785714Y-100226247D01*
X137785714Y-100226247D02*
X137785714Y-100464342D01*
X137785714Y-100464342D02*
X137738095Y-100559580D01*
X137738095Y-100559580D02*
X137690476Y-100607200D01*
X137690476Y-100607200D02*
X137595238Y-100654819D01*
X137595238Y-100654819D02*
X137309524Y-100654819D01*
X137309524Y-100654819D02*
X137214286Y-100607200D01*
X137214286Y-100607200D02*
X137166667Y-100559580D01*
X128854819Y-137066666D02*
X128378628Y-137399999D01*
X128854819Y-137638094D02*
X127854819Y-137638094D01*
X127854819Y-137638094D02*
X127854819Y-137257142D01*
X127854819Y-137257142D02*
X127902438Y-137161904D01*
X127902438Y-137161904D02*
X127950057Y-137114285D01*
X127950057Y-137114285D02*
X128045295Y-137066666D01*
X128045295Y-137066666D02*
X128188152Y-137066666D01*
X128188152Y-137066666D02*
X128283390Y-137114285D01*
X128283390Y-137114285D02*
X128331009Y-137161904D01*
X128331009Y-137161904D02*
X128378628Y-137257142D01*
X128378628Y-137257142D02*
X128378628Y-137638094D01*
X128188152Y-136209523D02*
X128854819Y-136209523D01*
X127807200Y-136447618D02*
X128521485Y-136685713D01*
X128521485Y-136685713D02*
X128521485Y-136066666D01*
X147954819Y-88466666D02*
X147478628Y-88799999D01*
X147954819Y-89038094D02*
X146954819Y-89038094D01*
X146954819Y-89038094D02*
X146954819Y-88657142D01*
X146954819Y-88657142D02*
X147002438Y-88561904D01*
X147002438Y-88561904D02*
X147050057Y-88514285D01*
X147050057Y-88514285D02*
X147145295Y-88466666D01*
X147145295Y-88466666D02*
X147288152Y-88466666D01*
X147288152Y-88466666D02*
X147383390Y-88514285D01*
X147383390Y-88514285D02*
X147431009Y-88561904D01*
X147431009Y-88561904D02*
X147478628Y-88657142D01*
X147478628Y-88657142D02*
X147478628Y-89038094D01*
X147954819Y-87990475D02*
X147954819Y-87799999D01*
X147954819Y-87799999D02*
X147907200Y-87704761D01*
X147907200Y-87704761D02*
X147859580Y-87657142D01*
X147859580Y-87657142D02*
X147716723Y-87561904D01*
X147716723Y-87561904D02*
X147526247Y-87514285D01*
X147526247Y-87514285D02*
X147145295Y-87514285D01*
X147145295Y-87514285D02*
X147050057Y-87561904D01*
X147050057Y-87561904D02*
X147002438Y-87609523D01*
X147002438Y-87609523D02*
X146954819Y-87704761D01*
X146954819Y-87704761D02*
X146954819Y-87895237D01*
X146954819Y-87895237D02*
X147002438Y-87990475D01*
X147002438Y-87990475D02*
X147050057Y-88038094D01*
X147050057Y-88038094D02*
X147145295Y-88085713D01*
X147145295Y-88085713D02*
X147383390Y-88085713D01*
X147383390Y-88085713D02*
X147478628Y-88038094D01*
X147478628Y-88038094D02*
X147526247Y-87990475D01*
X147526247Y-87990475D02*
X147573866Y-87895237D01*
X147573866Y-87895237D02*
X147573866Y-87704761D01*
X147573866Y-87704761D02*
X147526247Y-87609523D01*
X147526247Y-87609523D02*
X147478628Y-87561904D01*
X147478628Y-87561904D02*
X147383390Y-87514285D01*
X126966666Y-54144819D02*
X126966666Y-54859104D01*
X126966666Y-54859104D02*
X126919047Y-55001961D01*
X126919047Y-55001961D02*
X126823809Y-55097200D01*
X126823809Y-55097200D02*
X126680952Y-55144819D01*
X126680952Y-55144819D02*
X126585714Y-55144819D01*
X127395238Y-54240057D02*
X127442857Y-54192438D01*
X127442857Y-54192438D02*
X127538095Y-54144819D01*
X127538095Y-54144819D02*
X127776190Y-54144819D01*
X127776190Y-54144819D02*
X127871428Y-54192438D01*
X127871428Y-54192438D02*
X127919047Y-54240057D01*
X127919047Y-54240057D02*
X127966666Y-54335295D01*
X127966666Y-54335295D02*
X127966666Y-54430533D01*
X127966666Y-54430533D02*
X127919047Y-54573390D01*
X127919047Y-54573390D02*
X127347619Y-55144819D01*
X127347619Y-55144819D02*
X127966666Y-55144819D01*
X136933333Y-96754819D02*
X136600000Y-96278628D01*
X136361905Y-96754819D02*
X136361905Y-95754819D01*
X136361905Y-95754819D02*
X136742857Y-95754819D01*
X136742857Y-95754819D02*
X136838095Y-95802438D01*
X136838095Y-95802438D02*
X136885714Y-95850057D01*
X136885714Y-95850057D02*
X136933333Y-95945295D01*
X136933333Y-95945295D02*
X136933333Y-96088152D01*
X136933333Y-96088152D02*
X136885714Y-96183390D01*
X136885714Y-96183390D02*
X136838095Y-96231009D01*
X136838095Y-96231009D02*
X136742857Y-96278628D01*
X136742857Y-96278628D02*
X136361905Y-96278628D01*
X137885714Y-96754819D02*
X137314286Y-96754819D01*
X137600000Y-96754819D02*
X137600000Y-95754819D01*
X137600000Y-95754819D02*
X137504762Y-95897676D01*
X137504762Y-95897676D02*
X137409524Y-95992914D01*
X137409524Y-95992914D02*
X137314286Y-96040533D01*
X135054819Y-137066666D02*
X134578628Y-137399999D01*
X135054819Y-137638094D02*
X134054819Y-137638094D01*
X134054819Y-137638094D02*
X134054819Y-137257142D01*
X134054819Y-137257142D02*
X134102438Y-137161904D01*
X134102438Y-137161904D02*
X134150057Y-137114285D01*
X134150057Y-137114285D02*
X134245295Y-137066666D01*
X134245295Y-137066666D02*
X134388152Y-137066666D01*
X134388152Y-137066666D02*
X134483390Y-137114285D01*
X134483390Y-137114285D02*
X134531009Y-137161904D01*
X134531009Y-137161904D02*
X134578628Y-137257142D01*
X134578628Y-137257142D02*
X134578628Y-137638094D01*
X134483390Y-136495237D02*
X134435771Y-136590475D01*
X134435771Y-136590475D02*
X134388152Y-136638094D01*
X134388152Y-136638094D02*
X134292914Y-136685713D01*
X134292914Y-136685713D02*
X134245295Y-136685713D01*
X134245295Y-136685713D02*
X134150057Y-136638094D01*
X134150057Y-136638094D02*
X134102438Y-136590475D01*
X134102438Y-136590475D02*
X134054819Y-136495237D01*
X134054819Y-136495237D02*
X134054819Y-136304761D01*
X134054819Y-136304761D02*
X134102438Y-136209523D01*
X134102438Y-136209523D02*
X134150057Y-136161904D01*
X134150057Y-136161904D02*
X134245295Y-136114285D01*
X134245295Y-136114285D02*
X134292914Y-136114285D01*
X134292914Y-136114285D02*
X134388152Y-136161904D01*
X134388152Y-136161904D02*
X134435771Y-136209523D01*
X134435771Y-136209523D02*
X134483390Y-136304761D01*
X134483390Y-136304761D02*
X134483390Y-136495237D01*
X134483390Y-136495237D02*
X134531009Y-136590475D01*
X134531009Y-136590475D02*
X134578628Y-136638094D01*
X134578628Y-136638094D02*
X134673866Y-136685713D01*
X134673866Y-136685713D02*
X134864342Y-136685713D01*
X134864342Y-136685713D02*
X134959580Y-136638094D01*
X134959580Y-136638094D02*
X135007200Y-136590475D01*
X135007200Y-136590475D02*
X135054819Y-136495237D01*
X135054819Y-136495237D02*
X135054819Y-136304761D01*
X135054819Y-136304761D02*
X135007200Y-136209523D01*
X135007200Y-136209523D02*
X134959580Y-136161904D01*
X134959580Y-136161904D02*
X134864342Y-136114285D01*
X134864342Y-136114285D02*
X134673866Y-136114285D01*
X134673866Y-136114285D02*
X134578628Y-136161904D01*
X134578628Y-136161904D02*
X134531009Y-136209523D01*
X134531009Y-136209523D02*
X134483390Y-136304761D01*
X136809580Y-112439266D02*
X136857200Y-112486885D01*
X136857200Y-112486885D02*
X136904819Y-112629742D01*
X136904819Y-112629742D02*
X136904819Y-112724980D01*
X136904819Y-112724980D02*
X136857200Y-112867837D01*
X136857200Y-112867837D02*
X136761961Y-112963075D01*
X136761961Y-112963075D02*
X136666723Y-113010694D01*
X136666723Y-113010694D02*
X136476247Y-113058313D01*
X136476247Y-113058313D02*
X136333390Y-113058313D01*
X136333390Y-113058313D02*
X136142914Y-113010694D01*
X136142914Y-113010694D02*
X136047676Y-112963075D01*
X136047676Y-112963075D02*
X135952438Y-112867837D01*
X135952438Y-112867837D02*
X135904819Y-112724980D01*
X135904819Y-112724980D02*
X135904819Y-112629742D01*
X135904819Y-112629742D02*
X135952438Y-112486885D01*
X135952438Y-112486885D02*
X136000057Y-112439266D01*
X136000057Y-112058313D02*
X135952438Y-112010694D01*
X135952438Y-112010694D02*
X135904819Y-111915456D01*
X135904819Y-111915456D02*
X135904819Y-111677361D01*
X135904819Y-111677361D02*
X135952438Y-111582123D01*
X135952438Y-111582123D02*
X136000057Y-111534504D01*
X136000057Y-111534504D02*
X136095295Y-111486885D01*
X136095295Y-111486885D02*
X136190533Y-111486885D01*
X136190533Y-111486885D02*
X136333390Y-111534504D01*
X136333390Y-111534504D02*
X136904819Y-112105932D01*
X136904819Y-112105932D02*
X136904819Y-111486885D01*
X141454819Y-89342857D02*
X140978628Y-89676190D01*
X141454819Y-89914285D02*
X140454819Y-89914285D01*
X140454819Y-89914285D02*
X140454819Y-89533333D01*
X140454819Y-89533333D02*
X140502438Y-89438095D01*
X140502438Y-89438095D02*
X140550057Y-89390476D01*
X140550057Y-89390476D02*
X140645295Y-89342857D01*
X140645295Y-89342857D02*
X140788152Y-89342857D01*
X140788152Y-89342857D02*
X140883390Y-89390476D01*
X140883390Y-89390476D02*
X140931009Y-89438095D01*
X140931009Y-89438095D02*
X140978628Y-89533333D01*
X140978628Y-89533333D02*
X140978628Y-89914285D01*
X141454819Y-88390476D02*
X141454819Y-88961904D01*
X141454819Y-88676190D02*
X140454819Y-88676190D01*
X140454819Y-88676190D02*
X140597676Y-88771428D01*
X140597676Y-88771428D02*
X140692914Y-88866666D01*
X140692914Y-88866666D02*
X140740533Y-88961904D01*
X141454819Y-87438095D02*
X141454819Y-88009523D01*
X141454819Y-87723809D02*
X140454819Y-87723809D01*
X140454819Y-87723809D02*
X140597676Y-87819047D01*
X140597676Y-87819047D02*
X140692914Y-87914285D01*
X140692914Y-87914285D02*
X140740533Y-88009523D01*
X136833333Y-104154819D02*
X136500000Y-103678628D01*
X136261905Y-104154819D02*
X136261905Y-103154819D01*
X136261905Y-103154819D02*
X136642857Y-103154819D01*
X136642857Y-103154819D02*
X136738095Y-103202438D01*
X136738095Y-103202438D02*
X136785714Y-103250057D01*
X136785714Y-103250057D02*
X136833333Y-103345295D01*
X136833333Y-103345295D02*
X136833333Y-103488152D01*
X136833333Y-103488152D02*
X136785714Y-103583390D01*
X136785714Y-103583390D02*
X136738095Y-103631009D01*
X136738095Y-103631009D02*
X136642857Y-103678628D01*
X136642857Y-103678628D02*
X136261905Y-103678628D01*
X137738095Y-103154819D02*
X137261905Y-103154819D01*
X137261905Y-103154819D02*
X137214286Y-103631009D01*
X137214286Y-103631009D02*
X137261905Y-103583390D01*
X137261905Y-103583390D02*
X137357143Y-103535771D01*
X137357143Y-103535771D02*
X137595238Y-103535771D01*
X137595238Y-103535771D02*
X137690476Y-103583390D01*
X137690476Y-103583390D02*
X137738095Y-103631009D01*
X137738095Y-103631009D02*
X137785714Y-103726247D01*
X137785714Y-103726247D02*
X137785714Y-103964342D01*
X137785714Y-103964342D02*
X137738095Y-104059580D01*
X137738095Y-104059580D02*
X137690476Y-104107200D01*
X137690476Y-104107200D02*
X137595238Y-104154819D01*
X137595238Y-104154819D02*
X137357143Y-104154819D01*
X137357143Y-104154819D02*
X137261905Y-104107200D01*
X137261905Y-104107200D02*
X137214286Y-104059580D01*
X136833333Y-107954819D02*
X136500000Y-107478628D01*
X136261905Y-107954819D02*
X136261905Y-106954819D01*
X136261905Y-106954819D02*
X136642857Y-106954819D01*
X136642857Y-106954819D02*
X136738095Y-107002438D01*
X136738095Y-107002438D02*
X136785714Y-107050057D01*
X136785714Y-107050057D02*
X136833333Y-107145295D01*
X136833333Y-107145295D02*
X136833333Y-107288152D01*
X136833333Y-107288152D02*
X136785714Y-107383390D01*
X136785714Y-107383390D02*
X136738095Y-107431009D01*
X136738095Y-107431009D02*
X136642857Y-107478628D01*
X136642857Y-107478628D02*
X136261905Y-107478628D01*
X137166667Y-106954819D02*
X137833333Y-106954819D01*
X137833333Y-106954819D02*
X137404762Y-107954819D01*
X150433333Y-116459580D02*
X150385714Y-116507200D01*
X150385714Y-116507200D02*
X150242857Y-116554819D01*
X150242857Y-116554819D02*
X150147619Y-116554819D01*
X150147619Y-116554819D02*
X150004762Y-116507200D01*
X150004762Y-116507200D02*
X149909524Y-116411961D01*
X149909524Y-116411961D02*
X149861905Y-116316723D01*
X149861905Y-116316723D02*
X149814286Y-116126247D01*
X149814286Y-116126247D02*
X149814286Y-115983390D01*
X149814286Y-115983390D02*
X149861905Y-115792914D01*
X149861905Y-115792914D02*
X149909524Y-115697676D01*
X149909524Y-115697676D02*
X150004762Y-115602438D01*
X150004762Y-115602438D02*
X150147619Y-115554819D01*
X150147619Y-115554819D02*
X150242857Y-115554819D01*
X150242857Y-115554819D02*
X150385714Y-115602438D01*
X150385714Y-115602438D02*
X150433333Y-115650057D01*
X150766667Y-115554819D02*
X151385714Y-115554819D01*
X151385714Y-115554819D02*
X151052381Y-115935771D01*
X151052381Y-115935771D02*
X151195238Y-115935771D01*
X151195238Y-115935771D02*
X151290476Y-115983390D01*
X151290476Y-115983390D02*
X151338095Y-116031009D01*
X151338095Y-116031009D02*
X151385714Y-116126247D01*
X151385714Y-116126247D02*
X151385714Y-116364342D01*
X151385714Y-116364342D02*
X151338095Y-116459580D01*
X151338095Y-116459580D02*
X151290476Y-116507200D01*
X151290476Y-116507200D02*
X151195238Y-116554819D01*
X151195238Y-116554819D02*
X150909524Y-116554819D01*
X150909524Y-116554819D02*
X150814286Y-116507200D01*
X150814286Y-116507200D02*
X150766667Y-116459580D01*
X131954819Y-137066666D02*
X131478628Y-137399999D01*
X131954819Y-137638094D02*
X130954819Y-137638094D01*
X130954819Y-137638094D02*
X130954819Y-137257142D01*
X130954819Y-137257142D02*
X131002438Y-137161904D01*
X131002438Y-137161904D02*
X131050057Y-137114285D01*
X131050057Y-137114285D02*
X131145295Y-137066666D01*
X131145295Y-137066666D02*
X131288152Y-137066666D01*
X131288152Y-137066666D02*
X131383390Y-137114285D01*
X131383390Y-137114285D02*
X131431009Y-137161904D01*
X131431009Y-137161904D02*
X131478628Y-137257142D01*
X131478628Y-137257142D02*
X131478628Y-137638094D01*
X130954819Y-136209523D02*
X130954819Y-136399999D01*
X130954819Y-136399999D02*
X131002438Y-136495237D01*
X131002438Y-136495237D02*
X131050057Y-136542856D01*
X131050057Y-136542856D02*
X131192914Y-136638094D01*
X131192914Y-136638094D02*
X131383390Y-136685713D01*
X131383390Y-136685713D02*
X131764342Y-136685713D01*
X131764342Y-136685713D02*
X131859580Y-136638094D01*
X131859580Y-136638094D02*
X131907200Y-136590475D01*
X131907200Y-136590475D02*
X131954819Y-136495237D01*
X131954819Y-136495237D02*
X131954819Y-136304761D01*
X131954819Y-136304761D02*
X131907200Y-136209523D01*
X131907200Y-136209523D02*
X131859580Y-136161904D01*
X131859580Y-136161904D02*
X131764342Y-136114285D01*
X131764342Y-136114285D02*
X131526247Y-136114285D01*
X131526247Y-136114285D02*
X131431009Y-136161904D01*
X131431009Y-136161904D02*
X131383390Y-136209523D01*
X131383390Y-136209523D02*
X131335771Y-136304761D01*
X131335771Y-136304761D02*
X131335771Y-136495237D01*
X131335771Y-136495237D02*
X131383390Y-136590475D01*
X131383390Y-136590475D02*
X131431009Y-136638094D01*
X131431009Y-136638094D02*
X131526247Y-136685713D01*
X142938095Y-137154819D02*
X142938095Y-137964342D01*
X142938095Y-137964342D02*
X142985714Y-138059580D01*
X142985714Y-138059580D02*
X143033333Y-138107200D01*
X143033333Y-138107200D02*
X143128571Y-138154819D01*
X143128571Y-138154819D02*
X143319047Y-138154819D01*
X143319047Y-138154819D02*
X143414285Y-138107200D01*
X143414285Y-138107200D02*
X143461904Y-138059580D01*
X143461904Y-138059580D02*
X143509523Y-137964342D01*
X143509523Y-137964342D02*
X143509523Y-137154819D01*
X144509523Y-138154819D02*
X143938095Y-138154819D01*
X144223809Y-138154819D02*
X144223809Y-137154819D01*
X144223809Y-137154819D02*
X144128571Y-137297676D01*
X144128571Y-137297676D02*
X144033333Y-137392914D01*
X144033333Y-137392914D02*
X143938095Y-137440533D01*
X150533333Y-112659580D02*
X150485714Y-112707200D01*
X150485714Y-112707200D02*
X150342857Y-112754819D01*
X150342857Y-112754819D02*
X150247619Y-112754819D01*
X150247619Y-112754819D02*
X150104762Y-112707200D01*
X150104762Y-112707200D02*
X150009524Y-112611961D01*
X150009524Y-112611961D02*
X149961905Y-112516723D01*
X149961905Y-112516723D02*
X149914286Y-112326247D01*
X149914286Y-112326247D02*
X149914286Y-112183390D01*
X149914286Y-112183390D02*
X149961905Y-111992914D01*
X149961905Y-111992914D02*
X150009524Y-111897676D01*
X150009524Y-111897676D02*
X150104762Y-111802438D01*
X150104762Y-111802438D02*
X150247619Y-111754819D01*
X150247619Y-111754819D02*
X150342857Y-111754819D01*
X150342857Y-111754819D02*
X150485714Y-111802438D01*
X150485714Y-111802438D02*
X150533333Y-111850057D01*
X151485714Y-112754819D02*
X150914286Y-112754819D01*
X151200000Y-112754819D02*
X151200000Y-111754819D01*
X151200000Y-111754819D02*
X151104762Y-111897676D01*
X151104762Y-111897676D02*
X151009524Y-111992914D01*
X151009524Y-111992914D02*
X150914286Y-112040533D01*
X144654819Y-89442857D02*
X144178628Y-89776190D01*
X144654819Y-90014285D02*
X143654819Y-90014285D01*
X143654819Y-90014285D02*
X143654819Y-89633333D01*
X143654819Y-89633333D02*
X143702438Y-89538095D01*
X143702438Y-89538095D02*
X143750057Y-89490476D01*
X143750057Y-89490476D02*
X143845295Y-89442857D01*
X143845295Y-89442857D02*
X143988152Y-89442857D01*
X143988152Y-89442857D02*
X144083390Y-89490476D01*
X144083390Y-89490476D02*
X144131009Y-89538095D01*
X144131009Y-89538095D02*
X144178628Y-89633333D01*
X144178628Y-89633333D02*
X144178628Y-90014285D01*
X144654819Y-88490476D02*
X144654819Y-89061904D01*
X144654819Y-88776190D02*
X143654819Y-88776190D01*
X143654819Y-88776190D02*
X143797676Y-88871428D01*
X143797676Y-88871428D02*
X143892914Y-88966666D01*
X143892914Y-88966666D02*
X143940533Y-89061904D01*
X143654819Y-87871428D02*
X143654819Y-87776190D01*
X143654819Y-87776190D02*
X143702438Y-87680952D01*
X143702438Y-87680952D02*
X143750057Y-87633333D01*
X143750057Y-87633333D02*
X143845295Y-87585714D01*
X143845295Y-87585714D02*
X144035771Y-87538095D01*
X144035771Y-87538095D02*
X144273866Y-87538095D01*
X144273866Y-87538095D02*
X144464342Y-87585714D01*
X144464342Y-87585714D02*
X144559580Y-87633333D01*
X144559580Y-87633333D02*
X144607200Y-87680952D01*
X144607200Y-87680952D02*
X144654819Y-87776190D01*
X144654819Y-87776190D02*
X144654819Y-87871428D01*
X144654819Y-87871428D02*
X144607200Y-87966666D01*
X144607200Y-87966666D02*
X144559580Y-88014285D01*
X144559580Y-88014285D02*
X144464342Y-88061904D01*
X144464342Y-88061904D02*
X144273866Y-88109523D01*
X144273866Y-88109523D02*
X144035771Y-88109523D01*
X144035771Y-88109523D02*
X143845295Y-88061904D01*
X143845295Y-88061904D02*
X143750057Y-88014285D01*
X143750057Y-88014285D02*
X143702438Y-87966666D01*
X143702438Y-87966666D02*
X143654819Y-87871428D01*
X138254819Y-89442857D02*
X137778628Y-89776190D01*
X138254819Y-90014285D02*
X137254819Y-90014285D01*
X137254819Y-90014285D02*
X137254819Y-89633333D01*
X137254819Y-89633333D02*
X137302438Y-89538095D01*
X137302438Y-89538095D02*
X137350057Y-89490476D01*
X137350057Y-89490476D02*
X137445295Y-89442857D01*
X137445295Y-89442857D02*
X137588152Y-89442857D01*
X137588152Y-89442857D02*
X137683390Y-89490476D01*
X137683390Y-89490476D02*
X137731009Y-89538095D01*
X137731009Y-89538095D02*
X137778628Y-89633333D01*
X137778628Y-89633333D02*
X137778628Y-90014285D01*
X138254819Y-88490476D02*
X138254819Y-89061904D01*
X138254819Y-88776190D02*
X137254819Y-88776190D01*
X137254819Y-88776190D02*
X137397676Y-88871428D01*
X137397676Y-88871428D02*
X137492914Y-88966666D01*
X137492914Y-88966666D02*
X137540533Y-89061904D01*
X137350057Y-88109523D02*
X137302438Y-88061904D01*
X137302438Y-88061904D02*
X137254819Y-87966666D01*
X137254819Y-87966666D02*
X137254819Y-87728571D01*
X137254819Y-87728571D02*
X137302438Y-87633333D01*
X137302438Y-87633333D02*
X137350057Y-87585714D01*
X137350057Y-87585714D02*
X137445295Y-87538095D01*
X137445295Y-87538095D02*
X137540533Y-87538095D01*
X137540533Y-87538095D02*
X137683390Y-87585714D01*
X137683390Y-87585714D02*
X138254819Y-88157142D01*
X138254819Y-88157142D02*
X138254819Y-87538095D01*
X152766666Y-80004819D02*
X152766666Y-80719104D01*
X152766666Y-80719104D02*
X152719047Y-80861961D01*
X152719047Y-80861961D02*
X152623809Y-80957200D01*
X152623809Y-80957200D02*
X152480952Y-81004819D01*
X152480952Y-81004819D02*
X152385714Y-81004819D01*
X153766666Y-81004819D02*
X153195238Y-81004819D01*
X153480952Y-81004819D02*
X153480952Y-80004819D01*
X153480952Y-80004819D02*
X153385714Y-80147676D01*
X153385714Y-80147676D02*
X153290476Y-80242914D01*
X153290476Y-80242914D02*
X153195238Y-80290533D01*
X131333333Y-122484819D02*
X131000000Y-122008628D01*
X130761905Y-122484819D02*
X130761905Y-121484819D01*
X130761905Y-121484819D02*
X131142857Y-121484819D01*
X131142857Y-121484819D02*
X131238095Y-121532438D01*
X131238095Y-121532438D02*
X131285714Y-121580057D01*
X131285714Y-121580057D02*
X131333333Y-121675295D01*
X131333333Y-121675295D02*
X131333333Y-121818152D01*
X131333333Y-121818152D02*
X131285714Y-121913390D01*
X131285714Y-121913390D02*
X131238095Y-121961009D01*
X131238095Y-121961009D02*
X131142857Y-122008628D01*
X131142857Y-122008628D02*
X130761905Y-122008628D01*
X131714286Y-121580057D02*
X131761905Y-121532438D01*
X131761905Y-121532438D02*
X131857143Y-121484819D01*
X131857143Y-121484819D02*
X132095238Y-121484819D01*
X132095238Y-121484819D02*
X132190476Y-121532438D01*
X132190476Y-121532438D02*
X132238095Y-121580057D01*
X132238095Y-121580057D02*
X132285714Y-121675295D01*
X132285714Y-121675295D02*
X132285714Y-121770533D01*
X132285714Y-121770533D02*
X132238095Y-121913390D01*
X132238095Y-121913390D02*
X131666667Y-122484819D01*
X131666667Y-122484819D02*
X132285714Y-122484819D01*
D11*
%TO.C,R3*%
X139530000Y-98663333D02*
X139530000Y-98993333D01*
X139530000Y-101403333D02*
X139530000Y-101073333D01*
X146070000Y-98663333D02*
X139530000Y-98663333D01*
X146070000Y-98993333D02*
X146070000Y-98663333D01*
X146070000Y-101073333D02*
X146070000Y-101403333D01*
X146070000Y-101403333D02*
X139530000Y-101403333D01*
%TO.C,R4*%
X127030000Y-127820000D02*
X127030000Y-134360000D01*
X127030000Y-134360000D02*
X127360000Y-134360000D01*
X127360000Y-127820000D02*
X127030000Y-127820000D01*
X129440000Y-127820000D02*
X129770000Y-127820000D01*
X129770000Y-127820000D02*
X129770000Y-134360000D01*
X129770000Y-134360000D02*
X129440000Y-134360000D01*
%TO.C,R9*%
X146030000Y-79220000D02*
X146360000Y-79220000D01*
X146030000Y-85760000D02*
X146030000Y-79220000D01*
X146360000Y-85760000D02*
X146030000Y-85760000D01*
X148440000Y-85760000D02*
X148770000Y-85760000D01*
X148770000Y-79220000D02*
X148440000Y-79220000D01*
X148770000Y-85760000D02*
X148770000Y-79220000D01*
%TO.C,J2*%
X125970000Y-58730000D02*
X125970000Y-76570000D01*
X125970000Y-58730000D02*
X128630000Y-58730000D01*
X125970000Y-76570000D02*
X128630000Y-76570000D01*
X127300000Y-56130000D02*
X128630000Y-56130000D01*
X128630000Y-56130000D02*
X128630000Y-57460000D01*
X128630000Y-58730000D02*
X128630000Y-76570000D01*
%TO.C,R1*%
X139530000Y-94930000D02*
X139530000Y-95260000D01*
X139530000Y-97670000D02*
X139530000Y-97340000D01*
X146070000Y-94930000D02*
X139530000Y-94930000D01*
X146070000Y-95260000D02*
X146070000Y-94930000D01*
X146070000Y-97340000D02*
X146070000Y-97670000D01*
X146070000Y-97670000D02*
X139530000Y-97670000D01*
%TO.C,R8*%
X133130000Y-127820000D02*
X133130000Y-134360000D01*
X133130000Y-134360000D02*
X133460000Y-134360000D01*
X133460000Y-127820000D02*
X133130000Y-127820000D01*
X135540000Y-127820000D02*
X135870000Y-127820000D01*
X135870000Y-127820000D02*
X135870000Y-134360000D01*
X135870000Y-134360000D02*
X135540000Y-134360000D01*
%TO.C,C2*%
X137620000Y-112232600D02*
X141780000Y-112232600D01*
X137620000Y-112272600D02*
X141780000Y-112272600D01*
X137622000Y-112192600D02*
X141778000Y-112192600D01*
X137623000Y-112152600D02*
X141777000Y-112152600D01*
X137626000Y-112112600D02*
X141774000Y-112112600D01*
X137629000Y-112072600D02*
X138860000Y-112072600D01*
X137634000Y-112032600D02*
X138860000Y-112032600D01*
X137639000Y-111992600D02*
X138860000Y-111992600D01*
X137644000Y-111952600D02*
X138860000Y-111952600D01*
X137651000Y-111912600D02*
X138860000Y-111912600D01*
X137658000Y-111872600D02*
X138860000Y-111872600D01*
X137666000Y-111832600D02*
X138860000Y-111832600D01*
X137675000Y-111792600D02*
X138860000Y-111792600D01*
X137685000Y-111752600D02*
X138860000Y-111752600D01*
X137695000Y-111712600D02*
X138860000Y-111712600D01*
X137707000Y-111672600D02*
X138860000Y-111672600D01*
X137719000Y-111632600D02*
X138860000Y-111632600D01*
X137732000Y-111592600D02*
X138860000Y-111592600D01*
X137746000Y-111552600D02*
X138860000Y-111552600D01*
X137761000Y-111512600D02*
X138860000Y-111512600D01*
X137777000Y-111472600D02*
X138860000Y-111472600D01*
X137794000Y-111432600D02*
X138860000Y-111432600D01*
X137811000Y-111392600D02*
X138860000Y-111392600D01*
X137830000Y-111352600D02*
X138860000Y-111352600D01*
X137850000Y-111312600D02*
X138860000Y-111312600D01*
X137871000Y-111272600D02*
X138860000Y-111272600D01*
X137893000Y-111232600D02*
X138860000Y-111232600D01*
X137916000Y-111192600D02*
X138860000Y-111192600D01*
X137940000Y-111152600D02*
X138860000Y-111152600D01*
X137966000Y-111112600D02*
X138860000Y-111112600D01*
X137992000Y-111072600D02*
X138860000Y-111072600D01*
X138020000Y-111032600D02*
X138860000Y-111032600D01*
X138050000Y-110992600D02*
X138860000Y-110992600D01*
X138081000Y-110952600D02*
X138860000Y-110952600D01*
X138114000Y-110912600D02*
X138860000Y-110912600D01*
X138148000Y-110872600D02*
X138860000Y-110872600D01*
X138184000Y-110832600D02*
X138860000Y-110832600D01*
X138222000Y-110792600D02*
X138860000Y-110792600D01*
X138262000Y-110752600D02*
X138860000Y-110752600D01*
X138304000Y-110712600D02*
X138860000Y-110712600D01*
X138305000Y-114342401D02*
X138705000Y-114342401D01*
X138349000Y-110672600D02*
X138860000Y-110672600D01*
X138397000Y-110632600D02*
X138860000Y-110632600D01*
X138447000Y-110592600D02*
X138860000Y-110592600D01*
X138501000Y-110552600D02*
X138860000Y-110552600D01*
X138505000Y-114542401D02*
X138505000Y-114142401D01*
X138558000Y-110512600D02*
X138860000Y-110512600D01*
X138620000Y-110472600D02*
X138860000Y-110472600D01*
X138687000Y-110432600D02*
X140713000Y-110432600D01*
X138760000Y-110392600D02*
X140640000Y-110392600D01*
X138841000Y-110352600D02*
X140559000Y-110352600D01*
X138932000Y-110312600D02*
X140468000Y-110312600D01*
X139037000Y-110272600D02*
X140363000Y-110272600D01*
X139163000Y-110232600D02*
X140237000Y-110232600D01*
X139330000Y-110192600D02*
X140070000Y-110192600D01*
X140540000Y-110472600D02*
X140780000Y-110472600D01*
X140540000Y-110512600D02*
X140842000Y-110512600D01*
X140540000Y-110552600D02*
X140899000Y-110552600D01*
X140540000Y-110592600D02*
X140953000Y-110592600D01*
X140540000Y-110632600D02*
X141003000Y-110632600D01*
X140540000Y-110672600D02*
X141051000Y-110672600D01*
X140540000Y-110712600D02*
X141096000Y-110712600D01*
X140540000Y-110752600D02*
X141138000Y-110752600D01*
X140540000Y-110792600D02*
X141178000Y-110792600D01*
X140540000Y-110832600D02*
X141216000Y-110832600D01*
X140540000Y-110872600D02*
X141252000Y-110872600D01*
X140540000Y-110912600D02*
X141286000Y-110912600D01*
X140540000Y-110952600D02*
X141319000Y-110952600D01*
X140540000Y-110992600D02*
X141350000Y-110992600D01*
X140540000Y-111032600D02*
X141380000Y-111032600D01*
X140540000Y-111072600D02*
X141408000Y-111072600D01*
X140540000Y-111112600D02*
X141434000Y-111112600D01*
X140540000Y-111152600D02*
X141460000Y-111152600D01*
X140540000Y-111192600D02*
X141484000Y-111192600D01*
X140540000Y-111232600D02*
X141507000Y-111232600D01*
X140540000Y-111272600D02*
X141529000Y-111272600D01*
X140540000Y-111312600D02*
X141550000Y-111312600D01*
X140540000Y-111352600D02*
X141570000Y-111352600D01*
X140540000Y-111392600D02*
X141589000Y-111392600D01*
X140540000Y-111432600D02*
X141606000Y-111432600D01*
X140540000Y-111472600D02*
X141623000Y-111472600D01*
X140540000Y-111512600D02*
X141639000Y-111512600D01*
X140540000Y-111552600D02*
X141654000Y-111552600D01*
X140540000Y-111592600D02*
X141668000Y-111592600D01*
X140540000Y-111632600D02*
X141681000Y-111632600D01*
X140540000Y-111672600D02*
X141693000Y-111672600D01*
X140540000Y-111712600D02*
X141705000Y-111712600D01*
X140540000Y-111752600D02*
X141715000Y-111752600D01*
X140540000Y-111792600D02*
X141725000Y-111792600D01*
X140540000Y-111832600D02*
X141734000Y-111832600D01*
X140540000Y-111872600D02*
X141742000Y-111872600D01*
X140540000Y-111912600D02*
X141749000Y-111912600D01*
X140540000Y-111952600D02*
X141756000Y-111952600D01*
X140540000Y-111992600D02*
X141761000Y-111992600D01*
X140540000Y-112032600D02*
X141766000Y-112032600D01*
X140540000Y-112072600D02*
X141771000Y-112072600D01*
X141820000Y-112272600D02*
G75*
G02*
X137580000Y-112272600I-2120000J0D01*
G01*
X137580000Y-112272600D02*
G75*
G02*
X141820000Y-112272600I2120000J0D01*
G01*
%TO.C,R11*%
X139630000Y-79230000D02*
X139960000Y-79230000D01*
X139630000Y-85770000D02*
X139630000Y-79230000D01*
X139960000Y-85770000D02*
X139630000Y-85770000D01*
X142040000Y-85770000D02*
X142370000Y-85770000D01*
X142370000Y-79230000D02*
X142040000Y-79230000D01*
X142370000Y-85770000D02*
X142370000Y-79230000D01*
%TO.C,R5*%
X139530000Y-102396667D02*
X139530000Y-102726667D01*
X139530000Y-105136667D02*
X139530000Y-104806667D01*
X146070000Y-102396667D02*
X139530000Y-102396667D01*
X146070000Y-102726667D02*
X146070000Y-102396667D01*
X146070000Y-104806667D02*
X146070000Y-105136667D01*
X146070000Y-105136667D02*
X139530000Y-105136667D01*
%TO.C,R7*%
X139530000Y-106130000D02*
X139530000Y-106460000D01*
X139530000Y-108870000D02*
X139530000Y-108540000D01*
X146070000Y-106130000D02*
X139530000Y-106130000D01*
X146070000Y-106460000D02*
X146070000Y-106130000D01*
X146070000Y-108540000D02*
X146070000Y-108870000D01*
X146070000Y-108870000D02*
X139530000Y-108870000D01*
%TO.C,C3*%
X143630000Y-114380000D02*
X148970000Y-114380000D01*
X143630000Y-115074000D02*
X143630000Y-114380000D01*
X143630000Y-117820000D02*
X143630000Y-117126000D01*
X148970000Y-114380000D02*
X148970000Y-115074000D01*
X148970000Y-117126000D02*
X148970000Y-117820000D01*
X148970000Y-117820000D02*
X143630000Y-117820000D01*
%TO.C,R6*%
X130130000Y-127830000D02*
X130130000Y-134370000D01*
X130130000Y-134370000D02*
X130460000Y-134370000D01*
X130460000Y-127830000D02*
X130130000Y-127830000D01*
X132540000Y-127830000D02*
X132870000Y-127830000D01*
X132870000Y-127830000D02*
X132870000Y-134370000D01*
X132870000Y-134370000D02*
X132540000Y-134370000D01*
%TO.C,U1*%
X140860000Y-118930000D02*
X140860000Y-136830000D01*
X140860000Y-136830000D02*
X146160000Y-136830000D01*
X142510000Y-118930000D02*
X140860000Y-118930000D01*
X146160000Y-118930000D02*
X144510000Y-118930000D01*
X146160000Y-136830000D02*
X146160000Y-118930000D01*
X138370000Y-118870000D02*
X148650000Y-118870000D01*
X148650000Y-136890000D01*
X138370000Y-136890000D01*
X138370000Y-118870000D01*
X144510000Y-118930000D02*
G75*
G02*
X142510000Y-118930000I-1000000J0D01*
G01*
%TO.C,C1*%
X143630000Y-110480000D02*
X148970000Y-110480000D01*
X143630000Y-111174000D02*
X143630000Y-110480000D01*
X143630000Y-113920000D02*
X143630000Y-113226000D01*
X148970000Y-110480000D02*
X148970000Y-111174000D01*
X148970000Y-113226000D02*
X148970000Y-113920000D01*
X148970000Y-113920000D02*
X143630000Y-113920000D01*
%TO.C,R10*%
X142830000Y-79220000D02*
X143160000Y-79220000D01*
X142830000Y-85760000D02*
X142830000Y-79220000D01*
X143160000Y-85760000D02*
X142830000Y-85760000D01*
X145240000Y-85760000D02*
X145570000Y-85760000D01*
X145570000Y-79220000D02*
X145240000Y-79220000D01*
X145570000Y-85760000D02*
X145570000Y-79220000D01*
%TO.C,R12*%
X136430000Y-79230000D02*
X136760000Y-79230000D01*
X136430000Y-85770000D02*
X136430000Y-79230000D01*
X136760000Y-85770000D02*
X136430000Y-85770000D01*
X138840000Y-85770000D02*
X139170000Y-85770000D01*
X139170000Y-79230000D02*
X138840000Y-79230000D01*
X139170000Y-85770000D02*
X139170000Y-79230000D01*
%TO.C,J1*%
X151770000Y-84590000D02*
X151770000Y-102430000D01*
X151770000Y-84590000D02*
X154430000Y-84590000D01*
X151770000Y-102430000D02*
X154430000Y-102430000D01*
X153100000Y-81990000D02*
X154430000Y-81990000D01*
X154430000Y-81990000D02*
X154430000Y-83320000D01*
X154430000Y-84590000D02*
X154430000Y-102430000D01*
%TO.C,R2*%
X128230000Y-123030000D02*
X134770000Y-123030000D01*
X128230000Y-123360000D02*
X128230000Y-123030000D01*
X128230000Y-125440000D02*
X128230000Y-125770000D01*
X128230000Y-125770000D02*
X134770000Y-125770000D01*
X134770000Y-123030000D02*
X134770000Y-123360000D01*
X134770000Y-125770000D02*
X134770000Y-125440000D01*
%TD*%
%LPC*%
D12*
%TO.C,R3*%
X146610000Y-100033333D03*
X138990000Y-100033333D03*
%TD*%
%TO.C,R4*%
X128400000Y-127280000D03*
X128400000Y-134900000D03*
%TD*%
%TO.C,R9*%
X147400000Y-86300000D03*
X147400000Y-78680000D03*
%TD*%
D13*
%TO.C,J2*%
X127300000Y-57460000D03*
D14*
X127300000Y-60000000D03*
X127300000Y-62540000D03*
X127300000Y-65080000D03*
X127300000Y-67620000D03*
X127300000Y-70160000D03*
X127300000Y-72700000D03*
X127300000Y-75240000D03*
%TD*%
D12*
%TO.C,R1*%
X146610000Y-96300000D03*
X138990000Y-96300000D03*
%TD*%
%TO.C,R8*%
X134500000Y-127280000D03*
X134500000Y-134900000D03*
%TD*%
D15*
%TO.C,C2*%
X139700000Y-113272600D03*
D16*
X139700000Y-111272600D03*
%TD*%
D12*
%TO.C,R11*%
X141000000Y-86310000D03*
X141000000Y-78690000D03*
%TD*%
%TO.C,R5*%
X146610000Y-103766667D03*
X138990000Y-103766667D03*
%TD*%
%TO.C,R7*%
X146610000Y-107500000D03*
X138990000Y-107500000D03*
%TD*%
%TO.C,C3*%
X143800000Y-116100000D03*
X148800000Y-116100000D03*
%TD*%
%TO.C,R6*%
X131500000Y-127290000D03*
X131500000Y-134910000D03*
%TD*%
D17*
%TO.C,U1*%
X139700000Y-120260000D03*
D12*
X139700000Y-122800000D03*
X139700000Y-125340000D03*
X139700000Y-127880000D03*
X139700000Y-130420000D03*
X139700000Y-132960000D03*
X139700000Y-135500000D03*
X147320000Y-135500000D03*
X147320000Y-132960000D03*
X147320000Y-130420000D03*
X147320000Y-127880000D03*
X147320000Y-125340000D03*
X147320000Y-122800000D03*
X147320000Y-120260000D03*
%TD*%
%TO.C,C1*%
X143800000Y-112200000D03*
X148800000Y-112200000D03*
%TD*%
%TO.C,R10*%
X144200000Y-86300000D03*
X144200000Y-78680000D03*
%TD*%
%TO.C,R12*%
X137800000Y-86310000D03*
X137800000Y-78690000D03*
%TD*%
D13*
%TO.C,J1*%
X153100000Y-83320000D03*
D14*
X153100000Y-85860000D03*
X153100000Y-88400000D03*
X153100000Y-90940000D03*
X153100000Y-93480000D03*
X153100000Y-96020000D03*
X153100000Y-98560000D03*
X153100000Y-101100000D03*
%TD*%
D12*
%TO.C,R2*%
X127690000Y-124400000D03*
X135310000Y-124400000D03*
%TD*%
D13*
%TO.C,J4*%
X152700000Y-108160000D03*
D14*
X152700000Y-110700000D03*
X152700000Y-113240000D03*
X152700000Y-115780000D03*
X152700000Y-118320000D03*
X152700000Y-120860000D03*
X152700000Y-123400000D03*
X152700000Y-125940000D03*
X152700000Y-128480000D03*
X152700000Y-131020000D03*
%TD*%
D18*
%TO.C,U2*%
X128900000Y-112800000D03*
D19*
X131440000Y-112800000D03*
X133980000Y-112800000D03*
%TD*%
D13*
%TO.C,J6*%
X150235000Y-56559750D03*
D14*
X150235000Y-59099750D03*
X150235000Y-61639750D03*
X150235000Y-64179750D03*
X150235000Y-66719750D03*
X150235000Y-69259750D03*
X150235000Y-71799750D03*
%TD*%
D20*
%TO.C,J5*%
X129560000Y-102200000D03*
D14*
X132100000Y-102200000D03*
X129560000Y-99660000D03*
X132100000Y-99660000D03*
X129560000Y-97120000D03*
X132100000Y-97120000D03*
X129560000Y-94580000D03*
X132100000Y-94580000D03*
X129560000Y-92040000D03*
X132100000Y-92040000D03*
X129560000Y-89500000D03*
X132100000Y-89500000D03*
X129560000Y-86960000D03*
X132100000Y-86960000D03*
X129560000Y-84420000D03*
X132100000Y-84420000D03*
%TD*%
D21*
%TO.C,J3*%
X134700000Y-118600000D03*
X132160000Y-118600000D03*
X129620000Y-118600000D03*
%TD*%
D13*
%TO.C,J7*%
X135327175Y-71699750D03*
D14*
X135327175Y-69159750D03*
X135327175Y-66619750D03*
X135327175Y-64079750D03*
X135327175Y-61539750D03*
X135327175Y-58999750D03*
X135327175Y-56459750D03*
%TD*%
D22*
%TO.C,RV2*%
X136850000Y-146680000D03*
D23*
X136850000Y-144140000D03*
X136850000Y-141600000D03*
%TD*%
D22*
%TO.C,RV1*%
X130075000Y-146680000D03*
D23*
X130075000Y-144140000D03*
X130075000Y-141600000D03*
%TD*%
D22*
%TO.C,RV3*%
X143625000Y-146680000D03*
D23*
X143625000Y-144140000D03*
X143625000Y-141600000D03*
%TD*%
D22*
%TO.C,RV4*%
X150400000Y-146680000D03*
D23*
X150400000Y-144140000D03*
X150400000Y-141600000D03*
%TD*%
%LPD*%
M02*
