%TF.GenerationSoftware,KiCad,Pcbnew,9.0.6*%
%TF.CreationDate,2026-04-24T13:37:01-03:00*%
%TF.ProjectId,MainPCB_V2.1,4d61696e-5043-4425-9f56-322e312e6b69,rev?*%
%TF.SameCoordinates,Original*%
%TF.FileFunction,Legend,Bot*%
%TF.FilePolarity,Positive*%
%FSLAX46Y46*%
G04 Gerber Fmt 4.6, Leading zero omitted, Abs format (unit mm)*
G04 Created by KiCad (PCBNEW 9.0.6) date 2026-04-24 13:37:01*
%MOMM*%
%LPD*%
G01*
G04 APERTURE LIST*
G04 Aperture macros list*
%AMRoundRect*
0 Rectangle with rounded corners*
0 $1 Rounding radius*
0 $2 $3 $4 $5 $6 $7 $8 $9 X,Y pos of 4 corners*
0 Add a 4 corners polygon primitive as box body*
4,1,4,$2,$3,$4,$5,$6,$7,$8,$9,$2,$3,0*
0 Add four circle primitives for the rounded corners*
1,1,$1+$1,$2,$3*
1,1,$1+$1,$4,$5*
1,1,$1+$1,$6,$7*
1,1,$1+$1,$8,$9*
0 Add four rect primitives between the rounded corners*
20,1,$1+$1,$2,$3,$4,$5,0*
20,1,$1+$1,$4,$5,$6,$7,0*
20,1,$1+$1,$6,$7,$8,$9,0*
20,1,$1+$1,$8,$9,$2,$3,0*%
G04 Aperture macros list end*
%ADD10C,0.000000*%
%ADD11C,0.100000*%
%ADD12C,0.152000*%
%ADD13C,0.250000*%
%ADD14C,0.150000*%
%ADD15C,0.120000*%
%ADD16C,0.700000*%
%ADD17C,1.600000*%
%ADD18R,1.700000X1.700000*%
%ADD19C,1.700000*%
%ADD20RoundRect,0.250000X0.350000X-0.350000X0.350000X0.350000X-0.350000X0.350000X-0.350000X-0.350000X0*%
%ADD21C,1.200000*%
%ADD22RoundRect,0.250000X-0.550000X-0.550000X0.550000X-0.550000X0.550000X0.550000X-0.550000X0.550000X0*%
%ADD23R,1.800000X1.800000*%
%ADD24O,1.800000X1.800000*%
%ADD25RoundRect,0.250000X-0.600000X-0.600000X0.600000X-0.600000X0.600000X0.600000X-0.600000X0.600000X0*%
%ADD26O,1.727200X2.032000*%
%ADD27RoundRect,0.412500X0.412500X-0.412500X0.412500X0.412500X-0.412500X0.412500X-0.412500X-0.412500X0*%
%ADD28C,1.650000*%
G04 APERTURE END LIST*
D10*
G36*
X142500586Y-80577748D02*
G01*
X142504898Y-80653609D01*
X142507968Y-80729408D01*
X142509783Y-80805247D01*
X142510326Y-80881225D01*
X142510311Y-80903412D01*
X142507850Y-81146556D01*
X142504711Y-81268035D01*
X142499954Y-81389424D01*
X142493321Y-81510703D01*
X142484553Y-81631852D01*
X142473391Y-81752851D01*
X142459576Y-81873677D01*
X142469199Y-81873766D01*
X142478636Y-81873642D01*
X142487911Y-81873312D01*
X142497045Y-81872782D01*
X142506063Y-81872059D01*
X142514987Y-81871150D01*
X142532646Y-81868795D01*
X142550206Y-81865769D01*
X142567852Y-81862123D01*
X142585768Y-81857907D01*
X142604138Y-81853172D01*
X142629129Y-81846590D01*
X142658495Y-81838207D01*
X142687572Y-81829207D01*
X142716410Y-81819661D01*
X142745060Y-81809641D01*
X142773570Y-81799219D01*
X142801991Y-81788466D01*
X142858767Y-81766257D01*
X142876329Y-81759604D01*
X142893975Y-81753198D01*
X142929468Y-81740977D01*
X142965146Y-81729291D01*
X143000914Y-81717838D01*
X143035036Y-81706528D01*
X143056224Y-81699688D01*
X143077255Y-81693207D01*
X143098232Y-81687206D01*
X143119261Y-81681806D01*
X143140444Y-81677126D01*
X143151126Y-81675095D01*
X143161886Y-81673289D01*
X143172737Y-81671724D01*
X143183692Y-81670415D01*
X143194764Y-81669377D01*
X143205966Y-81668625D01*
X143201948Y-81678845D01*
X143197809Y-81688945D01*
X143193538Y-81698943D01*
X143189127Y-81708856D01*
X143184566Y-81718700D01*
X143179846Y-81728492D01*
X143174957Y-81738249D01*
X143169889Y-81747987D01*
X143158131Y-81770288D01*
X143145475Y-81794220D01*
X143104761Y-81872188D01*
X143078473Y-81922393D01*
X143057611Y-81963040D01*
X143037458Y-82003848D01*
X143017969Y-82044848D01*
X142999099Y-82086071D01*
X142980805Y-82127549D01*
X142963041Y-82169312D01*
X142945762Y-82211391D01*
X142928925Y-82253817D01*
X142912902Y-82294257D01*
X142896353Y-82334372D01*
X142887786Y-82354295D01*
X142878972Y-82374124D01*
X142869874Y-82393853D01*
X142860453Y-82413477D01*
X142846200Y-82443455D01*
X142832549Y-82473673D01*
X142819398Y-82504094D01*
X142806648Y-82534681D01*
X142781952Y-82596209D01*
X142757662Y-82657966D01*
X142729018Y-82729059D01*
X142700000Y-82800000D01*
X142648755Y-82927092D01*
X142623666Y-82990843D01*
X142599011Y-83054777D01*
X142592784Y-83071033D01*
X142566740Y-83140453D01*
X142541461Y-83210136D01*
X142516743Y-83280023D01*
X142492384Y-83350052D01*
X142451374Y-83341850D01*
X142451062Y-83228451D01*
X142452070Y-83115094D01*
X142454051Y-83001746D01*
X142456658Y-82888377D01*
X142457966Y-82828086D01*
X142458921Y-82767813D01*
X142459456Y-82707535D01*
X142459506Y-82647231D01*
X142459698Y-82614243D01*
X142460441Y-82581326D01*
X142461760Y-82548426D01*
X142463677Y-82515490D01*
X142466001Y-82468466D01*
X142467564Y-82421462D01*
X142468466Y-82374438D01*
X142468803Y-82327355D01*
X142468915Y-82302228D01*
X142468867Y-82279072D01*
X142468839Y-82258416D01*
X142469037Y-82253210D01*
X142469078Y-82251072D01*
X142469064Y-82249198D01*
X142468979Y-82247553D01*
X142468812Y-82246102D01*
X142468693Y-82245438D01*
X142468548Y-82244809D01*
X142468375Y-82244212D01*
X142468173Y-82243641D01*
X142467941Y-82243093D01*
X142467675Y-82242562D01*
X142467375Y-82242045D01*
X142467039Y-82241537D01*
X142466252Y-82240531D01*
X142465300Y-82239510D01*
X142464171Y-82238438D01*
X142462849Y-82237281D01*
X142459576Y-82234569D01*
X142449066Y-82235280D01*
X142438760Y-82236230D01*
X142428633Y-82237411D01*
X142418665Y-82238820D01*
X142408832Y-82240450D01*
X142399112Y-82242297D01*
X142389484Y-82244355D01*
X142379923Y-82246618D01*
X142360919Y-82251740D01*
X142341920Y-82257619D01*
X142322748Y-82264213D01*
X142303224Y-82271478D01*
X142279871Y-82280183D01*
X142229578Y-82299152D01*
X142179356Y-82318308D01*
X142127186Y-82338185D01*
X142102552Y-82347607D01*
X142077953Y-82357120D01*
X142047208Y-82368501D01*
X142016640Y-82378896D01*
X142001373Y-82383647D01*
X141986090Y-82388060D01*
X141970771Y-82392104D01*
X141955397Y-82395747D01*
X141939948Y-82398960D01*
X141924403Y-82401712D01*
X141908743Y-82403971D01*
X141892948Y-82405708D01*
X141876997Y-82406891D01*
X141860872Y-82407490D01*
X141844551Y-82407474D01*
X141828016Y-82406813D01*
X141836593Y-82364639D01*
X141845904Y-82322808D01*
X141856079Y-82281320D01*
X141867251Y-82240175D01*
X141879549Y-82199372D01*
X141893106Y-82158912D01*
X141908052Y-82118794D01*
X141924518Y-82079018D01*
X141929341Y-82066772D01*
X141933903Y-82054465D01*
X141938242Y-82042101D01*
X141942398Y-82029682D01*
X141950320Y-82004701D01*
X141957985Y-81979552D01*
X141986690Y-81888819D01*
X142001743Y-81843649D01*
X142017298Y-81798643D01*
X142033382Y-81753826D01*
X142050020Y-81709223D01*
X142067240Y-81664859D01*
X142085068Y-81620759D01*
X142099318Y-81584638D01*
X142113009Y-81548301D01*
X142139695Y-81475364D01*
X142158288Y-81425338D01*
X142177421Y-81375645D01*
X142197385Y-81326286D01*
X142207768Y-81301733D01*
X142218468Y-81277266D01*
X142222634Y-81267306D01*
X142226681Y-81257329D01*
X142234471Y-81237306D01*
X142241935Y-81217158D01*
X142249173Y-81196845D01*
X142270114Y-81138181D01*
X142291497Y-81079677D01*
X142339614Y-80948720D01*
X142363099Y-80883043D01*
X142385917Y-80817115D01*
X142392031Y-80799122D01*
X142406581Y-80756008D01*
X142420989Y-80712846D01*
X142427384Y-80693970D01*
X142433917Y-80675387D01*
X142440733Y-80657088D01*
X142447978Y-80639065D01*
X142455800Y-80621308D01*
X142459972Y-80612527D01*
X142464343Y-80603809D01*
X142468932Y-80595153D01*
X142473755Y-80586558D01*
X142478833Y-80578023D01*
X142484182Y-80569546D01*
X142500586Y-80577748D01*
G37*
G36*
X142500586Y-80577748D02*
G01*
X142505032Y-80656692D01*
X142507944Y-80735556D01*
X142509484Y-80814462D01*
X142509814Y-80893529D01*
X142509792Y-80916354D01*
X142509061Y-81026546D01*
X142507200Y-81136691D01*
X142504334Y-81246816D01*
X142500586Y-81356946D01*
X142492384Y-81356946D01*
X142492384Y-80602355D01*
X142467778Y-80610557D01*
X142484182Y-80569546D01*
X142500586Y-80577748D01*
G37*
D11*
X133725000Y-52680000D02*
X151525000Y-52680000D01*
X151525000Y-73580000D01*
X133725000Y-73580000D01*
X133725000Y-52680000D01*
D10*
G36*
X143253686Y-80289565D02*
G01*
X143252088Y-80296467D01*
X143250381Y-80303199D01*
X143248565Y-80309782D01*
X143246639Y-80316235D01*
X143244600Y-80322579D01*
X143240181Y-80335021D01*
X143235298Y-80347271D01*
X143229940Y-80359490D01*
X143224096Y-80371841D01*
X143217756Y-80384487D01*
X143208861Y-80402050D01*
X143192647Y-80433075D01*
X143175966Y-80463796D01*
X143158869Y-80494290D01*
X143141408Y-80524633D01*
X143124982Y-80553528D01*
X143108973Y-80582626D01*
X143093282Y-80611897D01*
X143077808Y-80641315D01*
X143026513Y-80738833D01*
X142974769Y-80836114D01*
X142960604Y-80862795D01*
X142931976Y-80916058D01*
X142909946Y-80956281D01*
X142893003Y-80985541D01*
X142885967Y-80996709D01*
X142879637Y-81005916D01*
X142873824Y-81013422D01*
X142868339Y-81019486D01*
X142862993Y-81024368D01*
X142857597Y-81028328D01*
X142851964Y-81031625D01*
X142845903Y-81034520D01*
X142831746Y-81040141D01*
X142826373Y-81039485D01*
X142821291Y-81038740D01*
X142816469Y-81037894D01*
X142811875Y-81036935D01*
X142807477Y-81035852D01*
X142803245Y-81034633D01*
X142799146Y-81033268D01*
X142795149Y-81031743D01*
X142791222Y-81030049D01*
X142787333Y-81028172D01*
X142783453Y-81026103D01*
X142779547Y-81023829D01*
X142775586Y-81021339D01*
X142771538Y-81018622D01*
X142767371Y-81015666D01*
X142763053Y-81012459D01*
X142763949Y-81003633D01*
X142765221Y-80995129D01*
X142766848Y-80986914D01*
X142768813Y-80978956D01*
X142771096Y-80971222D01*
X142773679Y-80963678D01*
X142776541Y-80956291D01*
X142779664Y-80949030D01*
X142783029Y-80941860D01*
X142786616Y-80934749D01*
X142794384Y-80920572D01*
X142802814Y-80906236D01*
X142811753Y-80891478D01*
X142836616Y-80849442D01*
X142849303Y-80828072D01*
X142862706Y-80805095D01*
X142875929Y-80782021D01*
X142889008Y-80758864D01*
X142901976Y-80735638D01*
X142911950Y-80717696D01*
X142936075Y-80673304D01*
X142959744Y-80628674D01*
X143006342Y-80539017D01*
X143023891Y-80505558D01*
X143041763Y-80472319D01*
X143060047Y-80439306D01*
X143078833Y-80406530D01*
X143087507Y-80391360D01*
X143095869Y-80376163D01*
X143103933Y-80360905D01*
X143111716Y-80345550D01*
X143119234Y-80330064D01*
X143126501Y-80314413D01*
X143133535Y-80298561D01*
X143140349Y-80282473D01*
X143255178Y-80282473D01*
X143253686Y-80289565D01*
G37*
G36*
X141418203Y-80274074D02*
G01*
X141426396Y-80274510D01*
X141434575Y-80275293D01*
X141442739Y-80276452D01*
X141450886Y-80278016D01*
X141459015Y-80280013D01*
X141467124Y-80282473D01*
X141473512Y-80287849D01*
X141479529Y-80293572D01*
X141485201Y-80299614D01*
X141490554Y-80305944D01*
X141495614Y-80312531D01*
X141500407Y-80319346D01*
X141504958Y-80326360D01*
X141509295Y-80333541D01*
X141513443Y-80340859D01*
X141517427Y-80348286D01*
X141525011Y-80363342D01*
X141539369Y-80393426D01*
X141546959Y-80408884D01*
X141554735Y-80424225D01*
X141562663Y-80439490D01*
X141570707Y-80454717D01*
X141593548Y-80498137D01*
X141616107Y-80541704D01*
X141633081Y-80573639D01*
X141650553Y-80605263D01*
X141668408Y-80636674D01*
X141686530Y-80667971D01*
X141716073Y-80719948D01*
X141744772Y-80772337D01*
X141772800Y-80825088D01*
X141800334Y-80878150D01*
X141808272Y-80893594D01*
X141839234Y-80953955D01*
X141862843Y-81006222D01*
X141881785Y-81047194D01*
X141898041Y-81080345D01*
X141905782Y-81095072D01*
X141913596Y-81109146D01*
X141921730Y-81123000D01*
X141930432Y-81137071D01*
X141950533Y-81167592D01*
X141975882Y-81204184D01*
X142008461Y-81250319D01*
X142007934Y-81260155D01*
X142007574Y-81264734D01*
X142007121Y-81269118D01*
X142006555Y-81273333D01*
X142005856Y-81277402D01*
X142005002Y-81281350D01*
X142003972Y-81285201D01*
X142002747Y-81288979D01*
X142001304Y-81292709D01*
X141999624Y-81296414D01*
X141997686Y-81300119D01*
X141995468Y-81303848D01*
X141992950Y-81307626D01*
X141990111Y-81311476D01*
X141986931Y-81315423D01*
X141981621Y-81317658D01*
X141976546Y-81319507D01*
X141971670Y-81320990D01*
X141966957Y-81322127D01*
X141962372Y-81322938D01*
X141957877Y-81323442D01*
X141953438Y-81323659D01*
X141949019Y-81323609D01*
X141944582Y-81323310D01*
X141940093Y-81322784D01*
X141935515Y-81322049D01*
X141930813Y-81321126D01*
X141925950Y-81320033D01*
X141920890Y-81318790D01*
X141910037Y-81315936D01*
X141904279Y-81309228D01*
X141898976Y-81302743D01*
X141894046Y-81296369D01*
X141889406Y-81289988D01*
X141884974Y-81283487D01*
X141880667Y-81276750D01*
X141876404Y-81269663D01*
X141872102Y-81262110D01*
X141861793Y-81244630D01*
X141853203Y-81229727D01*
X141844729Y-81214766D01*
X141828016Y-81184703D01*
X141815769Y-81162507D01*
X141782434Y-81101267D01*
X141749423Y-81039852D01*
X141728528Y-81001286D01*
X141707361Y-80962878D01*
X141664487Y-80886352D01*
X141631431Y-80827158D01*
X141598773Y-80767762D01*
X141534361Y-80648459D01*
X141506526Y-80597151D01*
X141478275Y-80546092D01*
X141420867Y-80444459D01*
X141398515Y-80404504D01*
X141376827Y-80364282D01*
X141366268Y-80344027D01*
X141355916Y-80323652D01*
X141345786Y-80303140D01*
X141335891Y-80282473D01*
X141352370Y-80279629D01*
X141368854Y-80277137D01*
X141385329Y-80275227D01*
X141393560Y-80274562D01*
X141401783Y-80274129D01*
X141409998Y-80273957D01*
X141418203Y-80274074D01*
G37*
G36*
X140491076Y-81225713D02*
G01*
X140515682Y-81233915D01*
X140507480Y-81274925D01*
X140500790Y-81266903D01*
X140494568Y-81259238D01*
X140491629Y-81255476D01*
X140488803Y-81251726D01*
X140486089Y-81247964D01*
X140483485Y-81244163D01*
X140480991Y-81240298D01*
X140478604Y-81236344D01*
X140476323Y-81232275D01*
X140474148Y-81228065D01*
X140472076Y-81223689D01*
X140470107Y-81219121D01*
X140468238Y-81214336D01*
X140466470Y-81209309D01*
X140482874Y-81209309D01*
X140491076Y-81225713D01*
G37*
G36*
X143493551Y-80281961D02*
G01*
X143521009Y-80282185D01*
X143542251Y-80282473D01*
X143544128Y-80286816D01*
X143544897Y-80288649D01*
X143545569Y-80290321D01*
X143546156Y-80291879D01*
X143546671Y-80293372D01*
X143547125Y-80294848D01*
X143547529Y-80296354D01*
X143547898Y-80297940D01*
X143548241Y-80299652D01*
X143548571Y-80301539D01*
X143548901Y-80303649D01*
X143549607Y-80308731D01*
X143550453Y-80315282D01*
X143547613Y-80322324D01*
X143544716Y-80329201D01*
X143541746Y-80335950D01*
X143538691Y-80342609D01*
X143535536Y-80349216D01*
X143532268Y-80355809D01*
X143528872Y-80362427D01*
X143525334Y-80369108D01*
X143516599Y-80385915D01*
X143506571Y-80405116D01*
X143496487Y-80424288D01*
X143477017Y-80461842D01*
X143457763Y-80499508D01*
X143423982Y-80565043D01*
X143389517Y-80630097D01*
X143371873Y-80662390D01*
X143353870Y-80694498D01*
X143335447Y-80726400D01*
X143316542Y-80758074D01*
X143305986Y-80776182D01*
X143295860Y-80794458D01*
X143286104Y-80812889D01*
X143276660Y-80831464D01*
X143267467Y-80850169D01*
X143258468Y-80868993D01*
X143240810Y-80906945D01*
X143234069Y-80921295D01*
X143227201Y-80935496D01*
X143220189Y-80949565D01*
X143213016Y-80963523D01*
X143205666Y-80977388D01*
X143198123Y-80991178D01*
X143190368Y-81004913D01*
X143182385Y-81018610D01*
X143169568Y-81040872D01*
X143157280Y-81063363D01*
X143145449Y-81086063D01*
X143134005Y-81108947D01*
X143122877Y-81131994D01*
X143111993Y-81155181D01*
X143090676Y-81201884D01*
X143083324Y-81217481D01*
X143075957Y-81232203D01*
X143072189Y-81239267D01*
X143068323Y-81246149D01*
X143064327Y-81252862D01*
X143060170Y-81259419D01*
X143055820Y-81265832D01*
X143051245Y-81272113D01*
X143046414Y-81278275D01*
X143041296Y-81284330D01*
X143035859Y-81290291D01*
X143030071Y-81296171D01*
X143023901Y-81301981D01*
X143017318Y-81307734D01*
X143009116Y-81315936D01*
X143003253Y-81316567D01*
X142997794Y-81317066D01*
X142992689Y-81317413D01*
X142987889Y-81317590D01*
X142983346Y-81317578D01*
X142979010Y-81317358D01*
X142974833Y-81316910D01*
X142970766Y-81316217D01*
X142966760Y-81315258D01*
X142962767Y-81314015D01*
X142958736Y-81312469D01*
X142954620Y-81310602D01*
X142950369Y-81308393D01*
X142945935Y-81305824D01*
X142941269Y-81302877D01*
X142936322Y-81299532D01*
X142918893Y-81283127D01*
X142919941Y-81276213D01*
X142921221Y-81269461D01*
X142922723Y-81262857D01*
X142924434Y-81256386D01*
X142926343Y-81250031D01*
X142928438Y-81243779D01*
X142930707Y-81237612D01*
X142933138Y-81231517D01*
X142935719Y-81225476D01*
X142938440Y-81219476D01*
X142944250Y-81207534D01*
X142950475Y-81195568D01*
X142957019Y-81183453D01*
X142966174Y-81166353D01*
X142985650Y-81130158D01*
X143011157Y-81082700D01*
X143036541Y-81035175D01*
X143046671Y-81016214D01*
X143066213Y-80979117D01*
X143085410Y-80941858D01*
X143104300Y-80904441D01*
X143122920Y-80866872D01*
X143153636Y-80806015D01*
X143185278Y-80745694D01*
X143217614Y-80685739D01*
X143250412Y-80625976D01*
X143277767Y-80575761D01*
X143304931Y-80525442D01*
X143381067Y-80385125D01*
X143405455Y-80341952D01*
X143423240Y-80312960D01*
X143430248Y-80302889D01*
X143436314Y-80295293D01*
X143441675Y-80289813D01*
X143446565Y-80286094D01*
X143451223Y-80283777D01*
X143455883Y-80282506D01*
X143466157Y-80281672D01*
X143493551Y-80281961D01*
G37*
G36*
X143189561Y-81709636D02*
G01*
X143181359Y-81685030D01*
X143132147Y-81685030D01*
X143132147Y-81676828D01*
X143141644Y-81674825D01*
X143150818Y-81673121D01*
X143159792Y-81671707D01*
X143168689Y-81670571D01*
X143177632Y-81669705D01*
X143186744Y-81669099D01*
X143196148Y-81668742D01*
X143205966Y-81668625D01*
X143189561Y-81709636D01*
G37*
G36*
X142467778Y-83325446D02*
G01*
X142492384Y-83325446D01*
X142492384Y-83350052D01*
X142451374Y-83341850D01*
X142451235Y-83202376D01*
X142452973Y-83062949D01*
X142459576Y-82784109D01*
X142467778Y-82784109D01*
X142467778Y-83325446D01*
G37*
D11*
X138086000Y-51156000D02*
X147085000Y-51156000D01*
X147085000Y-58636000D01*
X138086000Y-58636000D01*
X138086000Y-51156000D01*
D10*
G36*
X141801359Y-80324509D02*
G01*
X141861712Y-80435941D01*
X141922430Y-80547175D01*
X141959890Y-80615875D01*
X141991001Y-80672733D01*
X142022302Y-80729487D01*
X142032599Y-80748104D01*
X142047023Y-80773887D01*
X142061594Y-80799578D01*
X142076323Y-80825179D01*
X142091219Y-80850692D01*
X142103805Y-80872126D01*
X142115957Y-80892669D01*
X142128183Y-80913169D01*
X142139246Y-80931944D01*
X142149118Y-80948490D01*
X142151423Y-80953409D01*
X142152355Y-80955494D01*
X142153154Y-80957406D01*
X142153831Y-80959202D01*
X142154395Y-80960941D01*
X142154857Y-80962681D01*
X142155226Y-80964478D01*
X142155514Y-80966390D01*
X142155731Y-80968476D01*
X142155886Y-80970792D01*
X142155990Y-80973397D01*
X142156053Y-80976347D01*
X142156085Y-80979702D01*
X142156099Y-80987853D01*
X142139695Y-80987853D01*
X142133543Y-81002719D01*
X142131360Y-81006400D01*
X142129154Y-81009846D01*
X142126915Y-81013080D01*
X142124633Y-81016121D01*
X142122299Y-81018991D01*
X142119904Y-81021711D01*
X142117438Y-81024302D01*
X142114891Y-81026785D01*
X142112254Y-81029180D01*
X142109518Y-81031509D01*
X142106673Y-81033793D01*
X142103710Y-81036053D01*
X142100618Y-81038309D01*
X142097390Y-81040583D01*
X142090482Y-81045267D01*
X142085117Y-81043025D01*
X142080154Y-81040728D01*
X142075558Y-81038358D01*
X142071296Y-81035896D01*
X142067333Y-81033325D01*
X142063635Y-81030625D01*
X142060167Y-81027779D01*
X142056896Y-81024768D01*
X142053786Y-81021575D01*
X142050804Y-81018180D01*
X142047916Y-81014565D01*
X142045087Y-81010713D01*
X142042283Y-81006605D01*
X142039469Y-81002223D01*
X142036612Y-80997548D01*
X142033677Y-80992562D01*
X142020218Y-80969524D01*
X142005898Y-80944279D01*
X141990730Y-80917929D01*
X141958246Y-80859623D01*
X141926704Y-80800844D01*
X141895837Y-80741704D01*
X141865380Y-80682315D01*
X141831401Y-80617310D01*
X141796422Y-80552902D01*
X141760674Y-80488913D01*
X141724388Y-80425165D01*
X141712584Y-80404318D01*
X141700891Y-80383412D01*
X141689304Y-80362448D01*
X141677815Y-80341426D01*
X141664583Y-80317172D01*
X141661674Y-80311101D01*
X141660498Y-80308582D01*
X141659489Y-80306339D01*
X141658635Y-80304322D01*
X141657923Y-80302479D01*
X141657340Y-80300760D01*
X141656873Y-80299114D01*
X141656510Y-80297490D01*
X141656237Y-80295837D01*
X141656041Y-80294105D01*
X141655910Y-80292243D01*
X141655830Y-80290199D01*
X141655789Y-80287924D01*
X141655772Y-80282473D01*
X141778803Y-80282473D01*
X141801359Y-80324509D01*
G37*
G36*
X142500586Y-80577748D02*
G01*
X142508789Y-80741790D01*
X142492384Y-80733588D01*
X142492384Y-80602355D01*
X142467778Y-80610557D01*
X142484182Y-80569546D01*
X142500586Y-80577748D01*
G37*
G36*
X141103691Y-80348322D02*
G01*
X141111018Y-80348521D01*
X141117409Y-80348803D01*
X141122973Y-80349200D01*
X141127821Y-80349745D01*
X141132064Y-80350472D01*
X141135812Y-80351414D01*
X141139175Y-80352604D01*
X141142265Y-80354075D01*
X141145191Y-80355859D01*
X141148064Y-80357991D01*
X141150995Y-80360504D01*
X141154095Y-80363430D01*
X141161241Y-80370655D01*
X141165120Y-80376914D01*
X141168818Y-80383169D01*
X141172353Y-80389444D01*
X141175744Y-80395761D01*
X141179010Y-80402143D01*
X141182171Y-80408613D01*
X141185246Y-80415194D01*
X141188253Y-80421909D01*
X141200150Y-80443347D01*
X141209688Y-80461958D01*
X141220589Y-80483058D01*
X141231827Y-80504955D01*
X141250619Y-80541037D01*
X141269656Y-80576946D01*
X141289129Y-80612616D01*
X141299091Y-80630340D01*
X141309234Y-80647979D01*
X141335884Y-80694837D01*
X141361852Y-80742062D01*
X141412756Y-80837091D01*
X141460452Y-80925819D01*
X141484639Y-80969994D01*
X141509160Y-81013997D01*
X141537011Y-81064501D01*
X141564164Y-81115361D01*
X141617335Y-81217707D01*
X141638810Y-81258549D01*
X141660768Y-81299036D01*
X141683235Y-81339243D01*
X141706234Y-81379246D01*
X141719489Y-81403286D01*
X141732351Y-81427503D01*
X141744913Y-81451876D01*
X141757273Y-81476389D01*
X141765581Y-81492987D01*
X141771008Y-81504054D01*
X141776375Y-81515150D01*
X141787005Y-81537392D01*
X141797418Y-81558858D01*
X141798707Y-81563337D01*
X141799777Y-81567639D01*
X141800639Y-81571792D01*
X141801303Y-81575821D01*
X141801780Y-81579752D01*
X141802081Y-81583612D01*
X141802216Y-81587426D01*
X141802197Y-81591222D01*
X141802034Y-81595024D01*
X141801738Y-81598859D01*
X141801320Y-81602753D01*
X141800790Y-81606733D01*
X141799438Y-81615053D01*
X141797770Y-81624027D01*
X141793573Y-81647127D01*
X141786219Y-81679268D01*
X141778485Y-81711309D01*
X141762399Y-81775252D01*
X141754523Y-81806477D01*
X141733409Y-81889509D01*
X141724703Y-81923815D01*
X141711873Y-81974153D01*
X141704278Y-82004014D01*
X141701937Y-82011907D01*
X141699586Y-82019536D01*
X141697135Y-82026947D01*
X141694500Y-82034185D01*
X141693086Y-82037753D01*
X141691594Y-82041296D01*
X141690011Y-82044818D01*
X141688329Y-82048326D01*
X141686535Y-82051825D01*
X141684619Y-82055320D01*
X141682571Y-82058819D01*
X141680378Y-82062325D01*
X141673233Y-82064360D01*
X141667626Y-82065914D01*
X141663077Y-82067083D01*
X141659104Y-82067964D01*
X141655227Y-82068653D01*
X141650966Y-82069246D01*
X141645840Y-82069839D01*
X141639368Y-82070527D01*
X141626407Y-82050050D01*
X141613797Y-82029416D01*
X141601495Y-82008636D01*
X141589453Y-81987720D01*
X141565973Y-81945520D01*
X141542993Y-81902897D01*
X141527678Y-81874350D01*
X141494396Y-81812034D01*
X141461357Y-81749589D01*
X141451545Y-81730940D01*
X141442979Y-81714572D01*
X141434452Y-81698184D01*
X141428698Y-81687323D01*
X141422852Y-81676537D01*
X141410889Y-81655155D01*
X141398579Y-81633969D01*
X141385936Y-81612909D01*
X141376355Y-81596799D01*
X141367020Y-81580584D01*
X141357899Y-81564270D01*
X141348959Y-81547866D01*
X141331493Y-81514822D01*
X141314360Y-81481515D01*
X141289725Y-81434356D01*
X141264558Y-81387555D01*
X141238788Y-81341085D01*
X141212347Y-81294918D01*
X141198060Y-81270003D01*
X141184085Y-81244968D01*
X141179290Y-81236163D01*
X141319190Y-81236163D01*
X141319246Y-81241797D01*
X141319562Y-81247445D01*
X141320154Y-81253115D01*
X141321038Y-81258814D01*
X141322230Y-81264552D01*
X141323748Y-81270336D01*
X141325606Y-81276175D01*
X141327942Y-81279515D01*
X141330223Y-81282567D01*
X141332471Y-81285352D01*
X141334709Y-81287894D01*
X141336958Y-81290215D01*
X141339241Y-81292339D01*
X141341578Y-81294288D01*
X141343992Y-81296086D01*
X141346505Y-81297754D01*
X141349138Y-81299316D01*
X141351914Y-81300794D01*
X141354855Y-81302212D01*
X141357982Y-81303592D01*
X141361317Y-81304957D01*
X141364882Y-81306330D01*
X141368699Y-81307734D01*
X141375838Y-81308878D01*
X141382722Y-81309825D01*
X141389378Y-81310554D01*
X141395832Y-81311044D01*
X141402111Y-81311275D01*
X141408241Y-81311226D01*
X141414248Y-81310877D01*
X141420158Y-81310206D01*
X141425998Y-81309194D01*
X141431794Y-81307820D01*
X141437573Y-81306063D01*
X141443360Y-81303903D01*
X141449183Y-81301319D01*
X141455067Y-81298290D01*
X141461038Y-81294796D01*
X141467124Y-81290817D01*
X141470637Y-81285531D01*
X141473820Y-81280462D01*
X141476688Y-81275569D01*
X141479254Y-81270812D01*
X141481533Y-81266148D01*
X141483540Y-81261538D01*
X141485288Y-81256939D01*
X141486792Y-81252311D01*
X141488065Y-81247613D01*
X141489123Y-81242804D01*
X141489979Y-81237842D01*
X141490647Y-81232686D01*
X141491142Y-81227297D01*
X141491478Y-81221631D01*
X141491670Y-81215649D01*
X141491730Y-81209309D01*
X141489277Y-81203806D01*
X141486750Y-81198514D01*
X141484132Y-81193427D01*
X141481407Y-81188540D01*
X141478559Y-81183848D01*
X141475571Y-81179346D01*
X141472426Y-81175030D01*
X141469107Y-81170894D01*
X141465598Y-81166933D01*
X141461882Y-81163142D01*
X141457943Y-81159516D01*
X141453764Y-81156051D01*
X141449329Y-81152741D01*
X141444620Y-81149581D01*
X141439621Y-81146566D01*
X141434316Y-81143692D01*
X141425076Y-81142593D01*
X141416388Y-81141750D01*
X141408207Y-81141212D01*
X141400488Y-81141030D01*
X141393186Y-81141252D01*
X141386258Y-81141930D01*
X141379658Y-81143113D01*
X141376468Y-81143909D01*
X141373342Y-81144850D01*
X141370277Y-81145942D01*
X141367266Y-81147192D01*
X141364303Y-81148605D01*
X141361384Y-81150188D01*
X141358502Y-81151948D01*
X141355652Y-81153889D01*
X141352829Y-81156019D01*
X141350027Y-81158344D01*
X141347239Y-81160870D01*
X141344462Y-81163603D01*
X141338914Y-81169716D01*
X141333337Y-81176732D01*
X141327689Y-81184703D01*
X141324704Y-81196409D01*
X141323397Y-81202180D01*
X141322237Y-81207906D01*
X141321238Y-81213596D01*
X141320418Y-81219259D01*
X141319793Y-81224902D01*
X141319378Y-81230534D01*
X141319190Y-81236163D01*
X141179290Y-81236163D01*
X141170390Y-81219816D01*
X141156945Y-81194546D01*
X141130688Y-81143654D01*
X141105073Y-81092295D01*
X141086342Y-81055200D01*
X141067004Y-81018588D01*
X141047006Y-80982331D01*
X141026294Y-80946297D01*
X141003189Y-80905601D01*
X140980696Y-80864556D01*
X140936476Y-80782052D01*
X140922999Y-80757009D01*
X140910858Y-80734363D01*
X140908099Y-80728886D01*
X140905908Y-80724663D01*
X140904961Y-80722928D01*
X140904077Y-80721395D01*
X140903231Y-80720027D01*
X140902396Y-80718785D01*
X140901546Y-80717635D01*
X140900655Y-80716537D01*
X140899697Y-80715455D01*
X140898645Y-80714352D01*
X140896156Y-80711932D01*
X140892978Y-80708982D01*
X140863189Y-80708004D01*
X140833419Y-80707760D01*
X140803667Y-80708169D01*
X140773931Y-80709150D01*
X140744210Y-80710623D01*
X140714502Y-80712507D01*
X140655118Y-80717184D01*
X140656042Y-80726655D01*
X140657418Y-80735882D01*
X140659215Y-80744890D01*
X140661403Y-80753701D01*
X140663950Y-80762339D01*
X140666826Y-80770826D01*
X140670000Y-80779186D01*
X140673441Y-80787442D01*
X140677119Y-80795617D01*
X140681002Y-80803734D01*
X140689262Y-80819887D01*
X140706893Y-80852518D01*
X140720256Y-80877701D01*
X140740946Y-80916402D01*
X140761745Y-80955044D01*
X140774312Y-80978433D01*
X140811849Y-81047560D01*
X140849851Y-81116418D01*
X140926952Y-81253537D01*
X140958938Y-81310465D01*
X140990556Y-81367588D01*
X141053087Y-81482232D01*
X141113922Y-81593781D01*
X141151956Y-81663589D01*
X141189791Y-81733505D01*
X141222598Y-81794092D01*
X141255681Y-81854502D01*
X141289140Y-81914704D01*
X141323075Y-81974666D01*
X141351952Y-82026088D01*
X141380123Y-82077840D01*
X141407708Y-82129909D01*
X141434828Y-82182281D01*
X141469533Y-82248663D01*
X141505160Y-82314440D01*
X141541637Y-82379749D01*
X141578893Y-82444727D01*
X141615362Y-82508933D01*
X141650941Y-82573580D01*
X141685735Y-82638654D01*
X141719851Y-82704138D01*
X141745222Y-82752383D01*
X141771351Y-82800100D01*
X141798258Y-82847383D01*
X141825965Y-82894324D01*
X141840343Y-82918602D01*
X141854394Y-82942954D01*
X141868136Y-82967403D01*
X141881589Y-82991972D01*
X141894771Y-83016686D01*
X141907700Y-83041567D01*
X141920394Y-83066640D01*
X141932873Y-83091927D01*
X141984302Y-83194134D01*
X142010691Y-83244781D01*
X142037576Y-83295132D01*
X142064992Y-83345193D01*
X142092975Y-83394968D01*
X142121559Y-83444465D01*
X142150780Y-83493689D01*
X142173735Y-83532601D01*
X142196064Y-83571790D01*
X142217839Y-83611236D01*
X142239133Y-83650921D01*
X142280565Y-83730931D01*
X142320936Y-83811668D01*
X142331409Y-83832296D01*
X142342160Y-83852750D01*
X142353150Y-83873059D01*
X142364341Y-83893250D01*
X142387177Y-83933395D01*
X142410363Y-83973411D01*
X142430951Y-84010275D01*
X142451374Y-84047229D01*
X142475980Y-84047229D01*
X142501095Y-84003985D01*
X142525579Y-83960474D01*
X142537521Y-83938560D01*
X142549229Y-83916510D01*
X142560678Y-83894301D01*
X142571842Y-83871910D01*
X142596367Y-83823095D01*
X142602294Y-83811746D01*
X142752219Y-83811746D01*
X142752324Y-83817473D01*
X142752658Y-83823355D01*
X142753202Y-83829417D01*
X142753939Y-83835683D01*
X142754851Y-83842177D01*
X142758290Y-83850569D01*
X142759768Y-83854024D01*
X142761149Y-83857066D01*
X142762481Y-83859755D01*
X142763812Y-83862150D01*
X142765191Y-83864312D01*
X142766665Y-83866301D01*
X142768283Y-83868177D01*
X142770092Y-83870000D01*
X142772141Y-83871830D01*
X142774477Y-83873727D01*
X142777149Y-83875751D01*
X142780205Y-83877962D01*
X142787659Y-83883188D01*
X142792335Y-83884618D01*
X142796959Y-83885926D01*
X142801541Y-83887112D01*
X142806090Y-83888175D01*
X142810616Y-83889115D01*
X142815127Y-83889933D01*
X142819633Y-83890629D01*
X142824143Y-83891202D01*
X142828667Y-83891653D01*
X142833212Y-83891982D01*
X142837790Y-83892188D01*
X142842409Y-83892272D01*
X142847078Y-83892235D01*
X142851806Y-83892075D01*
X142856603Y-83891793D01*
X142861478Y-83891390D01*
X142866695Y-83888306D01*
X142871487Y-83885371D01*
X142875882Y-83882539D01*
X142879913Y-83879763D01*
X142883607Y-83876996D01*
X142886997Y-83874193D01*
X142890110Y-83871307D01*
X142892979Y-83868293D01*
X142895631Y-83865103D01*
X142898099Y-83861691D01*
X142900411Y-83858011D01*
X142902597Y-83854018D01*
X142904689Y-83849664D01*
X142906715Y-83844903D01*
X142908705Y-83839689D01*
X142910691Y-83833975D01*
X142911651Y-83822355D01*
X142911978Y-83816925D01*
X142912179Y-83811704D01*
X142912238Y-83806657D01*
X142912135Y-83801750D01*
X142911854Y-83796951D01*
X142911377Y-83792225D01*
X142910687Y-83787538D01*
X142909764Y-83782856D01*
X142908593Y-83778145D01*
X142907156Y-83773372D01*
X142905434Y-83768503D01*
X142903411Y-83763504D01*
X142901068Y-83758341D01*
X142898387Y-83752980D01*
X142890745Y-83746923D01*
X142886886Y-83744191D01*
X142883004Y-83741657D01*
X142879101Y-83739321D01*
X142875178Y-83737183D01*
X142871236Y-83735244D01*
X142867278Y-83733503D01*
X142863304Y-83731962D01*
X142859317Y-83730619D01*
X142855317Y-83729476D01*
X142851307Y-83728533D01*
X142847288Y-83727790D01*
X142843261Y-83727246D01*
X142839228Y-83726903D01*
X142835191Y-83726761D01*
X142831151Y-83726820D01*
X142827109Y-83727079D01*
X142823068Y-83727540D01*
X142819028Y-83728202D01*
X142814992Y-83729067D01*
X142810961Y-83730133D01*
X142806936Y-83731401D01*
X142802919Y-83732872D01*
X142798912Y-83734545D01*
X142794915Y-83736422D01*
X142790931Y-83738501D01*
X142786962Y-83740784D01*
X142783008Y-83743271D01*
X142779071Y-83745961D01*
X142775153Y-83748856D01*
X142771255Y-83751955D01*
X142767667Y-83757598D01*
X142764504Y-83763127D01*
X142761749Y-83768564D01*
X142759382Y-83773936D01*
X142757387Y-83779266D01*
X142755746Y-83784578D01*
X142754441Y-83789898D01*
X142753453Y-83795251D01*
X142752766Y-83800660D01*
X142752360Y-83806150D01*
X142752219Y-83811746D01*
X142602294Y-83811746D01*
X142621640Y-83774699D01*
X142647430Y-83726573D01*
X142673511Y-83678568D01*
X142714242Y-83603164D01*
X142734379Y-83565344D01*
X142754338Y-83527422D01*
X142802769Y-83435775D01*
X142851738Y-83344414D01*
X142866430Y-83317140D01*
X142939430Y-83182454D01*
X142952268Y-83158793D01*
X143099316Y-83158793D01*
X143099488Y-83164305D01*
X143099851Y-83170119D01*
X143101376Y-83177989D01*
X143102174Y-83181586D01*
X143103012Y-83184998D01*
X143103905Y-83188255D01*
X143104863Y-83191386D01*
X143105900Y-83194423D01*
X143107028Y-83197393D01*
X143108261Y-83200329D01*
X143109611Y-83203259D01*
X143111089Y-83206214D01*
X143112710Y-83209223D01*
X143114486Y-83212317D01*
X143116429Y-83215526D01*
X143118553Y-83218880D01*
X143120869Y-83222408D01*
X143125725Y-83225491D01*
X143130442Y-83228260D01*
X143135048Y-83230730D01*
X143139571Y-83232919D01*
X143144041Y-83234844D01*
X143148485Y-83236522D01*
X143152931Y-83237969D01*
X143157409Y-83239203D01*
X143161947Y-83240241D01*
X143166572Y-83241099D01*
X143171314Y-83241794D01*
X143176201Y-83242344D01*
X143181261Y-83242765D01*
X143186522Y-83243074D01*
X143197764Y-83243425D01*
X143202431Y-83241447D01*
X143206822Y-83239441D01*
X143210963Y-83237395D01*
X143214880Y-83235295D01*
X143218600Y-83233126D01*
X143222151Y-83230876D01*
X143225557Y-83228531D01*
X143228847Y-83226077D01*
X143232046Y-83223500D01*
X143235182Y-83220787D01*
X143238281Y-83217923D01*
X143241369Y-83214896D01*
X143244474Y-83211692D01*
X143247622Y-83208296D01*
X143254153Y-83200877D01*
X143256365Y-83195008D01*
X143258246Y-83189287D01*
X143259806Y-83183692D01*
X143261054Y-83178200D01*
X143262001Y-83172789D01*
X143262654Y-83167436D01*
X143263025Y-83162119D01*
X143263121Y-83156816D01*
X143262954Y-83151504D01*
X143262531Y-83146161D01*
X143261864Y-83140764D01*
X143260960Y-83135291D01*
X143259831Y-83129720D01*
X143258484Y-83124028D01*
X143256930Y-83118193D01*
X143255178Y-83112192D01*
X143251861Y-83107363D01*
X143248661Y-83103020D01*
X143245540Y-83099123D01*
X143242458Y-83095635D01*
X143240920Y-83094033D01*
X143239376Y-83092518D01*
X143237822Y-83091086D01*
X143236254Y-83089732D01*
X143234665Y-83088452D01*
X143233052Y-83087240D01*
X143231410Y-83086092D01*
X143229732Y-83085003D01*
X143228016Y-83083968D01*
X143226254Y-83082982D01*
X143222579Y-83081141D01*
X143218667Y-83079440D01*
X143214479Y-83077840D01*
X143209975Y-83076304D01*
X143205116Y-83074793D01*
X143199862Y-83073269D01*
X143194175Y-83071694D01*
X143188197Y-83071638D01*
X143182668Y-83071699D01*
X143177539Y-83071898D01*
X143172757Y-83072254D01*
X143168273Y-83072785D01*
X143164034Y-83073512D01*
X143159990Y-83074454D01*
X143156090Y-83075630D01*
X143152283Y-83077060D01*
X143148517Y-83078762D01*
X143144743Y-83080757D01*
X143140908Y-83083062D01*
X143136962Y-83085699D01*
X143132853Y-83088686D01*
X143128531Y-83092042D01*
X143123945Y-83095788D01*
X143120141Y-83100363D01*
X143116701Y-83104801D01*
X143113612Y-83109134D01*
X143110863Y-83113392D01*
X143108439Y-83117608D01*
X143106331Y-83121812D01*
X143104525Y-83126036D01*
X143103008Y-83130310D01*
X143101770Y-83134668D01*
X143100797Y-83139140D01*
X143100078Y-83143756D01*
X143099599Y-83148550D01*
X143099350Y-83153552D01*
X143099316Y-83158793D01*
X142952268Y-83158793D01*
X142970210Y-83125724D01*
X143000616Y-83068843D01*
X143030415Y-83011648D01*
X143059377Y-82953974D01*
X143067887Y-82937007D01*
X143076565Y-82920143D01*
X143094347Y-82886664D01*
X143112565Y-82853417D01*
X143131064Y-82820283D01*
X143181837Y-82728563D01*
X143231774Y-82636376D01*
X143250031Y-82602094D01*
X143394459Y-82602094D01*
X143394712Y-82607276D01*
X143395226Y-82612477D01*
X143395982Y-82617708D01*
X143396965Y-82622979D01*
X143398156Y-82628301D01*
X143399540Y-82633684D01*
X143401099Y-82639138D01*
X143402815Y-82644673D01*
X143406747Y-82650136D01*
X143410491Y-82655126D01*
X143414099Y-82659671D01*
X143417624Y-82663799D01*
X143421119Y-82667538D01*
X143424636Y-82670914D01*
X143428226Y-82673955D01*
X143430066Y-82675359D01*
X143431944Y-82676690D01*
X143433867Y-82677951D01*
X143435840Y-82679145D01*
X143437872Y-82680276D01*
X143439969Y-82681347D01*
X143442136Y-82682363D01*
X143444380Y-82683325D01*
X143449129Y-82685106D01*
X143454266Y-82686718D01*
X143459844Y-82688187D01*
X143465916Y-82689542D01*
X143472533Y-82690810D01*
X143479109Y-82689544D01*
X143485147Y-82688180D01*
X143490699Y-82686693D01*
X143495817Y-82685058D01*
X143500553Y-82683249D01*
X143504959Y-82681241D01*
X143509086Y-82679009D01*
X143512987Y-82676527D01*
X143516713Y-82673772D01*
X143520315Y-82670716D01*
X143523847Y-82667335D01*
X143527359Y-82663604D01*
X143530904Y-82659498D01*
X143534533Y-82654991D01*
X143538298Y-82650058D01*
X143542251Y-82644673D01*
X143545336Y-82633356D01*
X143546615Y-82628105D01*
X143547702Y-82623072D01*
X143548583Y-82618216D01*
X143549248Y-82613495D01*
X143549683Y-82608868D01*
X143549876Y-82604294D01*
X143549815Y-82599733D01*
X143549487Y-82595143D01*
X143548880Y-82590484D01*
X143547981Y-82585713D01*
X143546779Y-82580791D01*
X143545261Y-82575676D01*
X143543414Y-82570327D01*
X143541226Y-82564703D01*
X143538025Y-82560946D01*
X143534859Y-82557401D01*
X143531712Y-82554053D01*
X143528566Y-82550888D01*
X143525404Y-82547890D01*
X143522211Y-82545044D01*
X143518969Y-82542334D01*
X143515661Y-82539748D01*
X143512271Y-82537268D01*
X143508782Y-82534880D01*
X143505178Y-82532569D01*
X143501441Y-82530320D01*
X143497555Y-82528118D01*
X143493504Y-82525947D01*
X143489270Y-82523794D01*
X143484836Y-82521642D01*
X143478369Y-82521818D01*
X143472239Y-82522339D01*
X143466414Y-82523194D01*
X143460864Y-82524374D01*
X143455554Y-82525867D01*
X143450453Y-82527665D01*
X143445529Y-82529756D01*
X143440750Y-82532130D01*
X143436082Y-82534777D01*
X143431494Y-82537687D01*
X143426955Y-82540850D01*
X143422430Y-82544255D01*
X143417889Y-82547891D01*
X143413298Y-82551749D01*
X143403841Y-82560089D01*
X143401400Y-82565490D01*
X143399356Y-82570827D01*
X143397690Y-82576111D01*
X143396388Y-82581352D01*
X143395430Y-82586560D01*
X143394801Y-82591746D01*
X143394483Y-82596921D01*
X143394459Y-82602094D01*
X143250031Y-82602094D01*
X143281057Y-82543835D01*
X143329866Y-82451053D01*
X143371881Y-82371690D01*
X143414289Y-82292537D01*
X143505802Y-82120375D01*
X143595985Y-81947512D01*
X143629438Y-81883162D01*
X143661140Y-81823229D01*
X143803858Y-81823229D01*
X143804006Y-81829033D01*
X143804298Y-81834912D01*
X143804718Y-81840869D01*
X143806575Y-81845361D01*
X143808408Y-81849566D01*
X143810240Y-81853512D01*
X143812093Y-81857222D01*
X143813990Y-81860723D01*
X143815953Y-81864040D01*
X143818005Y-81867197D01*
X143820168Y-81870221D01*
X143822466Y-81873137D01*
X143824919Y-81875970D01*
X143827552Y-81878745D01*
X143830386Y-81881488D01*
X143833445Y-81884224D01*
X143836750Y-81886979D01*
X143840324Y-81889777D01*
X143844190Y-81892645D01*
X143850225Y-81894441D01*
X143856100Y-81895979D01*
X143861837Y-81897257D01*
X143867457Y-81898273D01*
X143872981Y-81899023D01*
X143878429Y-81899506D01*
X143883823Y-81899718D01*
X143889183Y-81899658D01*
X143894531Y-81899323D01*
X143899888Y-81898710D01*
X143905275Y-81897816D01*
X143910712Y-81896640D01*
X143916221Y-81895178D01*
X143921823Y-81893429D01*
X143927538Y-81891389D01*
X143933388Y-81889056D01*
X143937764Y-81885413D01*
X143941809Y-81881843D01*
X143945545Y-81878319D01*
X143948997Y-81874816D01*
X143952189Y-81871305D01*
X143955144Y-81867760D01*
X143957887Y-81864153D01*
X143960442Y-81860458D01*
X143962831Y-81856647D01*
X143965081Y-81852694D01*
X143967213Y-81848571D01*
X143969253Y-81844251D01*
X143971223Y-81839708D01*
X143973149Y-81834914D01*
X143975054Y-81829842D01*
X143976961Y-81824465D01*
X143976612Y-81813254D01*
X143976304Y-81808008D01*
X143975885Y-81802963D01*
X143975340Y-81798090D01*
X143974652Y-81793360D01*
X143973807Y-81788745D01*
X143972787Y-81784215D01*
X143971578Y-81779741D01*
X143970162Y-81775294D01*
X143968525Y-81770846D01*
X143966650Y-81766368D01*
X143964522Y-81761830D01*
X143962124Y-81757204D01*
X143959441Y-81752460D01*
X143956456Y-81747571D01*
X143948141Y-81742490D01*
X143939688Y-81737978D01*
X143931125Y-81734067D01*
X143922479Y-81730791D01*
X143913775Y-81728183D01*
X143905041Y-81726274D01*
X143896303Y-81725098D01*
X143891942Y-81724795D01*
X143887589Y-81724687D01*
X143883249Y-81724779D01*
X143878925Y-81725075D01*
X143874620Y-81725578D01*
X143870337Y-81726294D01*
X143866081Y-81727225D01*
X143861853Y-81728376D01*
X143857659Y-81729751D01*
X143853500Y-81731355D01*
X143849380Y-81733190D01*
X143845303Y-81735263D01*
X143841272Y-81737575D01*
X143837290Y-81740132D01*
X143833361Y-81742938D01*
X143829488Y-81745997D01*
X143825674Y-81749313D01*
X143821923Y-81752889D01*
X143818820Y-81758059D01*
X143816058Y-81763255D01*
X143813622Y-81768482D01*
X143811498Y-81773742D01*
X143809669Y-81779041D01*
X143808120Y-81784380D01*
X143806837Y-81789765D01*
X143805804Y-81795199D01*
X143805006Y-81800685D01*
X143804428Y-81806228D01*
X143804054Y-81811830D01*
X143803869Y-81817496D01*
X143803858Y-81823229D01*
X143661140Y-81823229D01*
X143663319Y-81819109D01*
X143697975Y-81755479D01*
X143715701Y-81723862D01*
X143733750Y-81692399D01*
X143739398Y-81682352D01*
X143744920Y-81672262D01*
X143755645Y-81651953D01*
X143766044Y-81631473D01*
X143776235Y-81610826D01*
X143789133Y-81585291D01*
X143802242Y-81559868D01*
X143828811Y-81509197D01*
X143838932Y-81489936D01*
X143864291Y-81442262D01*
X143889952Y-81394754D01*
X143941846Y-81300044D01*
X143975771Y-81237846D01*
X143991076Y-81209309D01*
X144160996Y-81209309D01*
X144161068Y-81211628D01*
X144161284Y-81214019D01*
X144161644Y-81216554D01*
X144162149Y-81219305D01*
X144162798Y-81222345D01*
X144163591Y-81225745D01*
X144165609Y-81233915D01*
X144170940Y-81241006D01*
X144173193Y-81243919D01*
X144175251Y-81246474D01*
X144177174Y-81248719D01*
X144179023Y-81250702D01*
X144180857Y-81252473D01*
X144182736Y-81254077D01*
X144184722Y-81255564D01*
X144186872Y-81256982D01*
X144189249Y-81258379D01*
X144191911Y-81259802D01*
X144194919Y-81261300D01*
X144198333Y-81262921D01*
X144206620Y-81266723D01*
X144216625Y-81267185D01*
X144224476Y-81267415D01*
X144227804Y-81267412D01*
X144230846Y-81267315D01*
X144233686Y-81267112D01*
X144236409Y-81266791D01*
X144239097Y-81266339D01*
X144241836Y-81265745D01*
X144244709Y-81264997D01*
X144247801Y-81264083D01*
X144254976Y-81261707D01*
X144264034Y-81258521D01*
X144267138Y-81254879D01*
X144269826Y-81251401D01*
X144272125Y-81248054D01*
X144273137Y-81246418D01*
X144274063Y-81244802D01*
X144274906Y-81243202D01*
X144275669Y-81241612D01*
X144276357Y-81240028D01*
X144276971Y-81238447D01*
X144277517Y-81236864D01*
X144277997Y-81235274D01*
X144278774Y-81232057D01*
X144279331Y-81228762D01*
X144279695Y-81225355D01*
X144279895Y-81221800D01*
X144279959Y-81218062D01*
X144279915Y-81214108D01*
X144279791Y-81209901D01*
X144279413Y-81200594D01*
X144277626Y-81192514D01*
X144276840Y-81189187D01*
X144276085Y-81186258D01*
X144275328Y-81183669D01*
X144274538Y-81181363D01*
X144273683Y-81179281D01*
X144272733Y-81177367D01*
X144271654Y-81175562D01*
X144270417Y-81173808D01*
X144268989Y-81172047D01*
X144267338Y-81170222D01*
X144265434Y-81168275D01*
X144263244Y-81166147D01*
X144257883Y-81161122D01*
X144250479Y-81157656D01*
X144243396Y-81154831D01*
X144236611Y-81152652D01*
X144233324Y-81151806D01*
X144230103Y-81151122D01*
X144226945Y-81150601D01*
X144223849Y-81150244D01*
X144220810Y-81150051D01*
X144217828Y-81150022D01*
X144214897Y-81150158D01*
X144212017Y-81150460D01*
X144209184Y-81150928D01*
X144206396Y-81151562D01*
X144203649Y-81152363D01*
X144200942Y-81153331D01*
X144198270Y-81154466D01*
X144195633Y-81155770D01*
X144193026Y-81157243D01*
X144190447Y-81158884D01*
X144187894Y-81160696D01*
X144185364Y-81162677D01*
X144182853Y-81164829D01*
X144180360Y-81167151D01*
X144175414Y-81172311D01*
X144170505Y-81178160D01*
X144165609Y-81184703D01*
X144163591Y-81192873D01*
X144162798Y-81196273D01*
X144162149Y-81199312D01*
X144161644Y-81202064D01*
X144161284Y-81204599D01*
X144161068Y-81206990D01*
X144160996Y-81209309D01*
X143991076Y-81209309D01*
X144009244Y-81175433D01*
X144042275Y-81112785D01*
X144074874Y-81049881D01*
X144103468Y-80994864D01*
X144132521Y-80940126D01*
X144162098Y-80885671D01*
X144192266Y-80831500D01*
X144205913Y-80807249D01*
X144224352Y-80775084D01*
X144230620Y-80764597D01*
X144235699Y-80756689D01*
X144237975Y-80753433D01*
X144240175Y-80750498D01*
X144242369Y-80747776D01*
X144244632Y-80745159D01*
X144249656Y-80739810D01*
X144255832Y-80733588D01*
X144255832Y-80708982D01*
X144230117Y-80707843D01*
X144204404Y-80706865D01*
X144178686Y-80706045D01*
X144152956Y-80705377D01*
X144135471Y-80704795D01*
X144117993Y-80704032D01*
X144096153Y-80702171D01*
X144087093Y-80701508D01*
X144079030Y-80701058D01*
X144071782Y-80700846D01*
X144065168Y-80700899D01*
X144059006Y-80701242D01*
X144053114Y-80701901D01*
X144047311Y-80702902D01*
X144041414Y-80704271D01*
X144035241Y-80706033D01*
X144028612Y-80708213D01*
X144021343Y-80710839D01*
X144013254Y-80713936D01*
X143993886Y-80721645D01*
X143989931Y-80728087D01*
X143986295Y-80734497D01*
X143982937Y-80740917D01*
X143979811Y-80747386D01*
X143976875Y-80753948D01*
X143974083Y-80760643D01*
X143971393Y-80767513D01*
X143968759Y-80774598D01*
X143964733Y-80782542D01*
X143960668Y-80790466D01*
X143956563Y-80798370D01*
X143952419Y-80806253D01*
X143936976Y-80838165D01*
X143922044Y-80868138D01*
X143906673Y-80897764D01*
X143898768Y-80912454D01*
X143890690Y-80927067D01*
X143882415Y-80941604D01*
X143873923Y-80956069D01*
X143864534Y-80972112D01*
X143855411Y-80988252D01*
X143846519Y-81004485D01*
X143837823Y-81020808D01*
X143820888Y-81053715D01*
X143804333Y-81086950D01*
X143790219Y-81115117D01*
X143775883Y-81143167D01*
X143746790Y-81199056D01*
X143736864Y-81218138D01*
X143724049Y-81242119D01*
X143710911Y-81265855D01*
X143697387Y-81289373D01*
X143683416Y-81312700D01*
X143670864Y-81333783D01*
X143658620Y-81355032D01*
X143646636Y-81376421D01*
X143634863Y-81397925D01*
X143611753Y-81441178D01*
X143588900Y-81484591D01*
X143569505Y-81521336D01*
X143501750Y-81650700D01*
X143434599Y-81780379D01*
X143426121Y-81796823D01*
X143380853Y-81885355D01*
X143336174Y-81974185D01*
X143316490Y-82013426D01*
X143296605Y-82052557D01*
X143276512Y-82091583D01*
X143256203Y-82130505D01*
X143244477Y-82152981D01*
X143233199Y-82174495D01*
X143223271Y-82193441D01*
X143220234Y-82198942D01*
X143217752Y-82203377D01*
X143215525Y-82207227D01*
X143213255Y-82210973D01*
X143210643Y-82215099D01*
X143207389Y-82220086D01*
X143197764Y-82234569D01*
X143192485Y-82233712D01*
X143188312Y-82232999D01*
X143184860Y-82232334D01*
X143181744Y-82231621D01*
X143178580Y-82230764D01*
X143174983Y-82229667D01*
X143170570Y-82228233D01*
X143164955Y-82226367D01*
X143163219Y-82220831D01*
X143161836Y-82215696D01*
X143160788Y-82210904D01*
X143160060Y-82206398D01*
X143159634Y-82202122D01*
X143159494Y-82198019D01*
X143159623Y-82194032D01*
X143160004Y-82190104D01*
X143160620Y-82186178D01*
X143161455Y-82182198D01*
X143162491Y-82178106D01*
X143163713Y-82173847D01*
X143166644Y-82164596D01*
X143170113Y-82153990D01*
X143179441Y-82125079D01*
X143191755Y-82089146D01*
X143204333Y-82053313D01*
X143230059Y-81981842D01*
X143251915Y-81920297D01*
X143273020Y-81858599D01*
X143293278Y-81796622D01*
X143312593Y-81734242D01*
X143319196Y-81713519D01*
X143326274Y-81693082D01*
X143333786Y-81672881D01*
X143341695Y-81652869D01*
X143349960Y-81632996D01*
X143358544Y-81613213D01*
X143367407Y-81593472D01*
X143376511Y-81573725D01*
X143378400Y-81568121D01*
X143380073Y-81562656D01*
X143381541Y-81557309D01*
X143382814Y-81552057D01*
X143383901Y-81546877D01*
X143384812Y-81541747D01*
X143385556Y-81536643D01*
X143386145Y-81531543D01*
X143386587Y-81526425D01*
X143386893Y-81521266D01*
X143387072Y-81516043D01*
X143387134Y-81510733D01*
X143386947Y-81499765D01*
X143386411Y-81488180D01*
X143381870Y-81486060D01*
X143377269Y-81484204D01*
X143372614Y-81482601D01*
X143367908Y-81481242D01*
X143363154Y-81480117D01*
X143358357Y-81479214D01*
X143348648Y-81478038D01*
X143338813Y-81477630D01*
X143328881Y-81477910D01*
X143318884Y-81478795D01*
X143308853Y-81480203D01*
X143298819Y-81482053D01*
X143288812Y-81484262D01*
X143269005Y-81489433D01*
X143231084Y-81500483D01*
X143209346Y-81506410D01*
X143183036Y-81513651D01*
X143156753Y-81520988D01*
X143160195Y-81503755D01*
X143163989Y-81487054D01*
X143168228Y-81470773D01*
X143173004Y-81454802D01*
X143178407Y-81439031D01*
X143181373Y-81431185D01*
X143184530Y-81423348D01*
X143187890Y-81415505D01*
X143191464Y-81407643D01*
X143195264Y-81399748D01*
X143199301Y-81391805D01*
X143207618Y-81375723D01*
X143217333Y-81357025D01*
X143227096Y-81338351D01*
X143243708Y-81306216D01*
X143260167Y-81274002D01*
X143277995Y-81239041D01*
X143402815Y-81239041D01*
X143404955Y-81248353D01*
X143405891Y-81252196D01*
X143406786Y-81255590D01*
X143407675Y-81258604D01*
X143408595Y-81261310D01*
X143409582Y-81263775D01*
X143410672Y-81266072D01*
X143411901Y-81268268D01*
X143413305Y-81270435D01*
X143414920Y-81272641D01*
X143416782Y-81274957D01*
X143418927Y-81277453D01*
X143421391Y-81280198D01*
X143427422Y-81286716D01*
X143433646Y-81289812D01*
X143439758Y-81292558D01*
X143445780Y-81294962D01*
X143451733Y-81297034D01*
X143457640Y-81298784D01*
X143463522Y-81300222D01*
X143469402Y-81301357D01*
X143475301Y-81302198D01*
X143481242Y-81302756D01*
X143487247Y-81303041D01*
X143493338Y-81303060D01*
X143499536Y-81302825D01*
X143505864Y-81302346D01*
X143512344Y-81301630D01*
X143518997Y-81300689D01*
X143525847Y-81299532D01*
X143531025Y-81296383D01*
X143536006Y-81293209D01*
X143540788Y-81289987D01*
X143545367Y-81286695D01*
X143549739Y-81283312D01*
X143553902Y-81279817D01*
X143557852Y-81276188D01*
X143561585Y-81272402D01*
X143565099Y-81268440D01*
X143568389Y-81264278D01*
X143571454Y-81259895D01*
X143574288Y-81255270D01*
X143576889Y-81250381D01*
X143579254Y-81245207D01*
X143581379Y-81239725D01*
X143583261Y-81233915D01*
X143583192Y-81227590D01*
X143582969Y-81221765D01*
X143582575Y-81216387D01*
X143581990Y-81211398D01*
X143581194Y-81206743D01*
X143580168Y-81202366D01*
X143578894Y-81198212D01*
X143577350Y-81194225D01*
X143575519Y-81190348D01*
X143573381Y-81186527D01*
X143570916Y-81182705D01*
X143568105Y-81178827D01*
X143564929Y-81174836D01*
X143561368Y-81170678D01*
X143557404Y-81166296D01*
X143553016Y-81161634D01*
X143544382Y-81156146D01*
X143536068Y-81151325D01*
X143528027Y-81147182D01*
X143520214Y-81143728D01*
X143512582Y-81140975D01*
X143508820Y-81139864D01*
X143505086Y-81138932D01*
X143501374Y-81138182D01*
X143497678Y-81137613D01*
X143493994Y-81137228D01*
X143490314Y-81137027D01*
X143486634Y-81137013D01*
X143482947Y-81137186D01*
X143479248Y-81137549D01*
X143475531Y-81138101D01*
X143471790Y-81138846D01*
X143468020Y-81139784D01*
X143464214Y-81140916D01*
X143460367Y-81142245D01*
X143456474Y-81143771D01*
X143452527Y-81145495D01*
X143444454Y-81149547D01*
X143436101Y-81154410D01*
X143427422Y-81160096D01*
X143423870Y-81165252D01*
X143420657Y-81170171D01*
X143417770Y-81174895D01*
X143415191Y-81179471D01*
X143412907Y-81183943D01*
X143410901Y-81188356D01*
X143409158Y-81192754D01*
X143407664Y-81197182D01*
X143406403Y-81201684D01*
X143405360Y-81206306D01*
X143404519Y-81211091D01*
X143403865Y-81216086D01*
X143403383Y-81221333D01*
X143403057Y-81226878D01*
X143402873Y-81232766D01*
X143402815Y-81239041D01*
X143277995Y-81239041D01*
X143317868Y-81160855D01*
X143351641Y-81096108D01*
X143363643Y-81074283D01*
X143374570Y-81055436D01*
X143399740Y-81014509D01*
X143413978Y-80991100D01*
X143427750Y-80967459D01*
X143441125Y-80943616D01*
X143454175Y-80919600D01*
X143479571Y-80871166D01*
X143504497Y-80822393D01*
X143520892Y-80790895D01*
X143529261Y-80775325D01*
X143537789Y-80759869D01*
X143546507Y-80744522D01*
X143555449Y-80729282D01*
X143564647Y-80714144D01*
X143574134Y-80699104D01*
X143579472Y-80690235D01*
X143584588Y-80681260D01*
X143589516Y-80672190D01*
X143594289Y-80663041D01*
X143598939Y-80653827D01*
X143603499Y-80644562D01*
X143612481Y-80625936D01*
X143627410Y-80595891D01*
X143642666Y-80566025D01*
X143643663Y-80564137D01*
X143777872Y-80564137D01*
X143777922Y-80568750D01*
X143778124Y-80573481D01*
X143778461Y-80578358D01*
X143778915Y-80583410D01*
X143780111Y-80594153D01*
X143785363Y-80604180D01*
X143787938Y-80608826D01*
X143790519Y-80613250D01*
X143793134Y-80617467D01*
X143795812Y-80621497D01*
X143798582Y-80625354D01*
X143801472Y-80629057D01*
X143804512Y-80632623D01*
X143807730Y-80636067D01*
X143811155Y-80639409D01*
X143814816Y-80642663D01*
X143818743Y-80645848D01*
X143822963Y-80648981D01*
X143827505Y-80652077D01*
X143832400Y-80655156D01*
X143837411Y-80656174D01*
X143842200Y-80657030D01*
X143846797Y-80657721D01*
X143851233Y-80658248D01*
X143855538Y-80658611D01*
X143859744Y-80658808D01*
X143863882Y-80658839D01*
X143867982Y-80658704D01*
X143872076Y-80658402D01*
X143876194Y-80657932D01*
X143880367Y-80657295D01*
X143884626Y-80656488D01*
X143889002Y-80655513D01*
X143893526Y-80654368D01*
X143898230Y-80653053D01*
X143903143Y-80651567D01*
X143908405Y-80647620D01*
X143913327Y-80643730D01*
X143917920Y-80639865D01*
X143922194Y-80635994D01*
X143926160Y-80632087D01*
X143929827Y-80628111D01*
X143933207Y-80624036D01*
X143936308Y-80619831D01*
X143939142Y-80615464D01*
X143941719Y-80610904D01*
X143944049Y-80606120D01*
X143946142Y-80601081D01*
X143948009Y-80595755D01*
X143949660Y-80590112D01*
X143951105Y-80584120D01*
X143952355Y-80577748D01*
X144436278Y-80577748D01*
X144437538Y-80584142D01*
X144438982Y-80590153D01*
X144440622Y-80595814D01*
X144442472Y-80601156D01*
X144444543Y-80606208D01*
X144446848Y-80611002D01*
X144449399Y-80615570D01*
X144452209Y-80619941D01*
X144455290Y-80624148D01*
X144458654Y-80628220D01*
X144462315Y-80632189D01*
X144466283Y-80636085D01*
X144470573Y-80639941D01*
X144475196Y-80643785D01*
X144480164Y-80647651D01*
X144485491Y-80651567D01*
X144496674Y-80654600D01*
X144501887Y-80655854D01*
X144506899Y-80656921D01*
X144511749Y-80657792D01*
X144516475Y-80658455D01*
X144521116Y-80658902D01*
X144525711Y-80659122D01*
X144530299Y-80659106D01*
X144534918Y-80658844D01*
X144539608Y-80658327D01*
X144544406Y-80657545D01*
X144549352Y-80656487D01*
X144554483Y-80655145D01*
X144559840Y-80653508D01*
X144565461Y-80651567D01*
X144569963Y-80647422D01*
X144574099Y-80643315D01*
X144577897Y-80639225D01*
X144581381Y-80635131D01*
X144584581Y-80631011D01*
X144587520Y-80626843D01*
X144590228Y-80622605D01*
X144592729Y-80618276D01*
X144595051Y-80613834D01*
X144597221Y-80609257D01*
X144599264Y-80604523D01*
X144601208Y-80599612D01*
X144603079Y-80594500D01*
X144604904Y-80589167D01*
X144608522Y-80577748D01*
X144608453Y-80571742D01*
X144608239Y-80566169D01*
X144607866Y-80560979D01*
X144607320Y-80556122D01*
X144606588Y-80551547D01*
X144605656Y-80547205D01*
X144604511Y-80543044D01*
X144603139Y-80539015D01*
X144601527Y-80535066D01*
X144599661Y-80531149D01*
X144597527Y-80527211D01*
X144595113Y-80523204D01*
X144592405Y-80519076D01*
X144589388Y-80514778D01*
X144586050Y-80510258D01*
X144582377Y-80505468D01*
X144574310Y-80499514D01*
X144566475Y-80494396D01*
X144562634Y-80492146D01*
X144558837Y-80490100D01*
X144555080Y-80488258D01*
X144551358Y-80486616D01*
X144547667Y-80485175D01*
X144544003Y-80483932D01*
X144540360Y-80482887D01*
X144536735Y-80482037D01*
X144533122Y-80481382D01*
X144529518Y-80480919D01*
X144525918Y-80480648D01*
X144522316Y-80480566D01*
X144518709Y-80480673D01*
X144515093Y-80480968D01*
X144511462Y-80481448D01*
X144507812Y-80482112D01*
X144504138Y-80482959D01*
X144500437Y-80483987D01*
X144496703Y-80485196D01*
X144492932Y-80486582D01*
X144485260Y-80489886D01*
X144477386Y-80493885D01*
X144469273Y-80498571D01*
X144460884Y-80503930D01*
X144456815Y-80508655D01*
X144453219Y-80513123D01*
X144450067Y-80517384D01*
X144447330Y-80521491D01*
X144444979Y-80525497D01*
X144442985Y-80529452D01*
X144441318Y-80533411D01*
X144439950Y-80537423D01*
X144438852Y-80541543D01*
X144437995Y-80545821D01*
X144437349Y-80550311D01*
X144436886Y-80555063D01*
X144436576Y-80560131D01*
X144436391Y-80565567D01*
X144436278Y-80577748D01*
X143952355Y-80577748D01*
X143952242Y-80565567D01*
X143952056Y-80560131D01*
X143951747Y-80555063D01*
X143951284Y-80550311D01*
X143950638Y-80545821D01*
X143949781Y-80541543D01*
X143948683Y-80537423D01*
X143947315Y-80533411D01*
X143945649Y-80529452D01*
X143943654Y-80525497D01*
X143941303Y-80521491D01*
X143938566Y-80517384D01*
X143935414Y-80513123D01*
X143931818Y-80508655D01*
X143927749Y-80503930D01*
X143917857Y-80498260D01*
X143908304Y-80493429D01*
X143899052Y-80489444D01*
X143890064Y-80486313D01*
X143885658Y-80485070D01*
X143881304Y-80484044D01*
X143876997Y-80483236D01*
X143872734Y-80482646D01*
X143868508Y-80482276D01*
X143864316Y-80482126D01*
X143860154Y-80482197D01*
X143856015Y-80482492D01*
X143851897Y-80483009D01*
X143847793Y-80483752D01*
X143843700Y-80484720D01*
X143839613Y-80485914D01*
X143835527Y-80487336D01*
X143831438Y-80488987D01*
X143827340Y-80490867D01*
X143823230Y-80492978D01*
X143819103Y-80495320D01*
X143814954Y-80497895D01*
X143806571Y-80503746D01*
X143798045Y-80510540D01*
X143789339Y-80518283D01*
X143786963Y-80523271D01*
X143784905Y-80528094D01*
X143783147Y-80532781D01*
X143781674Y-80537359D01*
X143780468Y-80541857D01*
X143779514Y-80546303D01*
X143778793Y-80550726D01*
X143778290Y-80555153D01*
X143777989Y-80559615D01*
X143777872Y-80564137D01*
X143643663Y-80564137D01*
X143673969Y-80506721D01*
X143706003Y-80447799D01*
X143738378Y-80389040D01*
X143742770Y-80380912D01*
X143747090Y-80372744D01*
X143751335Y-80364537D01*
X143755505Y-80356292D01*
X144895595Y-80356292D01*
X144879246Y-80384479D01*
X144862684Y-80412072D01*
X144854246Y-80425726D01*
X144845661Y-80439329D01*
X144836899Y-80452912D01*
X144827928Y-80466508D01*
X144814388Y-80487822D01*
X144801450Y-80509359D01*
X144789031Y-80531108D01*
X144777046Y-80553060D01*
X144765412Y-80575206D01*
X144754044Y-80597537D01*
X144731773Y-80642712D01*
X144720832Y-80664543D01*
X144709673Y-80686259D01*
X144686954Y-80729487D01*
X144677613Y-80747143D01*
X144664081Y-80772264D01*
X144650336Y-80797252D01*
X144636389Y-80822127D01*
X144622248Y-80846911D01*
X144610450Y-80867743D01*
X144598935Y-80888661D01*
X144587685Y-80909676D01*
X144576679Y-80930798D01*
X144565898Y-80952038D01*
X144555321Y-80973404D01*
X144534703Y-81016560D01*
X144514883Y-81058097D01*
X144504736Y-81078670D01*
X144494399Y-81099122D01*
X144483844Y-81119461D01*
X144473046Y-81139693D01*
X144461979Y-81159825D01*
X144450617Y-81179865D01*
X144426885Y-81221790D01*
X144403604Y-81263958D01*
X144357845Y-81348744D01*
X144349656Y-81364025D01*
X144325318Y-81409813D01*
X144301316Y-81455755D01*
X144277723Y-81501905D01*
X144254609Y-81548322D01*
X144242504Y-81572414D01*
X144230123Y-81596357D01*
X144204704Y-81643895D01*
X144178703Y-81691123D01*
X144152469Y-81738231D01*
X144118735Y-81799218D01*
X144084993Y-81860272D01*
X144064851Y-81896176D01*
X144050305Y-81920927D01*
X144033351Y-81948521D01*
X144024534Y-81963312D01*
X144016032Y-81978243D01*
X144007797Y-81993299D01*
X143999782Y-82008463D01*
X143984213Y-82039049D01*
X143968940Y-82069871D01*
X143946553Y-82114206D01*
X143923530Y-82158186D01*
X143900036Y-82201918D01*
X143876233Y-82245510D01*
X143840089Y-82311464D01*
X143827368Y-82334682D01*
X143804509Y-82376984D01*
X143781968Y-82419441D01*
X143737563Y-82504725D01*
X143716929Y-82544193D01*
X143695780Y-82583257D01*
X143684934Y-82602628D01*
X143673864Y-82621886D01*
X143662539Y-82641029D01*
X143650929Y-82660052D01*
X143640374Y-82677511D01*
X143630245Y-82695090D01*
X143620494Y-82712800D01*
X143611075Y-82730652D01*
X143601939Y-82748654D01*
X143593042Y-82766816D01*
X143584334Y-82785150D01*
X143575770Y-82803665D01*
X143564407Y-82827951D01*
X143552735Y-82852066D01*
X143528633Y-82899889D01*
X143503807Y-82947347D01*
X143478597Y-82994656D01*
X143463932Y-83022438D01*
X143449401Y-83050292D01*
X143427326Y-83092126D01*
X143404740Y-83133574D01*
X143393189Y-83154147D01*
X143381432Y-83174615D01*
X143369442Y-83194977D01*
X143357192Y-83215231D01*
X143345478Y-83234727D01*
X143334129Y-83254357D01*
X143323104Y-83274118D01*
X143312358Y-83294010D01*
X143301850Y-83314030D01*
X143291537Y-83334178D01*
X143271326Y-83374851D01*
X143259339Y-83398845D01*
X143247055Y-83422669D01*
X143234540Y-83446374D01*
X143221857Y-83470008D01*
X143206315Y-83499152D01*
X143191059Y-83528415D01*
X143176080Y-83557823D01*
X143161367Y-83587400D01*
X143145659Y-83618440D01*
X143129471Y-83649148D01*
X143112826Y-83679611D01*
X143095750Y-83709919D01*
X143077676Y-83742097D01*
X143060117Y-83774477D01*
X143043073Y-83807130D01*
X143026545Y-83840127D01*
X143004065Y-83884903D01*
X142980929Y-83929336D01*
X142957245Y-83973481D01*
X142933124Y-84017393D01*
X142884002Y-84104743D01*
X142834437Y-84191829D01*
X142812443Y-84231120D01*
X142790841Y-84270594D01*
X142769589Y-84310258D01*
X142748649Y-84350118D01*
X142739342Y-84367600D01*
X142729845Y-84384956D01*
X142710371Y-84419368D01*
X142690401Y-84453498D01*
X142670109Y-84487492D01*
X142661352Y-84502463D01*
X142652816Y-84517509D01*
X142644481Y-84532633D01*
X142636329Y-84547841D01*
X142628340Y-84563135D01*
X142620496Y-84578521D01*
X142605163Y-84609585D01*
X142585378Y-84650047D01*
X142569862Y-84680704D01*
X142563291Y-84692879D01*
X142557292Y-84703232D01*
X142551699Y-84711972D01*
X142546347Y-84719308D01*
X142541071Y-84725450D01*
X142535706Y-84730608D01*
X142530086Y-84734990D01*
X142524046Y-84738807D01*
X142517421Y-84742268D01*
X142510046Y-84745582D01*
X142492384Y-84752609D01*
X142480498Y-84754207D01*
X142476164Y-84754708D01*
X142472264Y-84755060D01*
X142468315Y-84755297D01*
X142463837Y-84755456D01*
X142451374Y-84755684D01*
X142430356Y-84756389D01*
X142425537Y-84755365D01*
X142421119Y-84754192D01*
X142417058Y-84752867D01*
X142413313Y-84751384D01*
X142409841Y-84749741D01*
X142406600Y-84747932D01*
X142403547Y-84745953D01*
X142400641Y-84743801D01*
X142397838Y-84741470D01*
X142395096Y-84738956D01*
X142392373Y-84736256D01*
X142389626Y-84733364D01*
X142383892Y-84726990D01*
X142377555Y-84719800D01*
X142370084Y-84707906D01*
X142367402Y-84703530D01*
X142365040Y-84699542D01*
X142362711Y-84695447D01*
X142360127Y-84690751D01*
X142353045Y-84677572D01*
X142339679Y-84652760D01*
X142325780Y-84626501D01*
X142311320Y-84599523D01*
X142293221Y-84565342D01*
X142275389Y-84531047D01*
X142257863Y-84496595D01*
X142240683Y-84461947D01*
X142228171Y-84437136D01*
X142215193Y-84412602D01*
X142201819Y-84388302D01*
X142188120Y-84364188D01*
X142178920Y-84348517D01*
X142377256Y-84348517D01*
X142377430Y-84354187D01*
X142377865Y-84359877D01*
X142378531Y-84365582D01*
X142379399Y-84371299D01*
X142380440Y-84377023D01*
X142382926Y-84388479D01*
X142385757Y-84399919D01*
X142389794Y-84404527D01*
X142393709Y-84408704D01*
X142397536Y-84412483D01*
X142401313Y-84415897D01*
X142405073Y-84418979D01*
X142408852Y-84421762D01*
X142412686Y-84424279D01*
X142416610Y-84426563D01*
X142420659Y-84428647D01*
X142424869Y-84430565D01*
X142429274Y-84432348D01*
X142433911Y-84434031D01*
X142438814Y-84435647D01*
X142444018Y-84437227D01*
X142455475Y-84440417D01*
X142461398Y-84440472D01*
X142466878Y-84440406D01*
X142471965Y-84440199D01*
X142476710Y-84439833D01*
X142481162Y-84439291D01*
X142485373Y-84438552D01*
X142489391Y-84437599D01*
X142493267Y-84436414D01*
X142497052Y-84434976D01*
X142500795Y-84433270D01*
X142504547Y-84431274D01*
X142508358Y-84428972D01*
X142512278Y-84426344D01*
X142516357Y-84423373D01*
X142520645Y-84420038D01*
X142525193Y-84416323D01*
X142528996Y-84411748D01*
X142532436Y-84407310D01*
X142535525Y-84402977D01*
X142538275Y-84398719D01*
X142540698Y-84394503D01*
X142542807Y-84390299D01*
X142544613Y-84386076D01*
X142546129Y-84381801D01*
X142547368Y-84377443D01*
X142548340Y-84372971D01*
X142549060Y-84368355D01*
X142549539Y-84363561D01*
X142549788Y-84358559D01*
X142549821Y-84353318D01*
X142549650Y-84347806D01*
X142549286Y-84341992D01*
X142547773Y-84334328D01*
X142546978Y-84330781D01*
X142546143Y-84327392D01*
X142545259Y-84324133D01*
X142544314Y-84320981D01*
X142543298Y-84317909D01*
X142542202Y-84314892D01*
X142541015Y-84311905D01*
X142539727Y-84308923D01*
X142538327Y-84305920D01*
X142536805Y-84302870D01*
X142535151Y-84299749D01*
X142533355Y-84296531D01*
X142529294Y-84289703D01*
X142518898Y-84283622D01*
X142508778Y-84278550D01*
X142503815Y-84276390D01*
X142498915Y-84274480D01*
X142494074Y-84272819D01*
X142489291Y-84271405D01*
X142484563Y-84270239D01*
X142479888Y-84269319D01*
X142475263Y-84268644D01*
X142470687Y-84268214D01*
X142466157Y-84268028D01*
X142461670Y-84268085D01*
X142457225Y-84268384D01*
X142452819Y-84268924D01*
X142448449Y-84269705D01*
X142444114Y-84270725D01*
X142439811Y-84271984D01*
X142435538Y-84273481D01*
X142431293Y-84275215D01*
X142427073Y-84277185D01*
X142422876Y-84279390D01*
X142418699Y-84281831D01*
X142414541Y-84284505D01*
X142410400Y-84287411D01*
X142402155Y-84293920D01*
X142393947Y-84301351D01*
X142385757Y-84309696D01*
X142383298Y-84315121D01*
X142381303Y-84320593D01*
X142379741Y-84326108D01*
X142378584Y-84331661D01*
X142377804Y-84337250D01*
X142377371Y-84342870D01*
X142377256Y-84348517D01*
X142178920Y-84348517D01*
X142160031Y-84316338D01*
X142131493Y-84268686D01*
X142094621Y-84205549D01*
X142058736Y-84141886D01*
X142023501Y-84077856D01*
X141988581Y-84013620D01*
X141939068Y-83922797D01*
X141872807Y-83800847D01*
X141999491Y-83800847D01*
X142000399Y-83810843D01*
X142000970Y-83815557D01*
X142001636Y-83820110D01*
X142002408Y-83824526D01*
X142003298Y-83828826D01*
X142004317Y-83833033D01*
X142005478Y-83837169D01*
X142006792Y-83841256D01*
X142008272Y-83845316D01*
X142009928Y-83849373D01*
X142011773Y-83853447D01*
X142013819Y-83857562D01*
X142016077Y-83861740D01*
X142018559Y-83866002D01*
X142021277Y-83870372D01*
X142026475Y-83873573D01*
X142031615Y-83876474D01*
X142036713Y-83879084D01*
X142041787Y-83881416D01*
X142046853Y-83883479D01*
X142051929Y-83885283D01*
X142057030Y-83886839D01*
X142062174Y-83888157D01*
X142067377Y-83889247D01*
X142072657Y-83890121D01*
X142078030Y-83890788D01*
X142083514Y-83891259D01*
X142089124Y-83891545D01*
X142094879Y-83891655D01*
X142100794Y-83891599D01*
X142106886Y-83891390D01*
X142112551Y-83889276D01*
X142117713Y-83887136D01*
X142122419Y-83884944D01*
X142126719Y-83882675D01*
X142130661Y-83880304D01*
X142134294Y-83877804D01*
X142137667Y-83875150D01*
X142140827Y-83872317D01*
X142143824Y-83869279D01*
X142146705Y-83866011D01*
X142149521Y-83862486D01*
X142152318Y-83858680D01*
X142155146Y-83854566D01*
X142158054Y-83850120D01*
X142164301Y-83840127D01*
X142167862Y-83829953D01*
X142169263Y-83825721D01*
X142170412Y-83821938D01*
X142171309Y-83818516D01*
X142171957Y-83815365D01*
X142172354Y-83812396D01*
X142172459Y-83810952D01*
X142172502Y-83809520D01*
X142172483Y-83808089D01*
X142172402Y-83806647D01*
X142172055Y-83803689D01*
X142171460Y-83800554D01*
X142170620Y-83797155D01*
X142169535Y-83793402D01*
X142168204Y-83789205D01*
X142164814Y-83779124D01*
X142161308Y-83773638D01*
X142157847Y-83768521D01*
X142154403Y-83763743D01*
X142150949Y-83759276D01*
X142147457Y-83755090D01*
X142143900Y-83751155D01*
X142140250Y-83747442D01*
X142136479Y-83743922D01*
X142132561Y-83740564D01*
X142128467Y-83737340D01*
X142124171Y-83734219D01*
X142119644Y-83731173D01*
X142114859Y-83728173D01*
X142109790Y-83725188D01*
X142104407Y-83722189D01*
X142098685Y-83719146D01*
X142092995Y-83719246D01*
X142087627Y-83719543D01*
X142082544Y-83720036D01*
X142077707Y-83720725D01*
X142073077Y-83721608D01*
X142068616Y-83722683D01*
X142064286Y-83723950D01*
X142060048Y-83725407D01*
X142055865Y-83727052D01*
X142051697Y-83728886D01*
X142047506Y-83730905D01*
X142043253Y-83733110D01*
X142034412Y-83738069D01*
X142024866Y-83743752D01*
X142021833Y-83747231D01*
X142019016Y-83750593D01*
X142016408Y-83753866D01*
X142014005Y-83757078D01*
X142011802Y-83760255D01*
X142009796Y-83763427D01*
X142007981Y-83766619D01*
X142006352Y-83769860D01*
X142004906Y-83773177D01*
X142003637Y-83776599D01*
X142002540Y-83780151D01*
X142001612Y-83783862D01*
X142000848Y-83787760D01*
X142000243Y-83791871D01*
X141999792Y-83796225D01*
X141999491Y-83800847D01*
X141872807Y-83800847D01*
X141823402Y-83709919D01*
X141771638Y-83614152D01*
X141735907Y-83548802D01*
X141699581Y-83483784D01*
X141646032Y-83389012D01*
X141637683Y-83374353D01*
X141629488Y-83359644D01*
X141613521Y-83330059D01*
X141598045Y-83300219D01*
X141582978Y-83270082D01*
X141571859Y-83247766D01*
X141560525Y-83225587D01*
X141537304Y-83181563D01*
X141523299Y-83155866D01*
X141648007Y-83155866D01*
X141648082Y-83160892D01*
X141650015Y-83166881D01*
X141652046Y-83172547D01*
X141654187Y-83177922D01*
X141656449Y-83183036D01*
X141658842Y-83187920D01*
X141661376Y-83192604D01*
X141664061Y-83197119D01*
X141666909Y-83201496D01*
X141669929Y-83205766D01*
X141673133Y-83209959D01*
X141676530Y-83214106D01*
X141680131Y-83218237D01*
X141683946Y-83222384D01*
X141687986Y-83226577D01*
X141696782Y-83235223D01*
X141702361Y-83237166D01*
X141707590Y-83238822D01*
X141712520Y-83240195D01*
X141717200Y-83241290D01*
X141721681Y-83242111D01*
X141726013Y-83242662D01*
X141730246Y-83242946D01*
X141734429Y-83242969D01*
X141738614Y-83242733D01*
X141742850Y-83242243D01*
X141747186Y-83241504D01*
X141751674Y-83240518D01*
X141756363Y-83239291D01*
X141761304Y-83237825D01*
X141766546Y-83236126D01*
X141772139Y-83234198D01*
X141781307Y-83227948D01*
X141785388Y-83225016D01*
X141789166Y-83222155D01*
X141792666Y-83219323D01*
X141795912Y-83216476D01*
X141798929Y-83213573D01*
X141801741Y-83210569D01*
X141804373Y-83207423D01*
X141806849Y-83204091D01*
X141809195Y-83200531D01*
X141811433Y-83196700D01*
X141813590Y-83192555D01*
X141815689Y-83188053D01*
X141817756Y-83183152D01*
X141819814Y-83177809D01*
X141820036Y-83171243D01*
X141820123Y-83164824D01*
X141820061Y-83158541D01*
X141819833Y-83152380D01*
X141819425Y-83146330D01*
X141818822Y-83140377D01*
X141818009Y-83134509D01*
X141816972Y-83128714D01*
X141815695Y-83122980D01*
X141814164Y-83117293D01*
X141812363Y-83111642D01*
X141810278Y-83106015D01*
X141807893Y-83100397D01*
X141805195Y-83094778D01*
X141802167Y-83089145D01*
X141798796Y-83083485D01*
X141789587Y-83078156D01*
X141780555Y-83073622D01*
X141771684Y-83069887D01*
X141762959Y-83066954D01*
X141758647Y-83065790D01*
X141754365Y-83064828D01*
X141750111Y-83064068D01*
X141745884Y-83063512D01*
X141741682Y-83063159D01*
X141737503Y-83063010D01*
X141733345Y-83063065D01*
X141729206Y-83063326D01*
X141725084Y-83063792D01*
X141720977Y-83064465D01*
X141716883Y-83065344D01*
X141712800Y-83066430D01*
X141708726Y-83067723D01*
X141704660Y-83069224D01*
X141700599Y-83070934D01*
X141696542Y-83072853D01*
X141692486Y-83074982D01*
X141688430Y-83077320D01*
X141680308Y-83082629D01*
X141672161Y-83088783D01*
X141663974Y-83095788D01*
X141661426Y-83100119D01*
X141659151Y-83104253D01*
X141657133Y-83108224D01*
X141655360Y-83112067D01*
X141653817Y-83115817D01*
X141652490Y-83119509D01*
X141651366Y-83123178D01*
X141650431Y-83126858D01*
X141649671Y-83130585D01*
X141649072Y-83134392D01*
X141648620Y-83138316D01*
X141648301Y-83142390D01*
X141648102Y-83146650D01*
X141648008Y-83151131D01*
X141648007Y-83155866D01*
X141523299Y-83155866D01*
X141513483Y-83137856D01*
X141489231Y-83094314D01*
X141453882Y-83030571D01*
X141418937Y-82966605D01*
X141406449Y-82943677D01*
X141381266Y-82897416D01*
X141319487Y-82784109D01*
X141246821Y-82650793D01*
X141223112Y-82607251D01*
X141217706Y-82597322D01*
X141354448Y-82597322D01*
X141354480Y-82601778D01*
X141354804Y-82606391D01*
X141355410Y-82611221D01*
X141356292Y-82616328D01*
X141357439Y-82621771D01*
X141358844Y-82627612D01*
X141360497Y-82633908D01*
X141364015Y-82639620D01*
X141367388Y-82644833D01*
X141370664Y-82649584D01*
X141373890Y-82653908D01*
X141377114Y-82657841D01*
X141380384Y-82661421D01*
X141383747Y-82664682D01*
X141387252Y-82667661D01*
X141390947Y-82670395D01*
X141394878Y-82672919D01*
X141399093Y-82675269D01*
X141403641Y-82677482D01*
X141408570Y-82679594D01*
X141413926Y-82681640D01*
X141419758Y-82683658D01*
X141426114Y-82685684D01*
X141438357Y-82685526D01*
X141443928Y-82685291D01*
X141449189Y-82684915D01*
X141454183Y-82684375D01*
X141458950Y-82683642D01*
X141463535Y-82682693D01*
X141467978Y-82681499D01*
X141472322Y-82680036D01*
X141476610Y-82678277D01*
X141480884Y-82676196D01*
X141485186Y-82673767D01*
X141489558Y-82670964D01*
X141494043Y-82667762D01*
X141498683Y-82664133D01*
X141503521Y-82660052D01*
X141506377Y-82654605D01*
X141508888Y-82649398D01*
X141511070Y-82644392D01*
X141512937Y-82639546D01*
X141514505Y-82634819D01*
X141515789Y-82630171D01*
X141516804Y-82625560D01*
X141517565Y-82620947D01*
X141518088Y-82616290D01*
X141518387Y-82611549D01*
X141518477Y-82606683D01*
X141518375Y-82601651D01*
X141518094Y-82596413D01*
X141517651Y-82590929D01*
X141517060Y-82585157D01*
X141516336Y-82579057D01*
X141512500Y-82570719D01*
X141510603Y-82566862D01*
X141508691Y-82563191D01*
X141506743Y-82559688D01*
X141504738Y-82556335D01*
X141502655Y-82553115D01*
X141500472Y-82550012D01*
X141498168Y-82547007D01*
X141495721Y-82544083D01*
X141493111Y-82541224D01*
X141490317Y-82538411D01*
X141487316Y-82535628D01*
X141484088Y-82532857D01*
X141480611Y-82530080D01*
X141476864Y-82527281D01*
X141468383Y-82524799D01*
X141460289Y-82522819D01*
X141452549Y-82521354D01*
X141445128Y-82520414D01*
X141437993Y-82520013D01*
X141431110Y-82520161D01*
X141424445Y-82520871D01*
X141421184Y-82521440D01*
X141417964Y-82522154D01*
X141414783Y-82523014D01*
X141411634Y-82524021D01*
X141405421Y-82526485D01*
X141399291Y-82529557D01*
X141393209Y-82533249D01*
X141387143Y-82537573D01*
X141381059Y-82542540D01*
X141374922Y-82548162D01*
X141368699Y-82554450D01*
X141365720Y-82560177D01*
X141363110Y-82565524D01*
X141360860Y-82570550D01*
X141358962Y-82575316D01*
X141357407Y-82579880D01*
X141356187Y-82584303D01*
X141355293Y-82588645D01*
X141354716Y-82592964D01*
X141354448Y-82597322D01*
X141217706Y-82597322D01*
X141211065Y-82585126D01*
X141175618Y-82520416D01*
X141139938Y-82455833D01*
X141098564Y-82380916D01*
X141057580Y-82305815D01*
X141017149Y-82230415D01*
X140977434Y-82154601D01*
X140953700Y-82109260D01*
X140929604Y-82064126D01*
X140880631Y-81974263D01*
X140858926Y-81934219D01*
X140837571Y-81894008D01*
X140816482Y-81853655D01*
X140795578Y-81813187D01*
X140793673Y-81809567D01*
X140925018Y-81809567D01*
X140925861Y-81820394D01*
X140926386Y-81825539D01*
X140926999Y-81830532D01*
X140927716Y-81835394D01*
X140928552Y-81840144D01*
X140929523Y-81844802D01*
X140930642Y-81849390D01*
X140931927Y-81853928D01*
X140933391Y-81858435D01*
X140935050Y-81862932D01*
X140936920Y-81867440D01*
X140939015Y-81871979D01*
X140941351Y-81876568D01*
X140943942Y-81881228D01*
X140946804Y-81885981D01*
X140952011Y-81889062D01*
X140957163Y-81891865D01*
X140962277Y-81894398D01*
X140967369Y-81896668D01*
X140972453Y-81898684D01*
X140977546Y-81900454D01*
X140982663Y-81901988D01*
X140987820Y-81903292D01*
X140993034Y-81904376D01*
X140998319Y-81905247D01*
X141003691Y-81905915D01*
X141009167Y-81906387D01*
X141014761Y-81906672D01*
X141020490Y-81906778D01*
X141026369Y-81906713D01*
X141032414Y-81906486D01*
X141038649Y-81903854D01*
X141044488Y-81901102D01*
X141049953Y-81898213D01*
X141055069Y-81895172D01*
X141059860Y-81891962D01*
X141064351Y-81888566D01*
X141068564Y-81884970D01*
X141072526Y-81881156D01*
X141076259Y-81877108D01*
X141079788Y-81872810D01*
X141083137Y-81868246D01*
X141086330Y-81863400D01*
X141089392Y-81858256D01*
X141092347Y-81852796D01*
X141095218Y-81847006D01*
X141098030Y-81840869D01*
X141099006Y-81834706D01*
X141099745Y-81829003D01*
X141100239Y-81823703D01*
X141100483Y-81818746D01*
X141100467Y-81814076D01*
X141100185Y-81809634D01*
X141099630Y-81805362D01*
X141098794Y-81801202D01*
X141097670Y-81797096D01*
X141096250Y-81792987D01*
X141094528Y-81788815D01*
X141092495Y-81784524D01*
X141090144Y-81780055D01*
X141087469Y-81775350D01*
X141084461Y-81770351D01*
X141081113Y-81765000D01*
X141077372Y-81761115D01*
X141073610Y-81757449D01*
X141069827Y-81754003D01*
X141066023Y-81750776D01*
X141062198Y-81747769D01*
X141058351Y-81744981D01*
X141054483Y-81742415D01*
X141050593Y-81740068D01*
X141046681Y-81737943D01*
X141042747Y-81736039D01*
X141038791Y-81734356D01*
X141034813Y-81732895D01*
X141030813Y-81731656D01*
X141026790Y-81730639D01*
X141022745Y-81729845D01*
X141018676Y-81729273D01*
X141014586Y-81728925D01*
X141010472Y-81728799D01*
X141006335Y-81728898D01*
X141002174Y-81729220D01*
X140997991Y-81729766D01*
X140993784Y-81730537D01*
X140989553Y-81731532D01*
X140985299Y-81732753D01*
X140981020Y-81734198D01*
X140976718Y-81735869D01*
X140972392Y-81737766D01*
X140968041Y-81739889D01*
X140963666Y-81742238D01*
X140959266Y-81744814D01*
X140954842Y-81747617D01*
X140950393Y-81750646D01*
X140947196Y-81754226D01*
X140944254Y-81757684D01*
X140941558Y-81761050D01*
X140939100Y-81764353D01*
X140936872Y-81767622D01*
X140934864Y-81770885D01*
X140933068Y-81774172D01*
X140931475Y-81777510D01*
X140930077Y-81780930D01*
X140928865Y-81784460D01*
X140927831Y-81788129D01*
X140926965Y-81791965D01*
X140926259Y-81795999D01*
X140925705Y-81800257D01*
X140925294Y-81804770D01*
X140925018Y-81809567D01*
X140793673Y-81809567D01*
X140770098Y-81764762D01*
X140743909Y-81716812D01*
X140717027Y-81669247D01*
X140689464Y-81621976D01*
X140667709Y-81584767D01*
X140646317Y-81547381D01*
X140604429Y-81472150D01*
X140563424Y-81396429D01*
X140522927Y-81320365D01*
X140499510Y-81276550D01*
X140475922Y-81232826D01*
X140464149Y-81211054D01*
X140604619Y-81211054D01*
X140604661Y-81214398D01*
X140604820Y-81218163D01*
X140605393Y-81227251D01*
X140607612Y-81234870D01*
X140608567Y-81237996D01*
X140609461Y-81240733D01*
X140610326Y-81243133D01*
X140611193Y-81245244D01*
X140612094Y-81247118D01*
X140613060Y-81248805D01*
X140614123Y-81250355D01*
X140615314Y-81251818D01*
X140616665Y-81253245D01*
X140618208Y-81254686D01*
X140619973Y-81256192D01*
X140621993Y-81257812D01*
X140626923Y-81261597D01*
X140632554Y-81262974D01*
X140638047Y-81264182D01*
X140643422Y-81265226D01*
X140648703Y-81266114D01*
X140653909Y-81266850D01*
X140659064Y-81267442D01*
X140664188Y-81267895D01*
X140669304Y-81268215D01*
X140674433Y-81268408D01*
X140679597Y-81268481D01*
X140690117Y-81268289D01*
X140701038Y-81267687D01*
X140712532Y-81266723D01*
X140718548Y-81262517D01*
X140721007Y-81260737D01*
X140723148Y-81259109D01*
X140725006Y-81257585D01*
X140726619Y-81256116D01*
X140727344Y-81255388D01*
X140728021Y-81254655D01*
X140728655Y-81253912D01*
X140729249Y-81253154D01*
X140729810Y-81252373D01*
X140730340Y-81251563D01*
X140730845Y-81250720D01*
X140731328Y-81249837D01*
X140732251Y-81247925D01*
X140733144Y-81245781D01*
X140734043Y-81243356D01*
X140734985Y-81240602D01*
X140737139Y-81233915D01*
X140736895Y-81229758D01*
X140736575Y-81225795D01*
X140736170Y-81222003D01*
X140735673Y-81218362D01*
X140735077Y-81214850D01*
X140734372Y-81211445D01*
X140733553Y-81208125D01*
X140732610Y-81204870D01*
X140731536Y-81201657D01*
X140730324Y-81198465D01*
X140728966Y-81195273D01*
X140727453Y-81192059D01*
X140725779Y-81188801D01*
X140723936Y-81185478D01*
X140721915Y-81182069D01*
X140719709Y-81178551D01*
X140713222Y-81174426D01*
X140706881Y-81170811D01*
X140700666Y-81167711D01*
X140694558Y-81165132D01*
X140688535Y-81163081D01*
X140685550Y-81162255D01*
X140682579Y-81161563D01*
X140679620Y-81161005D01*
X140676670Y-81160584D01*
X140673727Y-81160298D01*
X140670788Y-81160150D01*
X140667851Y-81160139D01*
X140664912Y-81160267D01*
X140661971Y-81160534D01*
X140659024Y-81160941D01*
X140656069Y-81161489D01*
X140653103Y-81162178D01*
X140650124Y-81163009D01*
X140647129Y-81163984D01*
X140644116Y-81165102D01*
X140641083Y-81166364D01*
X140634944Y-81169325D01*
X140628693Y-81172873D01*
X140622309Y-81177013D01*
X140616120Y-81184605D01*
X140613623Y-81187782D01*
X140611492Y-81190645D01*
X140609701Y-81193267D01*
X140608925Y-81194510D01*
X140608226Y-81195721D01*
X140607599Y-81196908D01*
X140607041Y-81198082D01*
X140606551Y-81199250D01*
X140606124Y-81200422D01*
X140605757Y-81201608D01*
X140605447Y-81202816D01*
X140605192Y-81204056D01*
X140604988Y-81205337D01*
X140604831Y-81206668D01*
X140604720Y-81208058D01*
X140604619Y-81211054D01*
X140464149Y-81211054D01*
X140460414Y-81204146D01*
X140431547Y-81150873D01*
X140411855Y-81113966D01*
X140392536Y-81076895D01*
X140373540Y-81039657D01*
X140354815Y-81002250D01*
X140343165Y-80979574D01*
X140331196Y-80957091D01*
X140318966Y-80934750D01*
X140306529Y-80912496D01*
X140296209Y-80894033D01*
X140261418Y-80832013D01*
X140205028Y-80731537D01*
X140190322Y-80705337D01*
X140135574Y-80606626D01*
X140111075Y-80561575D01*
X140286922Y-80561575D01*
X140286990Y-80565477D01*
X140287231Y-80569354D01*
X140287634Y-80573228D01*
X140288191Y-80577125D01*
X140288891Y-80581069D01*
X140289726Y-80585084D01*
X140290686Y-80589196D01*
X140291763Y-80593429D01*
X140294226Y-80602355D01*
X140300876Y-80612243D01*
X140304195Y-80616954D01*
X140307547Y-80621498D01*
X140310956Y-80625867D01*
X140314450Y-80630051D01*
X140318054Y-80634041D01*
X140321796Y-80637828D01*
X140325702Y-80641405D01*
X140329797Y-80644760D01*
X140334110Y-80647887D01*
X140338665Y-80650775D01*
X140343489Y-80653417D01*
X140348609Y-80655802D01*
X140354052Y-80657922D01*
X140359843Y-80659769D01*
X140366147Y-80659606D01*
X140372102Y-80659341D01*
X140377750Y-80658955D01*
X140383127Y-80658431D01*
X140388274Y-80657749D01*
X140393229Y-80656892D01*
X140398032Y-80655841D01*
X140402721Y-80654578D01*
X140407336Y-80653086D01*
X140411916Y-80651344D01*
X140416499Y-80649336D01*
X140421125Y-80647042D01*
X140425833Y-80644445D01*
X140430662Y-80641526D01*
X140435651Y-80638267D01*
X140440838Y-80634650D01*
X140444999Y-80628730D01*
X140448686Y-80623114D01*
X140451929Y-80617746D01*
X140454756Y-80612568D01*
X140457195Y-80607527D01*
X140459275Y-80602564D01*
X140461022Y-80597624D01*
X140462466Y-80592651D01*
X140463634Y-80587589D01*
X140464556Y-80582382D01*
X140465258Y-80576973D01*
X140465769Y-80571306D01*
X140466112Y-80565423D01*
X140950207Y-80565423D01*
X140950236Y-80570880D01*
X140950480Y-80576472D01*
X140950916Y-80582227D01*
X140951521Y-80588173D01*
X140953148Y-80600753D01*
X140955067Y-80606615D01*
X140957125Y-80611977D01*
X140959335Y-80616883D01*
X140961711Y-80621379D01*
X140962964Y-80623488D01*
X140964264Y-80625511D01*
X140967009Y-80629322D01*
X140969957Y-80632859D01*
X140973123Y-80636166D01*
X140976518Y-80639288D01*
X140980156Y-80642271D01*
X140984050Y-80645160D01*
X140988212Y-80647999D01*
X140992656Y-80650835D01*
X140997395Y-80653712D01*
X141007807Y-80659769D01*
X141014508Y-80660887D01*
X141020758Y-80661755D01*
X141026614Y-80662366D01*
X141032135Y-80662714D01*
X141037375Y-80662792D01*
X141042394Y-80662593D01*
X141047248Y-80662110D01*
X141051993Y-80661337D01*
X141056687Y-80660267D01*
X141061387Y-80658892D01*
X141066150Y-80657207D01*
X141071033Y-80655203D01*
X141076092Y-80652876D01*
X141081386Y-80650217D01*
X141086971Y-80647220D01*
X141092904Y-80643878D01*
X141097387Y-80639430D01*
X141101409Y-80634966D01*
X141104996Y-80630469D01*
X141108176Y-80625926D01*
X141110973Y-80621322D01*
X141113415Y-80616644D01*
X141115526Y-80611876D01*
X141117334Y-80607003D01*
X141118865Y-80602013D01*
X141120145Y-80596890D01*
X141121199Y-80591620D01*
X141122055Y-80586189D01*
X141122739Y-80580582D01*
X141123275Y-80574785D01*
X141123692Y-80568783D01*
X141124014Y-80562562D01*
X141123578Y-80557883D01*
X141123018Y-80553460D01*
X141122326Y-80549265D01*
X141121496Y-80545275D01*
X141120519Y-80541462D01*
X141119389Y-80537801D01*
X141118098Y-80534268D01*
X141116638Y-80530835D01*
X141115004Y-80527477D01*
X141113186Y-80524170D01*
X141111178Y-80520886D01*
X141108973Y-80517600D01*
X141106563Y-80514288D01*
X141103941Y-80510922D01*
X141101099Y-80507478D01*
X141098030Y-80503930D01*
X141094228Y-80501071D01*
X141090536Y-80498389D01*
X141086931Y-80495878D01*
X141083388Y-80493531D01*
X141079883Y-80491341D01*
X141076394Y-80489302D01*
X141072894Y-80487407D01*
X141069362Y-80485649D01*
X141065772Y-80484022D01*
X141062100Y-80482519D01*
X141058324Y-80481134D01*
X141054419Y-80479859D01*
X141050360Y-80478689D01*
X141046125Y-80477615D01*
X141041689Y-80476633D01*
X141037027Y-80475735D01*
X141031621Y-80476771D01*
X141026473Y-80477985D01*
X141021558Y-80479375D01*
X141016848Y-80480936D01*
X141012318Y-80482667D01*
X141007942Y-80484565D01*
X141003692Y-80486627D01*
X140999542Y-80488851D01*
X140995467Y-80491233D01*
X140991439Y-80493772D01*
X140987433Y-80496464D01*
X140983422Y-80499307D01*
X140975278Y-80505434D01*
X140966797Y-80512132D01*
X140963413Y-80517777D01*
X140960473Y-80523277D01*
X140957955Y-80528661D01*
X140955836Y-80533955D01*
X140954092Y-80539189D01*
X140952702Y-80544389D01*
X140951641Y-80549585D01*
X140950886Y-80554804D01*
X140950416Y-80560074D01*
X140950207Y-80565423D01*
X140466112Y-80565423D01*
X140466118Y-80565326D01*
X140466332Y-80558975D01*
X140466470Y-80544940D01*
X140464377Y-80539609D01*
X140462283Y-80534715D01*
X140460162Y-80530217D01*
X140457988Y-80526073D01*
X140455736Y-80522243D01*
X140453378Y-80518686D01*
X140450890Y-80515360D01*
X140448244Y-80512224D01*
X140445414Y-80509238D01*
X140442376Y-80506360D01*
X140439101Y-80503549D01*
X140435565Y-80500764D01*
X140431741Y-80497964D01*
X140427604Y-80495108D01*
X140423126Y-80492155D01*
X140418283Y-80489063D01*
X140407545Y-80485345D01*
X140402404Y-80483844D01*
X140397409Y-80482581D01*
X140392551Y-80481553D01*
X140387825Y-80480759D01*
X140383224Y-80480196D01*
X140378742Y-80479864D01*
X140374374Y-80479759D01*
X140370111Y-80479881D01*
X140365950Y-80480227D01*
X140361882Y-80480797D01*
X140357902Y-80481587D01*
X140354004Y-80482596D01*
X140350181Y-80483823D01*
X140346428Y-80485266D01*
X140342736Y-80486923D01*
X140339102Y-80488791D01*
X140335517Y-80490870D01*
X140331977Y-80493158D01*
X140328474Y-80495652D01*
X140325003Y-80498351D01*
X140318129Y-80504357D01*
X140311306Y-80511162D01*
X140304483Y-80518751D01*
X140297610Y-80527111D01*
X140290638Y-80536225D01*
X140289480Y-80540803D01*
X140288550Y-80545207D01*
X140287839Y-80549461D01*
X140287336Y-80553591D01*
X140287034Y-80557621D01*
X140286922Y-80561575D01*
X140111075Y-80561575D01*
X140081649Y-80507462D01*
X140067212Y-80481080D01*
X140052517Y-80454877D01*
X140037517Y-80428849D01*
X140022164Y-80402988D01*
X140008932Y-80381020D01*
X139998951Y-80364494D01*
X140148944Y-80359172D01*
X140298918Y-80355565D01*
X140448921Y-80353354D01*
X140599004Y-80352219D01*
X140679667Y-80351718D01*
X140760327Y-80350892D01*
X140839284Y-80350114D01*
X140918244Y-80349747D01*
X140948138Y-80349511D01*
X140978029Y-80349104D01*
X140998779Y-80348848D01*
X141019524Y-80348718D01*
X141061021Y-80348713D01*
X141085782Y-80348037D01*
X141103691Y-80348322D01*
G37*
G36*
X141770601Y-80298878D02*
G01*
X141680378Y-80290675D01*
X141680378Y-80331686D01*
X141672256Y-80321497D01*
X141666153Y-80313616D01*
X141663768Y-80310360D01*
X141661779Y-80307464D01*
X141660151Y-80304857D01*
X141658848Y-80302466D01*
X141657832Y-80300219D01*
X141657070Y-80298045D01*
X141656523Y-80295870D01*
X141656156Y-80293623D01*
X141655934Y-80291232D01*
X141655820Y-80288625D01*
X141655772Y-80282473D01*
X141778803Y-80282473D01*
X141770601Y-80298878D01*
G37*
G36*
X143205949Y-82201713D02*
G01*
X143205837Y-82208041D01*
X143205715Y-82210670D01*
X143205533Y-82213023D01*
X143205279Y-82215159D01*
X143204940Y-82217140D01*
X143204506Y-82219024D01*
X143203963Y-82220872D01*
X143203300Y-82222745D01*
X143202505Y-82224701D01*
X143201566Y-82226802D01*
X143200471Y-82229107D01*
X143197764Y-82234569D01*
X143192485Y-82233712D01*
X143188312Y-82232999D01*
X143184860Y-82232334D01*
X143181744Y-82231621D01*
X143178580Y-82230764D01*
X143174983Y-82229667D01*
X143170570Y-82228233D01*
X143164955Y-82226367D01*
X143156753Y-82201761D01*
X143176746Y-82202273D01*
X143183520Y-82202886D01*
X143186295Y-82203093D01*
X143188718Y-82203216D01*
X143190833Y-82203244D01*
X143192682Y-82203163D01*
X143194307Y-82202960D01*
X143195050Y-82202809D01*
X143195753Y-82202623D01*
X143196421Y-82202400D01*
X143197061Y-82202138D01*
X143197677Y-82201837D01*
X143198274Y-82201494D01*
X143198859Y-82201109D01*
X143199436Y-82200678D01*
X143200589Y-82199676D01*
X143201775Y-82198476D01*
X143203038Y-82197065D01*
X143205966Y-82193559D01*
X143205949Y-82201713D01*
G37*
D12*
X145438000Y-57518869D02*
X145438000Y-58280869D01*
X145927857Y-57518869D02*
X145927857Y-58117583D01*
X145927857Y-58117583D02*
X145873428Y-58226441D01*
X145873428Y-58226441D02*
X145764571Y-58280869D01*
X145764571Y-58280869D02*
X145601285Y-58280869D01*
X145601285Y-58280869D02*
X145492428Y-58226441D01*
X145492428Y-58226441D02*
X145438000Y-58172012D01*
X144948142Y-58226441D02*
X144839285Y-58280869D01*
X144839285Y-58280869D02*
X144621571Y-58280869D01*
X144621571Y-58280869D02*
X144512714Y-58226441D01*
X144512714Y-58226441D02*
X144458285Y-58117583D01*
X144458285Y-58117583D02*
X144458285Y-58063155D01*
X144458285Y-58063155D02*
X144512714Y-57954298D01*
X144512714Y-57954298D02*
X144621571Y-57899869D01*
X144621571Y-57899869D02*
X144784857Y-57899869D01*
X144784857Y-57899869D02*
X144893714Y-57845441D01*
X144893714Y-57845441D02*
X144948142Y-57736583D01*
X144948142Y-57736583D02*
X144948142Y-57682155D01*
X144948142Y-57682155D02*
X144893714Y-57573298D01*
X144893714Y-57573298D02*
X144784857Y-57518869D01*
X144784857Y-57518869D02*
X144621571Y-57518869D01*
X144621571Y-57518869D02*
X144512714Y-57573298D01*
X143968428Y-58280869D02*
X143968428Y-57137869D01*
X143968428Y-57573298D02*
X143859571Y-57518869D01*
X143859571Y-57518869D02*
X143641856Y-57518869D01*
X143641856Y-57518869D02*
X143532999Y-57573298D01*
X143532999Y-57573298D02*
X143478571Y-57627726D01*
X143478571Y-57627726D02*
X143424142Y-57736583D01*
X143424142Y-57736583D02*
X143424142Y-58063155D01*
X143424142Y-58063155D02*
X143478571Y-58172012D01*
X143478571Y-58172012D02*
X143532999Y-58226441D01*
X143532999Y-58226441D02*
X143641856Y-58280869D01*
X143641856Y-58280869D02*
X143859571Y-58280869D01*
X143859571Y-58280869D02*
X143968428Y-58226441D01*
X142063428Y-58280869D02*
X142063428Y-57137869D01*
X141573571Y-58280869D02*
X141573571Y-57682155D01*
X141573571Y-57682155D02*
X141627999Y-57573298D01*
X141627999Y-57573298D02*
X141736856Y-57518869D01*
X141736856Y-57518869D02*
X141900142Y-57518869D01*
X141900142Y-57518869D02*
X142008999Y-57573298D01*
X142008999Y-57573298D02*
X142063428Y-57627726D01*
X140593856Y-58226441D02*
X140702713Y-58280869D01*
X140702713Y-58280869D02*
X140920428Y-58280869D01*
X140920428Y-58280869D02*
X141029285Y-58226441D01*
X141029285Y-58226441D02*
X141083713Y-58117583D01*
X141083713Y-58117583D02*
X141083713Y-57682155D01*
X141083713Y-57682155D02*
X141029285Y-57573298D01*
X141029285Y-57573298D02*
X140920428Y-57518869D01*
X140920428Y-57518869D02*
X140702713Y-57518869D01*
X140702713Y-57518869D02*
X140593856Y-57573298D01*
X140593856Y-57573298D02*
X140539428Y-57682155D01*
X140539428Y-57682155D02*
X140539428Y-57791012D01*
X140539428Y-57791012D02*
X141083713Y-57899869D01*
X140049571Y-58280869D02*
X140049571Y-57518869D01*
X140049571Y-57736583D02*
X139995142Y-57627726D01*
X139995142Y-57627726D02*
X139940714Y-57573298D01*
X139940714Y-57573298D02*
X139831856Y-57518869D01*
X139831856Y-57518869D02*
X139722999Y-57518869D01*
X138906571Y-58226441D02*
X139015428Y-58280869D01*
X139015428Y-58280869D02*
X139233143Y-58280869D01*
X139233143Y-58280869D02*
X139342000Y-58226441D01*
X139342000Y-58226441D02*
X139396428Y-58117583D01*
X139396428Y-58117583D02*
X139396428Y-57682155D01*
X139396428Y-57682155D02*
X139342000Y-57573298D01*
X139342000Y-57573298D02*
X139233143Y-57518869D01*
X139233143Y-57518869D02*
X139015428Y-57518869D01*
X139015428Y-57518869D02*
X138906571Y-57573298D01*
X138906571Y-57573298D02*
X138852143Y-57682155D01*
X138852143Y-57682155D02*
X138852143Y-57791012D01*
X138852143Y-57791012D02*
X139396428Y-57899869D01*
X148141714Y-63682869D02*
X147379714Y-64825869D01*
X147379714Y-63682869D02*
X148141714Y-64825869D01*
X146944286Y-64825869D02*
X146944286Y-63682869D01*
X146454428Y-64499298D02*
X145910143Y-64499298D01*
X146563285Y-64825869D02*
X146182285Y-63682869D01*
X146182285Y-63682869D02*
X145801285Y-64825869D01*
X145202571Y-63682869D02*
X144984857Y-63682869D01*
X144984857Y-63682869D02*
X144876000Y-63737298D01*
X144876000Y-63737298D02*
X144767143Y-63846155D01*
X144767143Y-63846155D02*
X144712714Y-64063869D01*
X144712714Y-64063869D02*
X144712714Y-64444869D01*
X144712714Y-64444869D02*
X144767143Y-64662583D01*
X144767143Y-64662583D02*
X144876000Y-64771441D01*
X144876000Y-64771441D02*
X144984857Y-64825869D01*
X144984857Y-64825869D02*
X145202571Y-64825869D01*
X145202571Y-64825869D02*
X145311429Y-64771441D01*
X145311429Y-64771441D02*
X145420286Y-64662583D01*
X145420286Y-64662583D02*
X145474714Y-64444869D01*
X145474714Y-64444869D02*
X145474714Y-64063869D01*
X145474714Y-64063869D02*
X145420286Y-63846155D01*
X145420286Y-63846155D02*
X145311429Y-63737298D01*
X145311429Y-63737298D02*
X145202571Y-63682869D01*
X142698857Y-64825869D02*
X143079857Y-64281583D01*
X143352000Y-64825869D02*
X143352000Y-63682869D01*
X143352000Y-63682869D02*
X142916571Y-63682869D01*
X142916571Y-63682869D02*
X142807714Y-63737298D01*
X142807714Y-63737298D02*
X142753285Y-63791726D01*
X142753285Y-63791726D02*
X142698857Y-63900583D01*
X142698857Y-63900583D02*
X142698857Y-64063869D01*
X142698857Y-64063869D02*
X142753285Y-64172726D01*
X142753285Y-64172726D02*
X142807714Y-64227155D01*
X142807714Y-64227155D02*
X142916571Y-64281583D01*
X142916571Y-64281583D02*
X143352000Y-64281583D01*
X142209000Y-64825869D02*
X142209000Y-63682869D01*
X142209000Y-63682869D02*
X141773571Y-63682869D01*
X141773571Y-63682869D02*
X141664714Y-63737298D01*
X141664714Y-63737298D02*
X141610285Y-63791726D01*
X141610285Y-63791726D02*
X141555857Y-63900583D01*
X141555857Y-63900583D02*
X141555857Y-64063869D01*
X141555857Y-64063869D02*
X141610285Y-64172726D01*
X141610285Y-64172726D02*
X141664714Y-64227155D01*
X141664714Y-64227155D02*
X141773571Y-64281583D01*
X141773571Y-64281583D02*
X142209000Y-64281583D01*
X141120428Y-63791726D02*
X141066000Y-63737298D01*
X141066000Y-63737298D02*
X140957143Y-63682869D01*
X140957143Y-63682869D02*
X140685000Y-63682869D01*
X140685000Y-63682869D02*
X140576143Y-63737298D01*
X140576143Y-63737298D02*
X140521714Y-63791726D01*
X140521714Y-63791726D02*
X140467285Y-63900583D01*
X140467285Y-63900583D02*
X140467285Y-64009441D01*
X140467285Y-64009441D02*
X140521714Y-64172726D01*
X140521714Y-64172726D02*
X141174857Y-64825869D01*
X141174857Y-64825869D02*
X140467285Y-64825869D01*
X139759714Y-63682869D02*
X139650857Y-63682869D01*
X139650857Y-63682869D02*
X139542000Y-63737298D01*
X139542000Y-63737298D02*
X139487572Y-63791726D01*
X139487572Y-63791726D02*
X139433143Y-63900583D01*
X139433143Y-63900583D02*
X139378714Y-64118298D01*
X139378714Y-64118298D02*
X139378714Y-64390441D01*
X139378714Y-64390441D02*
X139433143Y-64608155D01*
X139433143Y-64608155D02*
X139487572Y-64717012D01*
X139487572Y-64717012D02*
X139542000Y-64771441D01*
X139542000Y-64771441D02*
X139650857Y-64825869D01*
X139650857Y-64825869D02*
X139759714Y-64825869D01*
X139759714Y-64825869D02*
X139868572Y-64771441D01*
X139868572Y-64771441D02*
X139923000Y-64717012D01*
X139923000Y-64717012D02*
X139977429Y-64608155D01*
X139977429Y-64608155D02*
X140031857Y-64390441D01*
X140031857Y-64390441D02*
X140031857Y-64118298D01*
X140031857Y-64118298D02*
X139977429Y-63900583D01*
X139977429Y-63900583D02*
X139923000Y-63791726D01*
X139923000Y-63791726D02*
X139868572Y-63737298D01*
X139868572Y-63737298D02*
X139759714Y-63682869D01*
X138399001Y-64063869D02*
X138399001Y-64825869D01*
X138671143Y-63628441D02*
X138943286Y-64444869D01*
X138943286Y-64444869D02*
X138235715Y-64444869D01*
X137582572Y-63682869D02*
X137473715Y-63682869D01*
X137473715Y-63682869D02*
X137364858Y-63737298D01*
X137364858Y-63737298D02*
X137310430Y-63791726D01*
X137310430Y-63791726D02*
X137256001Y-63900583D01*
X137256001Y-63900583D02*
X137201572Y-64118298D01*
X137201572Y-64118298D02*
X137201572Y-64390441D01*
X137201572Y-64390441D02*
X137256001Y-64608155D01*
X137256001Y-64608155D02*
X137310430Y-64717012D01*
X137310430Y-64717012D02*
X137364858Y-64771441D01*
X137364858Y-64771441D02*
X137473715Y-64825869D01*
X137473715Y-64825869D02*
X137582572Y-64825869D01*
X137582572Y-64825869D02*
X137691430Y-64771441D01*
X137691430Y-64771441D02*
X137745858Y-64717012D01*
X137745858Y-64717012D02*
X137800287Y-64608155D01*
X137800287Y-64608155D02*
X137854715Y-64390441D01*
X137854715Y-64390441D02*
X137854715Y-64118298D01*
X137854715Y-64118298D02*
X137800287Y-63900583D01*
X137800287Y-63900583D02*
X137745858Y-63791726D01*
X137745858Y-63791726D02*
X137691430Y-63737298D01*
X137691430Y-63737298D02*
X137582572Y-63682869D01*
X132307142Y-120358453D02*
X132735714Y-120358453D01*
X132735714Y-120358453D02*
X132778571Y-120787024D01*
X132778571Y-120787024D02*
X132735714Y-120744167D01*
X132735714Y-120744167D02*
X132650000Y-120701310D01*
X132650000Y-120701310D02*
X132435714Y-120701310D01*
X132435714Y-120701310D02*
X132350000Y-120744167D01*
X132350000Y-120744167D02*
X132307142Y-120787024D01*
X132307142Y-120787024D02*
X132264285Y-120872738D01*
X132264285Y-120872738D02*
X132264285Y-121087024D01*
X132264285Y-121087024D02*
X132307142Y-121172738D01*
X132307142Y-121172738D02*
X132350000Y-121215596D01*
X132350000Y-121215596D02*
X132435714Y-121258453D01*
X132435714Y-121258453D02*
X132650000Y-121258453D01*
X132650000Y-121258453D02*
X132735714Y-121215596D01*
X132735714Y-121215596D02*
X132778571Y-121172738D01*
X132007142Y-120358453D02*
X131707142Y-121258453D01*
X131707142Y-121258453D02*
X131407142Y-120358453D01*
D13*
G36*
X144222500Y-119489502D02*
G01*
X142645668Y-119489502D01*
X142645668Y-120363922D01*
X142821523Y-120363922D01*
X142821523Y-119838922D01*
X143349087Y-119838922D01*
X143349087Y-120189990D01*
X143524942Y-120189990D01*
X143524942Y-119838922D01*
X144222500Y-119838922D01*
X144222500Y-119489502D01*
G37*
G36*
X143942858Y-120721147D02*
G01*
X144006323Y-120740266D01*
X144064930Y-120772054D01*
X144119643Y-120817572D01*
X144165117Y-120872279D01*
X144196877Y-120930884D01*
X144215981Y-120994352D01*
X144222500Y-121064044D01*
X144222500Y-121415112D01*
X144215936Y-121484808D01*
X144196694Y-121548286D01*
X144164686Y-121606920D01*
X144118818Y-121661675D01*
X144063683Y-121707305D01*
X144005047Y-121739084D01*
X143941981Y-121758140D01*
X143873171Y-121764624D01*
X143348354Y-121764624D01*
X143278672Y-121758110D01*
X143215076Y-121739005D01*
X143156220Y-121707216D01*
X143101150Y-121661675D01*
X143055238Y-121606914D01*
X143023202Y-121548279D01*
X143003946Y-121484803D01*
X142997377Y-121415112D01*
X142997377Y-121239624D01*
X143172500Y-121239624D01*
X143178251Y-121285087D01*
X143195221Y-121325764D01*
X143224157Y-121362997D01*
X143261214Y-121392145D01*
X143302054Y-121409285D01*
X143348080Y-121415112D01*
X143873080Y-121415112D01*
X143918011Y-121409410D01*
X143958298Y-121392569D01*
X143995262Y-121363821D01*
X144024079Y-121327064D01*
X144041106Y-121286149D01*
X144046919Y-121239624D01*
X144041105Y-121193035D01*
X144024078Y-121152059D01*
X143995262Y-121115243D01*
X143958304Y-121086550D01*
X143918017Y-121069737D01*
X143873080Y-121064044D01*
X143348080Y-121064044D01*
X143302023Y-121069828D01*
X143261182Y-121086828D01*
X143224157Y-121115701D01*
X143195284Y-121152726D01*
X143178284Y-121193567D01*
X143172500Y-121239624D01*
X142997377Y-121239624D01*
X142997377Y-121064044D01*
X143003880Y-120994796D01*
X143022967Y-120931522D01*
X143054751Y-120872884D01*
X143100326Y-120817938D01*
X143154997Y-120772331D01*
X143213829Y-120740424D01*
X143277813Y-120721197D01*
X143348354Y-120714624D01*
X143873171Y-120714624D01*
X143942858Y-120721147D01*
G37*
G36*
X144222500Y-122462090D02*
G01*
X144222500Y-122112670D01*
X142997377Y-122112670D01*
X142997377Y-122462090D01*
X143349087Y-122462090D01*
X143235207Y-122485161D01*
X143149241Y-122521847D01*
X143085305Y-122570350D01*
X143047932Y-122616740D01*
X143020645Y-122671485D01*
X143003469Y-122736230D01*
X142997377Y-122813158D01*
X142997377Y-122987090D01*
X143349087Y-122987090D01*
X143349087Y-122637670D01*
X143354828Y-122591583D01*
X143371688Y-122550740D01*
X143400286Y-122513747D01*
X143437008Y-122484835D01*
X143477368Y-122467856D01*
X143522744Y-122462090D01*
X144222500Y-122462090D01*
G37*
G36*
X143943090Y-123168462D02*
G01*
X144006585Y-123187583D01*
X144065206Y-123219372D01*
X144119918Y-123264885D01*
X144165436Y-123319598D01*
X144197224Y-123378205D01*
X144216342Y-123441670D01*
X144222866Y-123511357D01*
X144222866Y-123686937D01*
X144215608Y-123744394D01*
X144195463Y-123788399D01*
X144162740Y-123822269D01*
X144114954Y-123847286D01*
X144047286Y-123862426D01*
X144398354Y-123862426D01*
X144444326Y-123856604D01*
X144485200Y-123839469D01*
X144522369Y-123810310D01*
X144551414Y-123773064D01*
X144568440Y-123732389D01*
X144574209Y-123686937D01*
X144574209Y-123511357D01*
X144566736Y-123451084D01*
X144546258Y-123406246D01*
X144513406Y-123372938D01*
X144465760Y-123349613D01*
X144398354Y-123337426D01*
X144398354Y-123161937D01*
X144514505Y-123185415D01*
X144601595Y-123223111D01*
X144665836Y-123273141D01*
X144711387Y-123335861D01*
X144739857Y-123413813D01*
X144750064Y-123511357D01*
X144750064Y-123862426D01*
X144743550Y-123931254D01*
X144724402Y-123994338D01*
X144692457Y-124052997D01*
X144646566Y-124108164D01*
X144591528Y-124154131D01*
X144532818Y-124186164D01*
X144469486Y-124205389D01*
X144400186Y-124211937D01*
X142997377Y-124211937D01*
X142997377Y-123686937D01*
X143173232Y-123686937D01*
X143173232Y-123862426D01*
X143873812Y-123862426D01*
X143918744Y-123856724D01*
X143959030Y-123839882D01*
X143995995Y-123811135D01*
X144024812Y-123774377D01*
X144041838Y-123733462D01*
X144047652Y-123686937D01*
X144041838Y-123640348D01*
X144024810Y-123599372D01*
X143995995Y-123562556D01*
X143959037Y-123533864D01*
X143918750Y-123517050D01*
X143873812Y-123511357D01*
X143348812Y-123511357D01*
X143302756Y-123517141D01*
X143261914Y-123534142D01*
X143224890Y-123563014D01*
X143196017Y-123600039D01*
X143179017Y-123640881D01*
X143173232Y-123686937D01*
X142997377Y-123686937D01*
X142997377Y-123511357D01*
X143003880Y-123442109D01*
X143022967Y-123378835D01*
X143054751Y-123320198D01*
X143100326Y-123265252D01*
X143155041Y-123219641D01*
X143213905Y-123187735D01*
X143277906Y-123168509D01*
X143348446Y-123161937D01*
X143873354Y-123161937D01*
X143943090Y-123168462D01*
G37*
G36*
X143942858Y-124566507D02*
G01*
X144006323Y-124585625D01*
X144064930Y-124617413D01*
X144119643Y-124662931D01*
X144165117Y-124717639D01*
X144196877Y-124776244D01*
X144215981Y-124839711D01*
X144222500Y-124909403D01*
X144222500Y-125260472D01*
X144212310Y-125357737D01*
X144183870Y-125435564D01*
X144138340Y-125498272D01*
X144074097Y-125548383D01*
X143986981Y-125586245D01*
X143870790Y-125609983D01*
X143870790Y-125434403D01*
X143937504Y-125426571D01*
X143984772Y-125405614D01*
X144017784Y-125372851D01*
X144038808Y-125326154D01*
X144046645Y-125260472D01*
X144046645Y-125084983D01*
X144040795Y-125038419D01*
X144023656Y-124997444D01*
X143994621Y-124960602D01*
X143957427Y-124931922D01*
X143916866Y-124915101D01*
X143871614Y-124909403D01*
X143694935Y-124909403D01*
X143694935Y-125609983D01*
X143346980Y-125609983D01*
X143277587Y-125603474D01*
X143214238Y-125584378D01*
X143155590Y-125552593D01*
X143100692Y-125507035D01*
X143055002Y-125452301D01*
X143023103Y-125393674D01*
X143003922Y-125330187D01*
X142997377Y-125260472D01*
X142997377Y-125084983D01*
X143169660Y-125084983D01*
X143175412Y-125130447D01*
X143192382Y-125171123D01*
X143221318Y-125208356D01*
X143258375Y-125237504D01*
X143299214Y-125254644D01*
X143345240Y-125260472D01*
X143519080Y-125260472D01*
X143519080Y-124909403D01*
X143345240Y-124909403D01*
X143299184Y-124915187D01*
X143258342Y-124932188D01*
X143221318Y-124961060D01*
X143192445Y-124998085D01*
X143175445Y-125038927D01*
X143169660Y-125084983D01*
X142997377Y-125084983D01*
X142997377Y-124909403D01*
X143003880Y-124840155D01*
X143022967Y-124776881D01*
X143054751Y-124718244D01*
X143100326Y-124663298D01*
X143154997Y-124617690D01*
X143213829Y-124585784D01*
X143277813Y-124566556D01*
X143348354Y-124559983D01*
X143873171Y-124559983D01*
X143942858Y-124566507D01*
G37*
G36*
X142997377Y-126832449D02*
G01*
X142997377Y-126658518D01*
X142928537Y-126642617D01*
X142880466Y-126617936D01*
X142848076Y-126585654D01*
X142828485Y-126544879D01*
X142821523Y-126492829D01*
X142827129Y-126433135D01*
X142842317Y-126388045D01*
X142865761Y-126354161D01*
X142898150Y-126329219D01*
X142940974Y-126313290D01*
X142997469Y-126307449D01*
X143039256Y-126312927D01*
X143079835Y-126329653D01*
X143120293Y-126359106D01*
X143536024Y-126729867D01*
X143616842Y-126788276D01*
X143698249Y-126821533D01*
X143782404Y-126832449D01*
X143870790Y-126832449D01*
X143940098Y-126825979D01*
X144003607Y-126806970D01*
X144062626Y-126775294D01*
X144118086Y-126729867D01*
X144164256Y-126675299D01*
X144196487Y-126616697D01*
X144215878Y-126553076D01*
X144222500Y-126483029D01*
X144222500Y-126307449D01*
X144216110Y-126220106D01*
X144198429Y-126149315D01*
X144170971Y-126092002D01*
X144134206Y-126045773D01*
X144087719Y-126009280D01*
X144030044Y-125981985D01*
X143958764Y-125964390D01*
X143870790Y-125958029D01*
X143870790Y-126133518D01*
X143899824Y-126131961D01*
X143945036Y-126138362D01*
X143980772Y-126156523D01*
X144009367Y-126186915D01*
X144037354Y-126244620D01*
X144046645Y-126307449D01*
X144040759Y-126368130D01*
X144025158Y-126411491D01*
X144001490Y-126441996D01*
X143968977Y-126463769D01*
X143926177Y-126477849D01*
X143870057Y-126483029D01*
X143827630Y-126477509D01*
X143786933Y-126460743D01*
X143746867Y-126431372D01*
X143331410Y-126060611D01*
X143250808Y-126002285D01*
X143169131Y-125968987D01*
X143084206Y-125958029D01*
X142995546Y-125958029D01*
X142926128Y-125964513D01*
X142862752Y-125983532D01*
X142804081Y-126015180D01*
X142749166Y-126060520D01*
X142703436Y-126115077D01*
X142671479Y-126173694D01*
X142652240Y-126237353D01*
X142645668Y-126307449D01*
X142645668Y-126483029D01*
X142653556Y-126574417D01*
X142675433Y-126647955D01*
X142709775Y-126707255D01*
X142756707Y-126754872D01*
X142817981Y-126792027D01*
X142896770Y-126818458D01*
X142997377Y-126832449D01*
G37*
G36*
X143942858Y-127189675D02*
G01*
X144006323Y-127208793D01*
X144064930Y-127240581D01*
X144119643Y-127286100D01*
X144165117Y-127340807D01*
X144196877Y-127399412D01*
X144215981Y-127462879D01*
X144222500Y-127532571D01*
X144222500Y-127883640D01*
X144212310Y-127980905D01*
X144183870Y-128058732D01*
X144138340Y-128121441D01*
X144074097Y-128171552D01*
X143986981Y-128209413D01*
X143870790Y-128233151D01*
X143870790Y-128057571D01*
X143937504Y-128049739D01*
X143984772Y-128028783D01*
X144017784Y-127996019D01*
X144038808Y-127949322D01*
X144046645Y-127883640D01*
X144046645Y-127708151D01*
X144040795Y-127661587D01*
X144023656Y-127620612D01*
X143994621Y-127583771D01*
X143957427Y-127555090D01*
X143916866Y-127538270D01*
X143871614Y-127532571D01*
X143694935Y-127532571D01*
X143694935Y-128233151D01*
X143346980Y-128233151D01*
X143277587Y-128226642D01*
X143214238Y-128207546D01*
X143155590Y-128175761D01*
X143100692Y-128130203D01*
X143055002Y-128075469D01*
X143023103Y-128016842D01*
X143003922Y-127953356D01*
X142997377Y-127883640D01*
X142997377Y-127708151D01*
X143169660Y-127708151D01*
X143175412Y-127753615D01*
X143192382Y-127794291D01*
X143221318Y-127831524D01*
X143258375Y-127860672D01*
X143299214Y-127877812D01*
X143345240Y-127883640D01*
X143519080Y-127883640D01*
X143519080Y-127532571D01*
X143345240Y-127532571D01*
X143299184Y-127538356D01*
X143258342Y-127555356D01*
X143221318Y-127584229D01*
X143192445Y-127621253D01*
X143175445Y-127662095D01*
X143169660Y-127708151D01*
X142997377Y-127708151D01*
X142997377Y-127532571D01*
X143003880Y-127463323D01*
X143022967Y-127400049D01*
X143054751Y-127341412D01*
X143100326Y-127286466D01*
X143154997Y-127240858D01*
X143213829Y-127208952D01*
X143277813Y-127189724D01*
X143348354Y-127183151D01*
X143873171Y-127183151D01*
X143942858Y-127189675D01*
G37*
G36*
X144222500Y-128930617D02*
G01*
X144222500Y-128581197D01*
X142997377Y-128581197D01*
X142997377Y-128930617D01*
X143349087Y-128930617D01*
X143235207Y-128953688D01*
X143149241Y-128990375D01*
X143085305Y-129038878D01*
X143047932Y-129085268D01*
X143020645Y-129140012D01*
X143003469Y-129204758D01*
X142997377Y-129281686D01*
X142997377Y-129455617D01*
X143349087Y-129455617D01*
X143349087Y-129106197D01*
X143354828Y-129060111D01*
X143371688Y-129019267D01*
X143400286Y-128982275D01*
X143437008Y-128953362D01*
X143477368Y-128936383D01*
X143522744Y-128930617D01*
X144222500Y-128930617D01*
G37*
G36*
X142821523Y-129630465D02*
G01*
X142645668Y-129630465D01*
X142645668Y-129979885D01*
X142821523Y-129979885D01*
X142821523Y-129630465D01*
G37*
G36*
X144222500Y-129630465D02*
G01*
X142996919Y-129630465D01*
X142996919Y-129979885D01*
X144222500Y-129979885D01*
X144222500Y-129630465D01*
G37*
G36*
X143942858Y-130337477D02*
G01*
X144006323Y-130356595D01*
X144064930Y-130388383D01*
X144119643Y-130433901D01*
X144165117Y-130488609D01*
X144196877Y-130547214D01*
X144215981Y-130610681D01*
X144222500Y-130680373D01*
X144222500Y-131031442D01*
X144212310Y-131128707D01*
X144183870Y-131206534D01*
X144138340Y-131269242D01*
X144074097Y-131319353D01*
X143986981Y-131357215D01*
X143870790Y-131380953D01*
X143870790Y-131205373D01*
X143937504Y-131197541D01*
X143984772Y-131176584D01*
X144017784Y-131143821D01*
X144038808Y-131097124D01*
X144046645Y-131031442D01*
X144046645Y-130855953D01*
X144040795Y-130809389D01*
X144023656Y-130768414D01*
X143994621Y-130731572D01*
X143957427Y-130702892D01*
X143916866Y-130686071D01*
X143871614Y-130680373D01*
X143694935Y-130680373D01*
X143694935Y-131380953D01*
X143346980Y-131380953D01*
X143277587Y-131374444D01*
X143214238Y-131355348D01*
X143155590Y-131323563D01*
X143100692Y-131278005D01*
X143055002Y-131223271D01*
X143023103Y-131164644D01*
X143003922Y-131101157D01*
X142997377Y-131031442D01*
X142997377Y-130855953D01*
X143169660Y-130855953D01*
X143175412Y-130901417D01*
X143192382Y-130942093D01*
X143221318Y-130979326D01*
X143258375Y-131008474D01*
X143299214Y-131025614D01*
X143345240Y-131031442D01*
X143519080Y-131031442D01*
X143519080Y-130680373D01*
X143345240Y-130680373D01*
X143299184Y-130686157D01*
X143258342Y-130703158D01*
X143221318Y-130732030D01*
X143192445Y-130769055D01*
X143175445Y-130809897D01*
X143169660Y-130855953D01*
X142997377Y-130855953D01*
X142997377Y-130680373D01*
X143003880Y-130611125D01*
X143022967Y-130547851D01*
X143054751Y-130489214D01*
X143100326Y-130434268D01*
X143154997Y-130388660D01*
X143213829Y-130356754D01*
X143277813Y-130337526D01*
X143348354Y-130330953D01*
X143873171Y-130330953D01*
X143942858Y-130337477D01*
G37*
G36*
X143349087Y-132603419D02*
G01*
X143349087Y-132429488D01*
X143280247Y-132413587D01*
X143232176Y-132388906D01*
X143199785Y-132356624D01*
X143180195Y-132315849D01*
X143173232Y-132263799D01*
X143177993Y-132202865D01*
X143190701Y-132157566D01*
X143209777Y-132124306D01*
X143237176Y-132098916D01*
X143272511Y-132083237D01*
X143318312Y-132077595D01*
X143348435Y-132086394D01*
X143389900Y-132119979D01*
X143448377Y-132194697D01*
X143529796Y-132332676D01*
X143612499Y-132470006D01*
X143672067Y-132541727D01*
X143714719Y-132571820D01*
X143790089Y-132595452D01*
X143870790Y-132603419D01*
X143941788Y-132596852D01*
X144006053Y-132577661D01*
X144065003Y-132545860D01*
X144119643Y-132500471D01*
X144165117Y-132445764D01*
X144196877Y-132387158D01*
X144215981Y-132323691D01*
X144222500Y-132253999D01*
X144222500Y-132078419D01*
X144214255Y-131979614D01*
X144191674Y-131902153D01*
X144156737Y-131841567D01*
X144109611Y-131794650D01*
X144048634Y-131759801D01*
X143970536Y-131737243D01*
X143870790Y-131728999D01*
X143870790Y-131904579D01*
X143939602Y-131919542D01*
X143987626Y-131943610D01*
X144020010Y-131975538D01*
X144039644Y-132016244D01*
X144046645Y-132068619D01*
X144041850Y-132129529D01*
X144029051Y-132174794D01*
X144009825Y-132208020D01*
X143982145Y-132233481D01*
X143946640Y-132249183D01*
X143900832Y-132254823D01*
X143871425Y-132246154D01*
X143830375Y-132212846D01*
X143771821Y-132138408D01*
X143689531Y-132000567D01*
X143607373Y-131862717D01*
X143547976Y-131790764D01*
X143505250Y-131760598D01*
X143429663Y-131736940D01*
X143349545Y-131728999D01*
X143278275Y-131735597D01*
X143213854Y-131754865D01*
X143154845Y-131786779D01*
X143100234Y-131832314D01*
X143054703Y-131887254D01*
X143022947Y-131945890D01*
X143003876Y-132009166D01*
X142997377Y-132078419D01*
X142997377Y-132253999D01*
X143005266Y-132345387D01*
X143027143Y-132418925D01*
X143061484Y-132478225D01*
X143108416Y-132525842D01*
X143169690Y-132562997D01*
X143248479Y-132589428D01*
X143349087Y-132603419D01*
G37*
G36*
X142645668Y-134166054D02*
G01*
X142645668Y-134515566D01*
X143623769Y-134515566D01*
X143742565Y-134504441D01*
X143851043Y-134471802D01*
X143951494Y-134417476D01*
X144045546Y-134339619D01*
X144123785Y-134246060D01*
X144178419Y-134145756D01*
X144211283Y-134037044D01*
X144222500Y-133917568D01*
X144222500Y-133465566D01*
X142645668Y-133465566D01*
X142645668Y-133814986D01*
X144046645Y-133814986D01*
X144046645Y-133990566D01*
X144040822Y-134037085D01*
X144023768Y-134078000D01*
X143994896Y-134114763D01*
X143957873Y-134143509D01*
X143917525Y-134160352D01*
X143872530Y-134166054D01*
X142645668Y-134166054D01*
G37*
G36*
X142997377Y-135039100D02*
G01*
X142997377Y-134863612D01*
X142881179Y-134887350D01*
X142794061Y-134925206D01*
X142729819Y-134975307D01*
X142684292Y-135037999D01*
X142655856Y-135115801D01*
X142645668Y-135213032D01*
X142645668Y-135564100D01*
X142652222Y-135633806D01*
X142671433Y-135697289D01*
X142703386Y-135755919D01*
X142749166Y-135810663D01*
X142804108Y-135856224D01*
X142862787Y-135888010D01*
X142926152Y-135907104D01*
X142995546Y-135913612D01*
X143084206Y-135913612D01*
X143146720Y-135904470D01*
X143221149Y-135873853D01*
X143311323Y-135814989D01*
X143421156Y-135718904D01*
X143554709Y-135574816D01*
X143575317Y-135551827D01*
X143710226Y-135405849D01*
X143818619Y-135309595D01*
X143905271Y-135251465D01*
X143974663Y-135221751D01*
X144031074Y-135213032D01*
X144046645Y-135213032D01*
X144046645Y-135913612D01*
X144222500Y-135913612D01*
X144222500Y-134863612D01*
X144046736Y-134863612D01*
X143984199Y-134872732D01*
X143909687Y-134903280D01*
X143819360Y-134962010D01*
X143709293Y-135057865D01*
X143575409Y-135201583D01*
X143554892Y-135225305D01*
X143421344Y-135369382D01*
X143311502Y-135465466D01*
X143221306Y-135524334D01*
X143146848Y-135554956D01*
X143084297Y-135564100D01*
X142995637Y-135564100D01*
X142950192Y-135558254D01*
X142909746Y-135541020D01*
X142872905Y-135511619D01*
X142844074Y-135474137D01*
X142827216Y-135433565D01*
X142821523Y-135388612D01*
X142821523Y-135213032D01*
X142828996Y-135152758D01*
X142849474Y-135107921D01*
X142882326Y-135074613D01*
X142929972Y-135051287D01*
X142997377Y-135039100D01*
G37*
D12*
X129537024Y-120364285D02*
X129537024Y-120664285D01*
X130008453Y-120792857D02*
X130008453Y-120364285D01*
X130008453Y-120364285D02*
X129108453Y-120364285D01*
X129108453Y-120364285D02*
X129108453Y-120792857D01*
X129108453Y-121178571D02*
X129837024Y-121178571D01*
X129837024Y-121178571D02*
X129922738Y-121221428D01*
X129922738Y-121221428D02*
X129965596Y-121264286D01*
X129965596Y-121264286D02*
X130008453Y-121350000D01*
X130008453Y-121350000D02*
X130008453Y-121521428D01*
X130008453Y-121521428D02*
X129965596Y-121607143D01*
X129965596Y-121607143D02*
X129922738Y-121650000D01*
X129922738Y-121650000D02*
X129837024Y-121692857D01*
X129837024Y-121692857D02*
X129108453Y-121692857D01*
X130008453Y-122635714D02*
X129579881Y-122335714D01*
X130008453Y-122121428D02*
X129108453Y-122121428D01*
X129108453Y-122121428D02*
X129108453Y-122464285D01*
X129108453Y-122464285D02*
X129151310Y-122550000D01*
X129151310Y-122550000D02*
X129194167Y-122592857D01*
X129194167Y-122592857D02*
X129279881Y-122635714D01*
X129279881Y-122635714D02*
X129408453Y-122635714D01*
X129408453Y-122635714D02*
X129494167Y-122592857D01*
X129494167Y-122592857D02*
X129537024Y-122550000D01*
X129537024Y-122550000D02*
X129579881Y-122464285D01*
X129579881Y-122464285D02*
X129579881Y-122121428D01*
X129108453Y-123192857D02*
X129108453Y-123364285D01*
X129108453Y-123364285D02*
X129151310Y-123450000D01*
X129151310Y-123450000D02*
X129237024Y-123535714D01*
X129237024Y-123535714D02*
X129408453Y-123578571D01*
X129408453Y-123578571D02*
X129708453Y-123578571D01*
X129708453Y-123578571D02*
X129879881Y-123535714D01*
X129879881Y-123535714D02*
X129965596Y-123450000D01*
X129965596Y-123450000D02*
X130008453Y-123364285D01*
X130008453Y-123364285D02*
X130008453Y-123192857D01*
X130008453Y-123192857D02*
X129965596Y-123107143D01*
X129965596Y-123107143D02*
X129879881Y-123021428D01*
X129879881Y-123021428D02*
X129708453Y-122978571D01*
X129708453Y-122978571D02*
X129408453Y-122978571D01*
X129408453Y-122978571D02*
X129237024Y-123021428D01*
X129237024Y-123021428D02*
X129151310Y-123107143D01*
X129151310Y-123107143D02*
X129108453Y-123192857D01*
X135108453Y-120514285D02*
X134208453Y-120514285D01*
X135108453Y-120942856D02*
X134208453Y-120942856D01*
X134208453Y-120942856D02*
X135108453Y-121457142D01*
X135108453Y-121457142D02*
X134208453Y-121457142D01*
X134208453Y-121757142D02*
X134208453Y-122271428D01*
X135108453Y-122014285D02*
X134208453Y-122014285D01*
D13*
G36*
X151081956Y-73685668D02*
G01*
X150732444Y-73685668D01*
X150732444Y-74663769D01*
X150743569Y-74782565D01*
X150776208Y-74891043D01*
X150830534Y-74991494D01*
X150908391Y-75085546D01*
X151001950Y-75163785D01*
X151102254Y-75218419D01*
X151210966Y-75251283D01*
X151330443Y-75262500D01*
X151782444Y-75262500D01*
X151782444Y-73685668D01*
X151433025Y-73685668D01*
X151433025Y-75086645D01*
X151257444Y-75086645D01*
X151210925Y-75080822D01*
X151170011Y-75063768D01*
X151133247Y-75034896D01*
X151104501Y-74997873D01*
X151087659Y-74957525D01*
X151081956Y-74912530D01*
X151081956Y-73685668D01*
G37*
G36*
X150104226Y-74043880D02*
G01*
X150167500Y-74062967D01*
X150226138Y-74094751D01*
X150281084Y-74140326D01*
X150326691Y-74194997D01*
X150358598Y-74253829D01*
X150377826Y-74317813D01*
X150384398Y-74388354D01*
X150384398Y-74913171D01*
X150377875Y-74982858D01*
X150358756Y-75046323D01*
X150326968Y-75104930D01*
X150281450Y-75159643D01*
X150226743Y-75205117D01*
X150168138Y-75236877D01*
X150104670Y-75255981D01*
X150034978Y-75262500D01*
X149683910Y-75262500D01*
X149614214Y-75255936D01*
X149550736Y-75236694D01*
X149492102Y-75204686D01*
X149437347Y-75158818D01*
X149391718Y-75103683D01*
X149359938Y-75045047D01*
X149340882Y-74981981D01*
X149334398Y-74913171D01*
X149334398Y-74388354D01*
X149334424Y-74388080D01*
X149683910Y-74388080D01*
X149683910Y-74913080D01*
X149689612Y-74958011D01*
X149706453Y-74998298D01*
X149735201Y-75035262D01*
X149771958Y-75064079D01*
X149812873Y-75081106D01*
X149859398Y-75086919D01*
X149905987Y-75081105D01*
X149946964Y-75064078D01*
X149983779Y-75035262D01*
X150012472Y-74998304D01*
X150029285Y-74958017D01*
X150034978Y-74913080D01*
X150034978Y-74388080D01*
X150029194Y-74342023D01*
X150012194Y-74301182D01*
X149983321Y-74264157D01*
X149946296Y-74235284D01*
X149905455Y-74218284D01*
X149859398Y-74212500D01*
X149813935Y-74218251D01*
X149773258Y-74235221D01*
X149736025Y-74264157D01*
X149706877Y-74301214D01*
X149689737Y-74342054D01*
X149683910Y-74388080D01*
X149334424Y-74388080D01*
X149340912Y-74318672D01*
X149360017Y-74255076D01*
X149391806Y-74196220D01*
X149437347Y-74141150D01*
X149492108Y-74095238D01*
X149550743Y-74063202D01*
X149614219Y-74043946D01*
X149683910Y-74037377D01*
X150034978Y-74037377D01*
X150104226Y-74043880D01*
G37*
G36*
X148986352Y-75262500D02*
G01*
X148986352Y-73685668D01*
X148636932Y-73685668D01*
X148636932Y-75262500D01*
X148986352Y-75262500D01*
G37*
G36*
X148110375Y-73685668D02*
G01*
X147760864Y-73685668D01*
X147760864Y-74037377D01*
X147585375Y-74037377D01*
X147585375Y-74213232D01*
X147760864Y-74213232D01*
X147760864Y-74913263D01*
X147754198Y-74966898D01*
X147735530Y-75009031D01*
X147705085Y-75042406D01*
X147648591Y-75077099D01*
X147601770Y-75087103D01*
X147585375Y-75087103D01*
X147585375Y-75262500D01*
X147760864Y-75262500D01*
X147831043Y-75255960D01*
X147894748Y-75236823D01*
X147953367Y-75205058D01*
X148007885Y-75159643D01*
X148053179Y-75105002D01*
X148084830Y-75046435D01*
X148103875Y-74982975D01*
X148110375Y-74913263D01*
X148110375Y-74213232D01*
X148285864Y-74213232D01*
X148285864Y-74037377D01*
X148110375Y-74037377D01*
X148110375Y-73685668D01*
G37*
G36*
X146984756Y-74047586D02*
G01*
X147062725Y-74076060D01*
X147125447Y-74121614D01*
X147175469Y-74185855D01*
X147213148Y-74272942D01*
X147236597Y-74389087D01*
X147061108Y-74389087D01*
X147046584Y-74321268D01*
X147022004Y-74273431D01*
X146988449Y-74240685D01*
X146944634Y-74220511D01*
X146887177Y-74213232D01*
X146711597Y-74213232D01*
X146666139Y-74218992D01*
X146625463Y-74235991D01*
X146588223Y-74264981D01*
X146559077Y-74302097D01*
X146541936Y-74342997D01*
X146536108Y-74389087D01*
X146536108Y-74559080D01*
X146887177Y-74559080D01*
X146956400Y-74565607D01*
X147019663Y-74584769D01*
X147078308Y-74616690D01*
X147133282Y-74662486D01*
X147178955Y-74717392D01*
X147210857Y-74776227D01*
X147230047Y-74839961D01*
X147236597Y-74909965D01*
X147236597Y-74911614D01*
X147230068Y-74981637D01*
X147210940Y-75045396D01*
X147179148Y-75104256D01*
X147133648Y-75159185D01*
X147078913Y-75204880D01*
X147020300Y-75236778D01*
X146956844Y-75255957D01*
X146887177Y-75262500D01*
X146711597Y-75262500D01*
X146654139Y-75255242D01*
X146610135Y-75235096D01*
X146576265Y-75202374D01*
X146551248Y-75154588D01*
X146536108Y-75086919D01*
X146536108Y-75262500D01*
X146186597Y-75262500D01*
X146186597Y-74910515D01*
X146536108Y-74910515D01*
X146541810Y-74955446D01*
X146558651Y-74995733D01*
X146587399Y-75032698D01*
X146624156Y-75061515D01*
X146665071Y-75078541D01*
X146711597Y-75084355D01*
X146758125Y-75078543D01*
X146799072Y-75061518D01*
X146835886Y-75032698D01*
X146864633Y-74995733D01*
X146881475Y-74955446D01*
X146887177Y-74910515D01*
X146887177Y-74908866D01*
X146881410Y-74863427D01*
X146864430Y-74823006D01*
X146835519Y-74786226D01*
X146798520Y-74757573D01*
X146757677Y-74740685D01*
X146711597Y-74734935D01*
X146536108Y-74734935D01*
X146536108Y-74910515D01*
X146186597Y-74910515D01*
X146186597Y-74388354D01*
X146193110Y-74318672D01*
X146212215Y-74255076D01*
X146244004Y-74196220D01*
X146289545Y-74141150D01*
X146344306Y-74095238D01*
X146402941Y-74063202D01*
X146466417Y-74043946D01*
X146536108Y-74037377D01*
X146887177Y-74037377D01*
X146984756Y-74047586D01*
G37*
G36*
X145558378Y-74043880D02*
G01*
X145621653Y-74062967D01*
X145680290Y-74094751D01*
X145735236Y-74140326D01*
X145780846Y-74195041D01*
X145812753Y-74253905D01*
X145831979Y-74317906D01*
X145838550Y-74388446D01*
X145838550Y-74913354D01*
X145832025Y-74983090D01*
X145812904Y-75046585D01*
X145781116Y-75105206D01*
X145735602Y-75159918D01*
X145680889Y-75205436D01*
X145622283Y-75237224D01*
X145558818Y-75256342D01*
X145489131Y-75262866D01*
X145313550Y-75262866D01*
X145256093Y-75255608D01*
X145212089Y-75235463D01*
X145178219Y-75202740D01*
X145153202Y-75154954D01*
X145138062Y-75087286D01*
X145138062Y-75438354D01*
X145143883Y-75484326D01*
X145161018Y-75525200D01*
X145190177Y-75562369D01*
X145227423Y-75591414D01*
X145268099Y-75608440D01*
X145313550Y-75614209D01*
X145489131Y-75614209D01*
X145549404Y-75606736D01*
X145594242Y-75586258D01*
X145627549Y-75553406D01*
X145650875Y-75505760D01*
X145663062Y-75438354D01*
X145838550Y-75438354D01*
X145815073Y-75554505D01*
X145777376Y-75641595D01*
X145727346Y-75705836D01*
X145664627Y-75751387D01*
X145586675Y-75779857D01*
X145489131Y-75790064D01*
X145138062Y-75790064D01*
X145069233Y-75783550D01*
X145006149Y-75764402D01*
X144947490Y-75732457D01*
X144892323Y-75686566D01*
X144846356Y-75631528D01*
X144814324Y-75572818D01*
X144795099Y-75509486D01*
X144788550Y-75440186D01*
X144788550Y-74913812D01*
X145138062Y-74913812D01*
X145143764Y-74958744D01*
X145160605Y-74999030D01*
X145189353Y-75035995D01*
X145226110Y-75064812D01*
X145267025Y-75081838D01*
X145313550Y-75087652D01*
X145360139Y-75081838D01*
X145401116Y-75064810D01*
X145437931Y-75035995D01*
X145466624Y-74999037D01*
X145483437Y-74958750D01*
X145489131Y-74913812D01*
X145489131Y-74388812D01*
X145483346Y-74342756D01*
X145466346Y-74301914D01*
X145437473Y-74264890D01*
X145400448Y-74236017D01*
X145359607Y-74219017D01*
X145313550Y-74213232D01*
X145138062Y-74213232D01*
X145138062Y-74913812D01*
X144788550Y-74913812D01*
X144788550Y-74037377D01*
X145489131Y-74037377D01*
X145558378Y-74043880D01*
G37*
G36*
X144160332Y-74043880D02*
G01*
X144223607Y-74062967D01*
X144282244Y-74094751D01*
X144337190Y-74140326D01*
X144382797Y-74194997D01*
X144414704Y-74253829D01*
X144433932Y-74317813D01*
X144440504Y-74388354D01*
X144440504Y-74913171D01*
X144433981Y-74982858D01*
X144414862Y-75046323D01*
X144383074Y-75104930D01*
X144337556Y-75159643D01*
X144282849Y-75205117D01*
X144224244Y-75236877D01*
X144160777Y-75255981D01*
X144091085Y-75262500D01*
X143740016Y-75262500D01*
X143642750Y-75252310D01*
X143564924Y-75223870D01*
X143502215Y-75178340D01*
X143452104Y-75114097D01*
X143414243Y-75026981D01*
X143390504Y-74910790D01*
X143566085Y-74910790D01*
X143573917Y-74977504D01*
X143594873Y-75024772D01*
X143627637Y-75057784D01*
X143674333Y-75078808D01*
X143740016Y-75086645D01*
X143915504Y-75086645D01*
X143962069Y-75080795D01*
X144003044Y-75063656D01*
X144039885Y-75034621D01*
X144068565Y-74997427D01*
X144085386Y-74956866D01*
X144091085Y-74911614D01*
X144091085Y-74734935D01*
X143390504Y-74734935D01*
X143390504Y-74386980D01*
X143390667Y-74385240D01*
X143740016Y-74385240D01*
X143740016Y-74559080D01*
X144091085Y-74559080D01*
X144091085Y-74385240D01*
X144085300Y-74339184D01*
X144068300Y-74298342D01*
X144039427Y-74261318D01*
X144002402Y-74232445D01*
X143961561Y-74215445D01*
X143915504Y-74209660D01*
X143870041Y-74215412D01*
X143829364Y-74232382D01*
X143792131Y-74261318D01*
X143762983Y-74298375D01*
X143745844Y-74339214D01*
X143740016Y-74385240D01*
X143390667Y-74385240D01*
X143397014Y-74317587D01*
X143416109Y-74254238D01*
X143447895Y-74195590D01*
X143493453Y-74140692D01*
X143548186Y-74095002D01*
X143606814Y-74063103D01*
X143670300Y-74043922D01*
X143740016Y-74037377D01*
X144091085Y-74037377D01*
X144160332Y-74043880D01*
G37*
G36*
X142531014Y-75262500D02*
G01*
X142531014Y-73685668D01*
X141656594Y-73685668D01*
X141656594Y-73861523D01*
X142181594Y-73861523D01*
X142181594Y-74389087D01*
X141830525Y-74389087D01*
X141830525Y-74564942D01*
X142181594Y-74564942D01*
X142181594Y-75262500D01*
X142531014Y-75262500D01*
G37*
G36*
X141025720Y-74043880D02*
G01*
X141088994Y-74062967D01*
X141147631Y-74094751D01*
X141202577Y-74140326D01*
X141248185Y-74194997D01*
X141280091Y-74253829D01*
X141299319Y-74317813D01*
X141305892Y-74388354D01*
X141305892Y-74913171D01*
X141299368Y-74982858D01*
X141280250Y-75046323D01*
X141248462Y-75104930D01*
X141202943Y-75159643D01*
X141148236Y-75205117D01*
X141089631Y-75236877D01*
X141026164Y-75255981D01*
X140956472Y-75262500D01*
X140605403Y-75262500D01*
X140535707Y-75255936D01*
X140472229Y-75236694D01*
X140413596Y-75204686D01*
X140358840Y-75158818D01*
X140313211Y-75103683D01*
X140281431Y-75045047D01*
X140262375Y-74981981D01*
X140255892Y-74913171D01*
X140255892Y-74388354D01*
X140255918Y-74388080D01*
X140605403Y-74388080D01*
X140605403Y-74913080D01*
X140611105Y-74958011D01*
X140627946Y-74998298D01*
X140656694Y-75035262D01*
X140693451Y-75064079D01*
X140734366Y-75081106D01*
X140780892Y-75086919D01*
X140827481Y-75081105D01*
X140868457Y-75064078D01*
X140905272Y-75035262D01*
X140933965Y-74998304D01*
X140950778Y-74958017D01*
X140956472Y-74913080D01*
X140956472Y-74388080D01*
X140950687Y-74342023D01*
X140933687Y-74301182D01*
X140904814Y-74264157D01*
X140867790Y-74235284D01*
X140826948Y-74218284D01*
X140780892Y-74212500D01*
X140735428Y-74218251D01*
X140694752Y-74235221D01*
X140657519Y-74264157D01*
X140628371Y-74301214D01*
X140611231Y-74342054D01*
X140605403Y-74388080D01*
X140255918Y-74388080D01*
X140262405Y-74318672D01*
X140281510Y-74255076D01*
X140313299Y-74196220D01*
X140358840Y-74141150D01*
X140413601Y-74095238D01*
X140472236Y-74063202D01*
X140535712Y-74043946D01*
X140605403Y-74037377D01*
X140956472Y-74037377D01*
X141025720Y-74043880D01*
G37*
G36*
X138857846Y-74037377D02*
G01*
X138857846Y-75262500D01*
X139207357Y-75262500D01*
X139207357Y-75087011D01*
X139222494Y-75154637D01*
X139247508Y-75202397D01*
X139281376Y-75235105D01*
X139325382Y-75255244D01*
X139382846Y-75262500D01*
X139558426Y-75262500D01*
X139628118Y-75255981D01*
X139691585Y-75236877D01*
X139750190Y-75205117D01*
X139804897Y-75159643D01*
X139850416Y-75104930D01*
X139882203Y-75046323D01*
X139901322Y-74982858D01*
X139907846Y-74913171D01*
X139907846Y-74037377D01*
X139558426Y-74037377D01*
X139558426Y-74913538D01*
X139552732Y-74958475D01*
X139535919Y-74998762D01*
X139507226Y-75035720D01*
X139470411Y-75064536D01*
X139429435Y-75081563D01*
X139382846Y-75087377D01*
X139336320Y-75081564D01*
X139295405Y-75064537D01*
X139258648Y-75035720D01*
X139229900Y-74998755D01*
X139213059Y-74958469D01*
X139207357Y-74913538D01*
X139207357Y-74037377D01*
X138857846Y-74037377D01*
G37*
G36*
X138509800Y-75262500D02*
G01*
X138509800Y-74037377D01*
X138160380Y-74037377D01*
X138160380Y-74212866D01*
X138148591Y-74155494D01*
X138130115Y-74112527D01*
X138105883Y-74080883D01*
X138074077Y-74057346D01*
X138034462Y-74042647D01*
X137984800Y-74037377D01*
X137809311Y-74037377D01*
X137739620Y-74043946D01*
X137676144Y-74063202D01*
X137617509Y-74095238D01*
X137562748Y-74141150D01*
X137517207Y-74196220D01*
X137485418Y-74255076D01*
X137466313Y-74318672D01*
X137459800Y-74388354D01*
X137459800Y-75262500D01*
X137809311Y-75262500D01*
X137809311Y-74388080D01*
X137815139Y-74342054D01*
X137832279Y-74301214D01*
X137861426Y-74264157D01*
X137898660Y-74235221D01*
X137939336Y-74218251D01*
X137984800Y-74212500D01*
X138030856Y-74218284D01*
X138071697Y-74235284D01*
X138108722Y-74264157D01*
X138137595Y-74301182D01*
X138154595Y-74342023D01*
X138160380Y-74388080D01*
X138160380Y-75262500D01*
X138509800Y-75262500D01*
G37*
G36*
X136411265Y-74037377D02*
G01*
X136762334Y-74037377D01*
X136831581Y-74043880D01*
X136894856Y-74062967D01*
X136953493Y-74094751D01*
X137008439Y-74140326D01*
X137054047Y-74194997D01*
X137085953Y-74253829D01*
X137105181Y-74317813D01*
X137111754Y-74388354D01*
X137111754Y-74913171D01*
X137105230Y-74982858D01*
X137086111Y-75046323D01*
X137054324Y-75104930D01*
X137008805Y-75159643D01*
X136954098Y-75205117D01*
X136895493Y-75236877D01*
X136832026Y-75255981D01*
X136762334Y-75262500D01*
X136586754Y-75262500D01*
X136529309Y-75255238D01*
X136485308Y-75235078D01*
X136451434Y-75202327D01*
X136426410Y-75154489D01*
X136411265Y-75086736D01*
X136411265Y-75262500D01*
X136061754Y-75262500D01*
X136061754Y-74913812D01*
X136411265Y-74913812D01*
X136416967Y-74958744D01*
X136433808Y-74999030D01*
X136462556Y-75035995D01*
X136499313Y-75064812D01*
X136540228Y-75081838D01*
X136586754Y-75087652D01*
X136633343Y-75081838D01*
X136674319Y-75064810D01*
X136711134Y-75035995D01*
X136739827Y-74999037D01*
X136756640Y-74958750D01*
X136762334Y-74913812D01*
X136762334Y-74388812D01*
X136756549Y-74342756D01*
X136739549Y-74301914D01*
X136710676Y-74264890D01*
X136673651Y-74236017D01*
X136632810Y-74219017D01*
X136586754Y-74213232D01*
X136411265Y-74213232D01*
X136411265Y-74913812D01*
X136061754Y-74913812D01*
X136061754Y-73685668D01*
X136411265Y-73685668D01*
X136411265Y-74037377D01*
G37*
G36*
X135364288Y-75262500D02*
G01*
X135713708Y-75262500D01*
X135713708Y-74037377D01*
X135364288Y-74037377D01*
X135364288Y-74389087D01*
X135341216Y-74275207D01*
X135304530Y-74189241D01*
X135256027Y-74125305D01*
X135209637Y-74087932D01*
X135154893Y-74060645D01*
X135090147Y-74043469D01*
X135013219Y-74037377D01*
X134839288Y-74037377D01*
X134839288Y-74389087D01*
X135188708Y-74389087D01*
X135234794Y-74394828D01*
X135275638Y-74411688D01*
X135312630Y-74440286D01*
X135341542Y-74477008D01*
X135358521Y-74517368D01*
X135364288Y-74562744D01*
X135364288Y-75262500D01*
G37*
G36*
X134488952Y-75438354D02*
G01*
X134476765Y-75505760D01*
X134453439Y-75553406D01*
X134420132Y-75586258D01*
X134375294Y-75606736D01*
X134315020Y-75614209D01*
X134139440Y-75614209D01*
X134093988Y-75608440D01*
X134053313Y-75591414D01*
X134016067Y-75562369D01*
X133986908Y-75525200D01*
X133969773Y-75484326D01*
X133963952Y-75438354D01*
X133963952Y-75087286D01*
X133979091Y-75154954D01*
X134004109Y-75202740D01*
X134037979Y-75235463D01*
X134081983Y-75255608D01*
X134139440Y-75262866D01*
X134315020Y-75262866D01*
X134384707Y-75256342D01*
X134448172Y-75237224D01*
X134506779Y-75205436D01*
X134561492Y-75159918D01*
X134607005Y-75105206D01*
X134638794Y-75046585D01*
X134657915Y-74983090D01*
X134664440Y-74913354D01*
X134664440Y-74037377D01*
X134315020Y-74037377D01*
X134315020Y-74913538D01*
X134309327Y-74958475D01*
X134292514Y-74998762D01*
X134263821Y-75035720D01*
X134227005Y-75064536D01*
X134186029Y-75081563D01*
X134139440Y-75087377D01*
X134092915Y-75081564D01*
X134052000Y-75064537D01*
X134015243Y-75035720D01*
X133986495Y-74998755D01*
X133969654Y-74958469D01*
X133963952Y-74913538D01*
X133963952Y-74037377D01*
X133614440Y-74037377D01*
X133614440Y-75440186D01*
X133620989Y-75509486D01*
X133640213Y-75572818D01*
X133672246Y-75631528D01*
X133718213Y-75686566D01*
X133773380Y-75732457D01*
X133832039Y-75764402D01*
X133895123Y-75783550D01*
X133963952Y-75790064D01*
X134315020Y-75790064D01*
X134412565Y-75779857D01*
X134490517Y-75751387D01*
X134553236Y-75705836D01*
X134603266Y-75641595D01*
X134640963Y-75554505D01*
X134664440Y-75438354D01*
X134488952Y-75438354D01*
G37*
G36*
X147245388Y-77782500D02*
G01*
X147245388Y-76205668D01*
X147165796Y-76205668D01*
X146417680Y-76952135D01*
X145670480Y-76205668D01*
X145494900Y-76205668D01*
X145494900Y-77782500D01*
X145845969Y-77782500D01*
X145845969Y-76818320D01*
X146460361Y-77432805D01*
X147069900Y-76818320D01*
X147069900Y-77782500D01*
X147245388Y-77782500D01*
G37*
G36*
X144865216Y-76563880D02*
G01*
X144928491Y-76582967D01*
X144987128Y-76614751D01*
X145042074Y-76660326D01*
X145087681Y-76714997D01*
X145119588Y-76773829D01*
X145138816Y-76837813D01*
X145145388Y-76908354D01*
X145145388Y-77433171D01*
X145138865Y-77502858D01*
X145119746Y-77566323D01*
X145087958Y-77624930D01*
X145042440Y-77679643D01*
X144987733Y-77725117D01*
X144929128Y-77756877D01*
X144865661Y-77775981D01*
X144795969Y-77782500D01*
X144444900Y-77782500D01*
X144375204Y-77775936D01*
X144311726Y-77756694D01*
X144253092Y-77724686D01*
X144198337Y-77678818D01*
X144152708Y-77623683D01*
X144120928Y-77565047D01*
X144101872Y-77501981D01*
X144095388Y-77433171D01*
X144095388Y-76908354D01*
X144095414Y-76908080D01*
X144444900Y-76908080D01*
X144444900Y-77433080D01*
X144450602Y-77478011D01*
X144467443Y-77518298D01*
X144496191Y-77555262D01*
X144532948Y-77584079D01*
X144573863Y-77601106D01*
X144620388Y-77606919D01*
X144666977Y-77601105D01*
X144707954Y-77584078D01*
X144744769Y-77555262D01*
X144773462Y-77518304D01*
X144790275Y-77478017D01*
X144795969Y-77433080D01*
X144795969Y-76908080D01*
X144790184Y-76862023D01*
X144773184Y-76821182D01*
X144744311Y-76784157D01*
X144707286Y-76755284D01*
X144666445Y-76738284D01*
X144620388Y-76732500D01*
X144574925Y-76738251D01*
X144534248Y-76755221D01*
X144497015Y-76784157D01*
X144467867Y-76821214D01*
X144450727Y-76862054D01*
X144444900Y-76908080D01*
X144095414Y-76908080D01*
X144101902Y-76838672D01*
X144121007Y-76775076D01*
X144152796Y-76716220D01*
X144198337Y-76661150D01*
X144253098Y-76615238D01*
X144311733Y-76583202D01*
X144375209Y-76563946D01*
X144444900Y-76557377D01*
X144795969Y-76557377D01*
X144865216Y-76563880D01*
G37*
G36*
X143046854Y-76557377D02*
G01*
X143397922Y-76557377D01*
X143467170Y-76563880D01*
X143530444Y-76582967D01*
X143589082Y-76614751D01*
X143644028Y-76660326D01*
X143689635Y-76714997D01*
X143721542Y-76773829D01*
X143740770Y-76837813D01*
X143747342Y-76908354D01*
X143747342Y-77433171D01*
X143740819Y-77502858D01*
X143721700Y-77566323D01*
X143689912Y-77624930D01*
X143644394Y-77679643D01*
X143589687Y-77725117D01*
X143531082Y-77756877D01*
X143467614Y-77775981D01*
X143397922Y-77782500D01*
X143222342Y-77782500D01*
X143164897Y-77775238D01*
X143120896Y-77755078D01*
X143087023Y-77722327D01*
X143061999Y-77674489D01*
X143046854Y-77606736D01*
X143046854Y-77782500D01*
X142697342Y-77782500D01*
X142697342Y-77433812D01*
X143046854Y-77433812D01*
X143052556Y-77478744D01*
X143069397Y-77519030D01*
X143098145Y-77555995D01*
X143134902Y-77584812D01*
X143175817Y-77601838D01*
X143222342Y-77607652D01*
X143268931Y-77601838D01*
X143309908Y-77584810D01*
X143346723Y-77555995D01*
X143375416Y-77519037D01*
X143392229Y-77478750D01*
X143397922Y-77433812D01*
X143397922Y-76908812D01*
X143392138Y-76862756D01*
X143375138Y-76821914D01*
X143346265Y-76784890D01*
X143309240Y-76756017D01*
X143268399Y-76739017D01*
X143222342Y-76733232D01*
X143046854Y-76733232D01*
X143046854Y-77433812D01*
X142697342Y-77433812D01*
X142697342Y-76205668D01*
X143046854Y-76205668D01*
X143046854Y-76557377D01*
G37*
G36*
X141299296Y-76557377D02*
G01*
X141299296Y-77782500D01*
X141648808Y-77782500D01*
X141648808Y-77607011D01*
X141663945Y-77674637D01*
X141688959Y-77722397D01*
X141722827Y-77755105D01*
X141766833Y-77775244D01*
X141824296Y-77782500D01*
X141999876Y-77782500D01*
X142069568Y-77775981D01*
X142133036Y-77756877D01*
X142191641Y-77725117D01*
X142246348Y-77679643D01*
X142291866Y-77624930D01*
X142323654Y-77566323D01*
X142342773Y-77502858D01*
X142349296Y-77433171D01*
X142349296Y-76557377D01*
X141999876Y-76557377D01*
X141999876Y-77433538D01*
X141994183Y-77478475D01*
X141977370Y-77518762D01*
X141948677Y-77555720D01*
X141911861Y-77584536D01*
X141870885Y-77601563D01*
X141824296Y-77607377D01*
X141777771Y-77601564D01*
X141736856Y-77584537D01*
X141700099Y-77555720D01*
X141671351Y-77518755D01*
X141654510Y-77478469D01*
X141648808Y-77433538D01*
X141648808Y-76557377D01*
X141299296Y-76557377D01*
G37*
G36*
X140951250Y-77782500D02*
G01*
X140951250Y-76205668D01*
X140601830Y-76205668D01*
X140601830Y-77782500D01*
X140951250Y-77782500D01*
G37*
G36*
X139998921Y-76567586D02*
G01*
X140076890Y-76596060D01*
X140139612Y-76641614D01*
X140189634Y-76705855D01*
X140227313Y-76792942D01*
X140250762Y-76909087D01*
X140075273Y-76909087D01*
X140060749Y-76841268D01*
X140036169Y-76793431D01*
X140002615Y-76760685D01*
X139958799Y-76740511D01*
X139901342Y-76733232D01*
X139725762Y-76733232D01*
X139680304Y-76738992D01*
X139639628Y-76755991D01*
X139602389Y-76784981D01*
X139573243Y-76822097D01*
X139556101Y-76862997D01*
X139550273Y-76909087D01*
X139550273Y-77079080D01*
X139901342Y-77079080D01*
X139970565Y-77085607D01*
X140033829Y-77104769D01*
X140092473Y-77136690D01*
X140147447Y-77182486D01*
X140193121Y-77237392D01*
X140225022Y-77296227D01*
X140244213Y-77359961D01*
X140250762Y-77429965D01*
X140250762Y-77431614D01*
X140244233Y-77501637D01*
X140225105Y-77565396D01*
X140193313Y-77624256D01*
X140147813Y-77679185D01*
X140093079Y-77724880D01*
X140034466Y-77756778D01*
X139971009Y-77775957D01*
X139901342Y-77782500D01*
X139725762Y-77782500D01*
X139668304Y-77775242D01*
X139624300Y-77755096D01*
X139590430Y-77722374D01*
X139565413Y-77674588D01*
X139550273Y-77606919D01*
X139550273Y-77782500D01*
X139200762Y-77782500D01*
X139200762Y-77430515D01*
X139550273Y-77430515D01*
X139555975Y-77475446D01*
X139572816Y-77515733D01*
X139601564Y-77552698D01*
X139638321Y-77581515D01*
X139679236Y-77598541D01*
X139725762Y-77604355D01*
X139772290Y-77598543D01*
X139813237Y-77581518D01*
X139850051Y-77552698D01*
X139878799Y-77515733D01*
X139895640Y-77475446D01*
X139901342Y-77430515D01*
X139901342Y-77428866D01*
X139895575Y-77383427D01*
X139878595Y-77343006D01*
X139849684Y-77306226D01*
X139812686Y-77277573D01*
X139771842Y-77260685D01*
X139725762Y-77254935D01*
X139550273Y-77254935D01*
X139550273Y-77430515D01*
X139200762Y-77430515D01*
X139200762Y-76908354D01*
X139207275Y-76838672D01*
X139226380Y-76775076D01*
X139258169Y-76716220D01*
X139303710Y-76661150D01*
X139358471Y-76615238D01*
X139417106Y-76583202D01*
X139480582Y-76563946D01*
X139550273Y-76557377D01*
X139901342Y-76557377D01*
X139998921Y-76567586D01*
G37*
G36*
X138503296Y-77782500D02*
G01*
X138852716Y-77782500D01*
X138852716Y-76557377D01*
X138503296Y-76557377D01*
X138503296Y-76909087D01*
X138480225Y-76795207D01*
X138443538Y-76709241D01*
X138395035Y-76645305D01*
X138348645Y-76607932D01*
X138293901Y-76580645D01*
X138229155Y-76563469D01*
X138152227Y-76557377D01*
X137978296Y-76557377D01*
X137978296Y-76909087D01*
X138327716Y-76909087D01*
X138373802Y-76914828D01*
X138414646Y-76931688D01*
X138451638Y-76960286D01*
X138480551Y-76997008D01*
X138497530Y-77037368D01*
X138503296Y-77082744D01*
X138503296Y-77782500D01*
G37*
D14*
X153033333Y-105234819D02*
X153033333Y-105949104D01*
X153033333Y-105949104D02*
X153080952Y-106091961D01*
X153080952Y-106091961D02*
X153176190Y-106187200D01*
X153176190Y-106187200D02*
X153319047Y-106234819D01*
X153319047Y-106234819D02*
X153414285Y-106234819D01*
X152128571Y-105568152D02*
X152128571Y-106234819D01*
X152366666Y-105187200D02*
X152604761Y-105901485D01*
X152604761Y-105901485D02*
X151985714Y-105901485D01*
X151054819Y-112714285D02*
X150054819Y-112714285D01*
X150054819Y-112714285D02*
X150769104Y-113047618D01*
X150769104Y-113047618D02*
X150054819Y-113380951D01*
X150054819Y-113380951D02*
X151054819Y-113380951D01*
X150959580Y-114428570D02*
X151007200Y-114380951D01*
X151007200Y-114380951D02*
X151054819Y-114238094D01*
X151054819Y-114238094D02*
X151054819Y-114142856D01*
X151054819Y-114142856D02*
X151007200Y-113999999D01*
X151007200Y-113999999D02*
X150911961Y-113904761D01*
X150911961Y-113904761D02*
X150816723Y-113857142D01*
X150816723Y-113857142D02*
X150626247Y-113809523D01*
X150626247Y-113809523D02*
X150483390Y-113809523D01*
X150483390Y-113809523D02*
X150292914Y-113857142D01*
X150292914Y-113857142D02*
X150197676Y-113904761D01*
X150197676Y-113904761D02*
X150102438Y-113999999D01*
X150102438Y-113999999D02*
X150054819Y-114142856D01*
X150054819Y-114142856D02*
X150054819Y-114238094D01*
X150054819Y-114238094D02*
X150102438Y-114380951D01*
X150102438Y-114380951D02*
X150150057Y-114428570D01*
X151054819Y-114857142D02*
X150054819Y-114857142D01*
X150054819Y-114857142D02*
X150054819Y-115238094D01*
X150054819Y-115238094D02*
X150102438Y-115333332D01*
X150102438Y-115333332D02*
X150150057Y-115380951D01*
X150150057Y-115380951D02*
X150245295Y-115428570D01*
X150245295Y-115428570D02*
X150388152Y-115428570D01*
X150388152Y-115428570D02*
X150483390Y-115380951D01*
X150483390Y-115380951D02*
X150531009Y-115333332D01*
X150531009Y-115333332D02*
X150578628Y-115238094D01*
X150578628Y-115238094D02*
X150578628Y-114857142D01*
X150388152Y-116285713D02*
X151054819Y-116285713D01*
X150007200Y-116047618D02*
X150721485Y-115809523D01*
X150721485Y-115809523D02*
X150721485Y-116428570D01*
X150054819Y-116714285D02*
X150054819Y-117380951D01*
X150054819Y-117380951D02*
X151054819Y-116952380D01*
X150054819Y-118238094D02*
X150054819Y-117761904D01*
X150054819Y-117761904D02*
X150531009Y-117714285D01*
X150531009Y-117714285D02*
X150483390Y-117761904D01*
X150483390Y-117761904D02*
X150435771Y-117857142D01*
X150435771Y-117857142D02*
X150435771Y-118095237D01*
X150435771Y-118095237D02*
X150483390Y-118190475D01*
X150483390Y-118190475D02*
X150531009Y-118238094D01*
X150531009Y-118238094D02*
X150626247Y-118285713D01*
X150626247Y-118285713D02*
X150864342Y-118285713D01*
X150864342Y-118285713D02*
X150959580Y-118238094D01*
X150959580Y-118238094D02*
X151007200Y-118190475D01*
X151007200Y-118190475D02*
X151054819Y-118095237D01*
X151054819Y-118095237D02*
X151054819Y-117857142D01*
X151054819Y-117857142D02*
X151007200Y-117761904D01*
X151007200Y-117761904D02*
X150959580Y-117714285D01*
X150483390Y-118857142D02*
X150435771Y-118761904D01*
X150435771Y-118761904D02*
X150388152Y-118714285D01*
X150388152Y-118714285D02*
X150292914Y-118666666D01*
X150292914Y-118666666D02*
X150245295Y-118666666D01*
X150245295Y-118666666D02*
X150150057Y-118714285D01*
X150150057Y-118714285D02*
X150102438Y-118761904D01*
X150102438Y-118761904D02*
X150054819Y-118857142D01*
X150054819Y-118857142D02*
X150054819Y-119047618D01*
X150054819Y-119047618D02*
X150102438Y-119142856D01*
X150102438Y-119142856D02*
X150150057Y-119190475D01*
X150150057Y-119190475D02*
X150245295Y-119238094D01*
X150245295Y-119238094D02*
X150292914Y-119238094D01*
X150292914Y-119238094D02*
X150388152Y-119190475D01*
X150388152Y-119190475D02*
X150435771Y-119142856D01*
X150435771Y-119142856D02*
X150483390Y-119047618D01*
X150483390Y-119047618D02*
X150483390Y-118857142D01*
X150483390Y-118857142D02*
X150531009Y-118761904D01*
X150531009Y-118761904D02*
X150578628Y-118714285D01*
X150578628Y-118714285D02*
X150673866Y-118666666D01*
X150673866Y-118666666D02*
X150864342Y-118666666D01*
X150864342Y-118666666D02*
X150959580Y-118714285D01*
X150959580Y-118714285D02*
X151007200Y-118761904D01*
X151007200Y-118761904D02*
X151054819Y-118857142D01*
X151054819Y-118857142D02*
X151054819Y-119047618D01*
X151054819Y-119047618D02*
X151007200Y-119142856D01*
X151007200Y-119142856D02*
X150959580Y-119190475D01*
X150959580Y-119190475D02*
X150864342Y-119238094D01*
X150864342Y-119238094D02*
X150673866Y-119238094D01*
X150673866Y-119238094D02*
X150578628Y-119190475D01*
X150578628Y-119190475D02*
X150531009Y-119142856D01*
X150531009Y-119142856D02*
X150483390Y-119047618D01*
X150531009Y-120761904D02*
X150578628Y-120904761D01*
X150578628Y-120904761D02*
X150626247Y-120952380D01*
X150626247Y-120952380D02*
X150721485Y-120999999D01*
X150721485Y-120999999D02*
X150864342Y-120999999D01*
X150864342Y-120999999D02*
X150959580Y-120952380D01*
X150959580Y-120952380D02*
X151007200Y-120904761D01*
X151007200Y-120904761D02*
X151054819Y-120809523D01*
X151054819Y-120809523D02*
X151054819Y-120428571D01*
X151054819Y-120428571D02*
X150054819Y-120428571D01*
X150054819Y-120428571D02*
X150054819Y-120761904D01*
X150054819Y-120761904D02*
X150102438Y-120857142D01*
X150102438Y-120857142D02*
X150150057Y-120904761D01*
X150150057Y-120904761D02*
X150245295Y-120952380D01*
X150245295Y-120952380D02*
X150340533Y-120952380D01*
X150340533Y-120952380D02*
X150435771Y-120904761D01*
X150435771Y-120904761D02*
X150483390Y-120857142D01*
X150483390Y-120857142D02*
X150531009Y-120761904D01*
X150531009Y-120761904D02*
X150531009Y-120428571D01*
X151054819Y-121571428D02*
X151007200Y-121476190D01*
X151007200Y-121476190D02*
X150959580Y-121428571D01*
X150959580Y-121428571D02*
X150864342Y-121380952D01*
X150864342Y-121380952D02*
X150578628Y-121380952D01*
X150578628Y-121380952D02*
X150483390Y-121428571D01*
X150483390Y-121428571D02*
X150435771Y-121476190D01*
X150435771Y-121476190D02*
X150388152Y-121571428D01*
X150388152Y-121571428D02*
X150388152Y-121714285D01*
X150388152Y-121714285D02*
X150435771Y-121809523D01*
X150435771Y-121809523D02*
X150483390Y-121857142D01*
X150483390Y-121857142D02*
X150578628Y-121904761D01*
X150578628Y-121904761D02*
X150864342Y-121904761D01*
X150864342Y-121904761D02*
X150959580Y-121857142D01*
X150959580Y-121857142D02*
X151007200Y-121809523D01*
X151007200Y-121809523D02*
X151054819Y-121714285D01*
X151054819Y-121714285D02*
X151054819Y-121571428D01*
X151054819Y-122761904D02*
X150531009Y-122761904D01*
X150531009Y-122761904D02*
X150435771Y-122714285D01*
X150435771Y-122714285D02*
X150388152Y-122619047D01*
X150388152Y-122619047D02*
X150388152Y-122428571D01*
X150388152Y-122428571D02*
X150435771Y-122333333D01*
X151007200Y-122761904D02*
X151054819Y-122666666D01*
X151054819Y-122666666D02*
X151054819Y-122428571D01*
X151054819Y-122428571D02*
X151007200Y-122333333D01*
X151007200Y-122333333D02*
X150911961Y-122285714D01*
X150911961Y-122285714D02*
X150816723Y-122285714D01*
X150816723Y-122285714D02*
X150721485Y-122333333D01*
X150721485Y-122333333D02*
X150673866Y-122428571D01*
X150673866Y-122428571D02*
X150673866Y-122666666D01*
X150673866Y-122666666D02*
X150626247Y-122761904D01*
X151054819Y-123238095D02*
X150388152Y-123238095D01*
X150578628Y-123238095D02*
X150483390Y-123285714D01*
X150483390Y-123285714D02*
X150435771Y-123333333D01*
X150435771Y-123333333D02*
X150388152Y-123428571D01*
X150388152Y-123428571D02*
X150388152Y-123523809D01*
X151054819Y-124285714D02*
X150054819Y-124285714D01*
X151007200Y-124285714D02*
X151054819Y-124190476D01*
X151054819Y-124190476D02*
X151054819Y-124000000D01*
X151054819Y-124000000D02*
X151007200Y-123904762D01*
X151007200Y-123904762D02*
X150959580Y-123857143D01*
X150959580Y-123857143D02*
X150864342Y-123809524D01*
X150864342Y-123809524D02*
X150578628Y-123809524D01*
X150578628Y-123809524D02*
X150483390Y-123857143D01*
X150483390Y-123857143D02*
X150435771Y-123904762D01*
X150435771Y-123904762D02*
X150388152Y-124000000D01*
X150388152Y-124000000D02*
X150388152Y-124190476D01*
X150388152Y-124190476D02*
X150435771Y-124285714D01*
X133035238Y-110104819D02*
X133511428Y-110104819D01*
X133511428Y-110104819D02*
X133511428Y-109104819D01*
X132797142Y-109104819D02*
X132130476Y-109104819D01*
X132130476Y-109104819D02*
X132559047Y-110104819D01*
X131606666Y-109533390D02*
X131701904Y-109485771D01*
X131701904Y-109485771D02*
X131749523Y-109438152D01*
X131749523Y-109438152D02*
X131797142Y-109342914D01*
X131797142Y-109342914D02*
X131797142Y-109295295D01*
X131797142Y-109295295D02*
X131749523Y-109200057D01*
X131749523Y-109200057D02*
X131701904Y-109152438D01*
X131701904Y-109152438D02*
X131606666Y-109104819D01*
X131606666Y-109104819D02*
X131416190Y-109104819D01*
X131416190Y-109104819D02*
X131320952Y-109152438D01*
X131320952Y-109152438D02*
X131273333Y-109200057D01*
X131273333Y-109200057D02*
X131225714Y-109295295D01*
X131225714Y-109295295D02*
X131225714Y-109342914D01*
X131225714Y-109342914D02*
X131273333Y-109438152D01*
X131273333Y-109438152D02*
X131320952Y-109485771D01*
X131320952Y-109485771D02*
X131416190Y-109533390D01*
X131416190Y-109533390D02*
X131606666Y-109533390D01*
X131606666Y-109533390D02*
X131701904Y-109581009D01*
X131701904Y-109581009D02*
X131749523Y-109628628D01*
X131749523Y-109628628D02*
X131797142Y-109723866D01*
X131797142Y-109723866D02*
X131797142Y-109914342D01*
X131797142Y-109914342D02*
X131749523Y-110009580D01*
X131749523Y-110009580D02*
X131701904Y-110057200D01*
X131701904Y-110057200D02*
X131606666Y-110104819D01*
X131606666Y-110104819D02*
X131416190Y-110104819D01*
X131416190Y-110104819D02*
X131320952Y-110057200D01*
X131320952Y-110057200D02*
X131273333Y-110009580D01*
X131273333Y-110009580D02*
X131225714Y-109914342D01*
X131225714Y-109914342D02*
X131225714Y-109723866D01*
X131225714Y-109723866D02*
X131273333Y-109628628D01*
X131273333Y-109628628D02*
X131320952Y-109581009D01*
X131320952Y-109581009D02*
X131416190Y-109533390D01*
X130606666Y-109104819D02*
X130511428Y-109104819D01*
X130511428Y-109104819D02*
X130416190Y-109152438D01*
X130416190Y-109152438D02*
X130368571Y-109200057D01*
X130368571Y-109200057D02*
X130320952Y-109295295D01*
X130320952Y-109295295D02*
X130273333Y-109485771D01*
X130273333Y-109485771D02*
X130273333Y-109723866D01*
X130273333Y-109723866D02*
X130320952Y-109914342D01*
X130320952Y-109914342D02*
X130368571Y-110009580D01*
X130368571Y-110009580D02*
X130416190Y-110057200D01*
X130416190Y-110057200D02*
X130511428Y-110104819D01*
X130511428Y-110104819D02*
X130606666Y-110104819D01*
X130606666Y-110104819D02*
X130701904Y-110057200D01*
X130701904Y-110057200D02*
X130749523Y-110009580D01*
X130749523Y-110009580D02*
X130797142Y-109914342D01*
X130797142Y-109914342D02*
X130844761Y-109723866D01*
X130844761Y-109723866D02*
X130844761Y-109485771D01*
X130844761Y-109485771D02*
X130797142Y-109295295D01*
X130797142Y-109295295D02*
X130749523Y-109200057D01*
X130749523Y-109200057D02*
X130701904Y-109152438D01*
X130701904Y-109152438D02*
X130606666Y-109104819D01*
X129368571Y-109104819D02*
X129844761Y-109104819D01*
X129844761Y-109104819D02*
X129892380Y-109581009D01*
X129892380Y-109581009D02*
X129844761Y-109533390D01*
X129844761Y-109533390D02*
X129749523Y-109485771D01*
X129749523Y-109485771D02*
X129511428Y-109485771D01*
X129511428Y-109485771D02*
X129416190Y-109533390D01*
X129416190Y-109533390D02*
X129368571Y-109581009D01*
X129368571Y-109581009D02*
X129320952Y-109676247D01*
X129320952Y-109676247D02*
X129320952Y-109914342D01*
X129320952Y-109914342D02*
X129368571Y-110009580D01*
X129368571Y-110009580D02*
X129416190Y-110057200D01*
X129416190Y-110057200D02*
X129511428Y-110104819D01*
X129511428Y-110104819D02*
X129749523Y-110104819D01*
X129749523Y-110104819D02*
X129844761Y-110057200D01*
X129844761Y-110057200D02*
X129892380Y-110009580D01*
X137354819Y-117361904D02*
X136354819Y-117361904D01*
X136354819Y-117361904D02*
X136354819Y-117742856D01*
X136354819Y-117742856D02*
X136402438Y-117838094D01*
X136402438Y-117838094D02*
X136450057Y-117885713D01*
X136450057Y-117885713D02*
X136545295Y-117933332D01*
X136545295Y-117933332D02*
X136688152Y-117933332D01*
X136688152Y-117933332D02*
X136783390Y-117885713D01*
X136783390Y-117885713D02*
X136831009Y-117838094D01*
X136831009Y-117838094D02*
X136878628Y-117742856D01*
X136878628Y-117742856D02*
X136878628Y-117361904D01*
X137354819Y-118504761D02*
X137307200Y-118409523D01*
X137307200Y-118409523D02*
X137259580Y-118361904D01*
X137259580Y-118361904D02*
X137164342Y-118314285D01*
X137164342Y-118314285D02*
X136878628Y-118314285D01*
X136878628Y-118314285D02*
X136783390Y-118361904D01*
X136783390Y-118361904D02*
X136735771Y-118409523D01*
X136735771Y-118409523D02*
X136688152Y-118504761D01*
X136688152Y-118504761D02*
X136688152Y-118647618D01*
X136688152Y-118647618D02*
X136735771Y-118742856D01*
X136735771Y-118742856D02*
X136783390Y-118790475D01*
X136783390Y-118790475D02*
X136878628Y-118838094D01*
X136878628Y-118838094D02*
X137164342Y-118838094D01*
X137164342Y-118838094D02*
X137259580Y-118790475D01*
X137259580Y-118790475D02*
X137307200Y-118742856D01*
X137307200Y-118742856D02*
X137354819Y-118647618D01*
X137354819Y-118647618D02*
X137354819Y-118504761D01*
X136688152Y-119171428D02*
X137354819Y-119361904D01*
X137354819Y-119361904D02*
X136878628Y-119552380D01*
X136878628Y-119552380D02*
X137354819Y-119742856D01*
X137354819Y-119742856D02*
X136688152Y-119933332D01*
X137307200Y-120695237D02*
X137354819Y-120599999D01*
X137354819Y-120599999D02*
X137354819Y-120409523D01*
X137354819Y-120409523D02*
X137307200Y-120314285D01*
X137307200Y-120314285D02*
X137211961Y-120266666D01*
X137211961Y-120266666D02*
X136831009Y-120266666D01*
X136831009Y-120266666D02*
X136735771Y-120314285D01*
X136735771Y-120314285D02*
X136688152Y-120409523D01*
X136688152Y-120409523D02*
X136688152Y-120599999D01*
X136688152Y-120599999D02*
X136735771Y-120695237D01*
X136735771Y-120695237D02*
X136831009Y-120742856D01*
X136831009Y-120742856D02*
X136926247Y-120742856D01*
X136926247Y-120742856D02*
X137021485Y-120266666D01*
X137354819Y-121171428D02*
X136688152Y-121171428D01*
X136878628Y-121171428D02*
X136783390Y-121219047D01*
X136783390Y-121219047D02*
X136735771Y-121266666D01*
X136735771Y-121266666D02*
X136688152Y-121361904D01*
X136688152Y-121361904D02*
X136688152Y-121457142D01*
X137354819Y-122552381D02*
X136354819Y-122552381D01*
X136688152Y-123028571D02*
X137354819Y-123028571D01*
X136783390Y-123028571D02*
X136735771Y-123076190D01*
X136735771Y-123076190D02*
X136688152Y-123171428D01*
X136688152Y-123171428D02*
X136688152Y-123314285D01*
X136688152Y-123314285D02*
X136735771Y-123409523D01*
X136735771Y-123409523D02*
X136831009Y-123457142D01*
X136831009Y-123457142D02*
X137354819Y-123457142D01*
X136688152Y-123933333D02*
X137688152Y-123933333D01*
X136735771Y-123933333D02*
X136688152Y-124028571D01*
X136688152Y-124028571D02*
X136688152Y-124219047D01*
X136688152Y-124219047D02*
X136735771Y-124314285D01*
X136735771Y-124314285D02*
X136783390Y-124361904D01*
X136783390Y-124361904D02*
X136878628Y-124409523D01*
X136878628Y-124409523D02*
X137164342Y-124409523D01*
X137164342Y-124409523D02*
X137259580Y-124361904D01*
X137259580Y-124361904D02*
X137307200Y-124314285D01*
X137307200Y-124314285D02*
X137354819Y-124219047D01*
X137354819Y-124219047D02*
X137354819Y-124028571D01*
X137354819Y-124028571D02*
X137307200Y-123933333D01*
X136688152Y-125266666D02*
X137354819Y-125266666D01*
X136688152Y-124838095D02*
X137211961Y-124838095D01*
X137211961Y-124838095D02*
X137307200Y-124885714D01*
X137307200Y-124885714D02*
X137354819Y-124980952D01*
X137354819Y-124980952D02*
X137354819Y-125123809D01*
X137354819Y-125123809D02*
X137307200Y-125219047D01*
X137307200Y-125219047D02*
X137259580Y-125266666D01*
X136688152Y-125600000D02*
X136688152Y-125980952D01*
X136354819Y-125742857D02*
X137211961Y-125742857D01*
X137211961Y-125742857D02*
X137307200Y-125790476D01*
X137307200Y-125790476D02*
X137354819Y-125885714D01*
X137354819Y-125885714D02*
X137354819Y-125980952D01*
X140804819Y-143544761D02*
X140328628Y-143211428D01*
X140804819Y-142973333D02*
X139804819Y-142973333D01*
X139804819Y-142973333D02*
X139804819Y-143354285D01*
X139804819Y-143354285D02*
X139852438Y-143449523D01*
X139852438Y-143449523D02*
X139900057Y-143497142D01*
X139900057Y-143497142D02*
X139995295Y-143544761D01*
X139995295Y-143544761D02*
X140138152Y-143544761D01*
X140138152Y-143544761D02*
X140233390Y-143497142D01*
X140233390Y-143497142D02*
X140281009Y-143449523D01*
X140281009Y-143449523D02*
X140328628Y-143354285D01*
X140328628Y-143354285D02*
X140328628Y-142973333D01*
X139804819Y-143830476D02*
X140804819Y-144163809D01*
X140804819Y-144163809D02*
X139804819Y-144497142D01*
X139900057Y-144782857D02*
X139852438Y-144830476D01*
X139852438Y-144830476D02*
X139804819Y-144925714D01*
X139804819Y-144925714D02*
X139804819Y-145163809D01*
X139804819Y-145163809D02*
X139852438Y-145259047D01*
X139852438Y-145259047D02*
X139900057Y-145306666D01*
X139900057Y-145306666D02*
X139995295Y-145354285D01*
X139995295Y-145354285D02*
X140090533Y-145354285D01*
X140090533Y-145354285D02*
X140233390Y-145306666D01*
X140233390Y-145306666D02*
X140804819Y-144735238D01*
X140804819Y-144735238D02*
X140804819Y-145354285D01*
X134029819Y-143544761D02*
X133553628Y-143211428D01*
X134029819Y-142973333D02*
X133029819Y-142973333D01*
X133029819Y-142973333D02*
X133029819Y-143354285D01*
X133029819Y-143354285D02*
X133077438Y-143449523D01*
X133077438Y-143449523D02*
X133125057Y-143497142D01*
X133125057Y-143497142D02*
X133220295Y-143544761D01*
X133220295Y-143544761D02*
X133363152Y-143544761D01*
X133363152Y-143544761D02*
X133458390Y-143497142D01*
X133458390Y-143497142D02*
X133506009Y-143449523D01*
X133506009Y-143449523D02*
X133553628Y-143354285D01*
X133553628Y-143354285D02*
X133553628Y-142973333D01*
X133029819Y-143830476D02*
X134029819Y-144163809D01*
X134029819Y-144163809D02*
X133029819Y-144497142D01*
X134029819Y-145354285D02*
X134029819Y-144782857D01*
X134029819Y-145068571D02*
X133029819Y-145068571D01*
X133029819Y-145068571D02*
X133172676Y-144973333D01*
X133172676Y-144973333D02*
X133267914Y-144878095D01*
X133267914Y-144878095D02*
X133315533Y-144782857D01*
X147579819Y-143544761D02*
X147103628Y-143211428D01*
X147579819Y-142973333D02*
X146579819Y-142973333D01*
X146579819Y-142973333D02*
X146579819Y-143354285D01*
X146579819Y-143354285D02*
X146627438Y-143449523D01*
X146627438Y-143449523D02*
X146675057Y-143497142D01*
X146675057Y-143497142D02*
X146770295Y-143544761D01*
X146770295Y-143544761D02*
X146913152Y-143544761D01*
X146913152Y-143544761D02*
X147008390Y-143497142D01*
X147008390Y-143497142D02*
X147056009Y-143449523D01*
X147056009Y-143449523D02*
X147103628Y-143354285D01*
X147103628Y-143354285D02*
X147103628Y-142973333D01*
X146579819Y-143830476D02*
X147579819Y-144163809D01*
X147579819Y-144163809D02*
X146579819Y-144497142D01*
X146579819Y-144735238D02*
X146579819Y-145354285D01*
X146579819Y-145354285D02*
X146960771Y-145020952D01*
X146960771Y-145020952D02*
X146960771Y-145163809D01*
X146960771Y-145163809D02*
X147008390Y-145259047D01*
X147008390Y-145259047D02*
X147056009Y-145306666D01*
X147056009Y-145306666D02*
X147151247Y-145354285D01*
X147151247Y-145354285D02*
X147389342Y-145354285D01*
X147389342Y-145354285D02*
X147484580Y-145306666D01*
X147484580Y-145306666D02*
X147532200Y-145259047D01*
X147532200Y-145259047D02*
X147579819Y-145163809D01*
X147579819Y-145163809D02*
X147579819Y-144878095D01*
X147579819Y-144878095D02*
X147532200Y-144782857D01*
X147532200Y-144782857D02*
X147484580Y-144735238D01*
X154354819Y-143544761D02*
X153878628Y-143211428D01*
X154354819Y-142973333D02*
X153354819Y-142973333D01*
X153354819Y-142973333D02*
X153354819Y-143354285D01*
X153354819Y-143354285D02*
X153402438Y-143449523D01*
X153402438Y-143449523D02*
X153450057Y-143497142D01*
X153450057Y-143497142D02*
X153545295Y-143544761D01*
X153545295Y-143544761D02*
X153688152Y-143544761D01*
X153688152Y-143544761D02*
X153783390Y-143497142D01*
X153783390Y-143497142D02*
X153831009Y-143449523D01*
X153831009Y-143449523D02*
X153878628Y-143354285D01*
X153878628Y-143354285D02*
X153878628Y-142973333D01*
X153354819Y-143830476D02*
X154354819Y-144163809D01*
X154354819Y-144163809D02*
X153354819Y-144497142D01*
X153688152Y-145259047D02*
X154354819Y-145259047D01*
X153307200Y-145020952D02*
X154021485Y-144782857D01*
X154021485Y-144782857D02*
X154021485Y-145401904D01*
D15*
%TO.C,J4*%
X151320000Y-109430000D02*
X151320000Y-132400000D01*
X154080000Y-106780000D02*
X152700000Y-106780000D01*
X154080000Y-108160000D02*
X154080000Y-106780000D01*
X154080000Y-109430000D02*
X151320000Y-109430000D01*
X154080000Y-109430000D02*
X154080000Y-132400000D01*
X154080000Y-132400000D02*
X151320000Y-132400000D01*
%TO.C,U2*%
X126320000Y-110779000D02*
X136560000Y-110779000D01*
X126320000Y-113910000D02*
X136560000Y-113910000D01*
X126320000Y-115420000D02*
X126320000Y-110779000D01*
X126320000Y-115420000D02*
X136560000Y-115420000D01*
D16*
X127620000Y-114690000D02*
X135300000Y-114690000D01*
D15*
X136560000Y-115420000D02*
X136560000Y-110779000D01*
%TO.C,J6*%
X148905000Y-55229750D02*
X148905000Y-56559750D01*
X148905000Y-57829750D02*
X148905000Y-73129750D01*
X150235000Y-55229750D02*
X148905000Y-55229750D01*
X151565000Y-57829750D02*
X148905000Y-57829750D01*
X151565000Y-57829750D02*
X151565000Y-73129750D01*
X151565000Y-73129750D02*
X148905000Y-73129750D01*
%TO.C,J5*%
X124880000Y-101700000D02*
X125880000Y-102200000D01*
X124880000Y-102700000D02*
X124880000Y-101700000D01*
X125880000Y-102200000D02*
X124880000Y-102700000D01*
X126270000Y-79210000D02*
X126270000Y-107410000D01*
X126270000Y-95360000D02*
X127580000Y-95360000D01*
X126270000Y-107410000D02*
X135390000Y-107410000D01*
X127580000Y-80510000D02*
X127580000Y-91260000D01*
X127580000Y-91260000D02*
X126270000Y-91260000D01*
X127580000Y-95360000D02*
X127580000Y-106110000D01*
X127580000Y-106110000D02*
X134080000Y-106110000D01*
X134080000Y-80510000D02*
X127580000Y-80510000D01*
X134080000Y-106110000D02*
X134080000Y-80510000D01*
X135390000Y-79210000D02*
X126270000Y-79210000D01*
X135390000Y-107410000D02*
X135390000Y-79210000D01*
D14*
%TO.C,J3*%
X128350000Y-117330000D02*
X135970000Y-117330000D01*
X128350000Y-119870000D02*
X128350000Y-117330000D01*
X135970000Y-117330000D02*
X135970000Y-119870000D01*
X135970000Y-119870000D02*
X128350000Y-119870000D01*
D15*
%TO.C,J7*%
X133997175Y-55129750D02*
X136657175Y-55129750D01*
X133997175Y-70429750D02*
X133997175Y-55129750D01*
X133997175Y-70429750D02*
X136657175Y-70429750D01*
X135327175Y-73029750D02*
X136657175Y-73029750D01*
X136657175Y-70429750D02*
X136657175Y-55129750D01*
X136657175Y-73029750D02*
X136657175Y-71699750D01*
%TO.C,RV2*%
X134240000Y-149100000D02*
X134240000Y-139180000D01*
X139460000Y-139180000D02*
X134240000Y-139180000D01*
X139460000Y-146280000D02*
X139460000Y-139180000D01*
X139460000Y-149100000D02*
X134240000Y-149100000D01*
X139460000Y-149100000D02*
X139460000Y-146980000D01*
X139790000Y-146920000D02*
X139460000Y-146680000D01*
X139790000Y-146440000D01*
X139790000Y-146920000D01*
G36*
X139790000Y-146920000D02*
G01*
X139460000Y-146680000D01*
X139790000Y-146440000D01*
X139790000Y-146920000D01*
G37*
%TO.C,RV1*%
X127465000Y-149100000D02*
X127465000Y-139180000D01*
X132685000Y-139180000D02*
X127465000Y-139180000D01*
X132685000Y-146280000D02*
X132685000Y-139180000D01*
X132685000Y-149100000D02*
X127465000Y-149100000D01*
X132685000Y-149100000D02*
X132685000Y-146980000D01*
X133015000Y-146920000D02*
X132685000Y-146680000D01*
X133015000Y-146440000D01*
X133015000Y-146920000D01*
G36*
X133015000Y-146920000D02*
G01*
X132685000Y-146680000D01*
X133015000Y-146440000D01*
X133015000Y-146920000D01*
G37*
%TO.C,RV3*%
X141015000Y-149100000D02*
X141015000Y-139180000D01*
X146235000Y-139180000D02*
X141015000Y-139180000D01*
X146235000Y-146280000D02*
X146235000Y-139180000D01*
X146235000Y-149100000D02*
X141015000Y-149100000D01*
X146235000Y-149100000D02*
X146235000Y-146980000D01*
X146565000Y-146920000D02*
X146235000Y-146680000D01*
X146565000Y-146440000D01*
X146565000Y-146920000D01*
G36*
X146565000Y-146920000D02*
G01*
X146235000Y-146680000D01*
X146565000Y-146440000D01*
X146565000Y-146920000D01*
G37*
%TO.C,RV4*%
X147790000Y-149100000D02*
X147790000Y-139180000D01*
X153010000Y-139180000D02*
X147790000Y-139180000D01*
X153010000Y-146280000D02*
X153010000Y-139180000D01*
X153010000Y-149100000D02*
X147790000Y-149100000D01*
X153010000Y-149100000D02*
X153010000Y-146980000D01*
X153340000Y-146920000D02*
X153010000Y-146680000D01*
X153340000Y-146440000D01*
X153340000Y-146920000D01*
G36*
X153340000Y-146920000D02*
G01*
X153010000Y-146680000D01*
X153340000Y-146440000D01*
X153340000Y-146920000D01*
G37*
%TD*%
%LPC*%
D17*
%TO.C,R3*%
X146610000Y-100033333D03*
X138990000Y-100033333D03*
%TD*%
%TO.C,R4*%
X128400000Y-127280000D03*
X128400000Y-134900000D03*
%TD*%
%TO.C,R9*%
X147400000Y-86300000D03*
X147400000Y-78680000D03*
%TD*%
D18*
%TO.C,J2*%
X127300000Y-57460000D03*
D19*
X127300000Y-60000000D03*
X127300000Y-62540000D03*
X127300000Y-65080000D03*
X127300000Y-67620000D03*
X127300000Y-70160000D03*
X127300000Y-72700000D03*
X127300000Y-75240000D03*
%TD*%
D17*
%TO.C,R1*%
X146610000Y-96300000D03*
X138990000Y-96300000D03*
%TD*%
%TO.C,R8*%
X134500000Y-127280000D03*
X134500000Y-134900000D03*
%TD*%
D20*
%TO.C,C2*%
X139700000Y-113272600D03*
D21*
X139700000Y-111272600D03*
%TD*%
D17*
%TO.C,R11*%
X141000000Y-86310000D03*
X141000000Y-78690000D03*
%TD*%
%TO.C,R5*%
X146610000Y-103766667D03*
X138990000Y-103766667D03*
%TD*%
%TO.C,R7*%
X146610000Y-107500000D03*
X138990000Y-107500000D03*
%TD*%
%TO.C,C3*%
X143800000Y-116100000D03*
X148800000Y-116100000D03*
%TD*%
%TO.C,R6*%
X131500000Y-127290000D03*
X131500000Y-134910000D03*
%TD*%
D22*
%TO.C,U1*%
X139700000Y-120260000D03*
D17*
X139700000Y-122800000D03*
X139700000Y-125340000D03*
X139700000Y-127880000D03*
X139700000Y-130420000D03*
X139700000Y-132960000D03*
X139700000Y-135500000D03*
X147320000Y-135500000D03*
X147320000Y-132960000D03*
X147320000Y-130420000D03*
X147320000Y-127880000D03*
X147320000Y-125340000D03*
X147320000Y-122800000D03*
X147320000Y-120260000D03*
%TD*%
%TO.C,C1*%
X143800000Y-112200000D03*
X148800000Y-112200000D03*
%TD*%
%TO.C,R10*%
X144200000Y-86300000D03*
X144200000Y-78680000D03*
%TD*%
%TO.C,R12*%
X137800000Y-86310000D03*
X137800000Y-78690000D03*
%TD*%
D18*
%TO.C,J1*%
X153100000Y-83320000D03*
D19*
X153100000Y-85860000D03*
X153100000Y-88400000D03*
X153100000Y-90940000D03*
X153100000Y-93480000D03*
X153100000Y-96020000D03*
X153100000Y-98560000D03*
X153100000Y-101100000D03*
%TD*%
D17*
%TO.C,R2*%
X127690000Y-124400000D03*
X135310000Y-124400000D03*
%TD*%
D18*
%TO.C,J4*%
X152700000Y-108160000D03*
D19*
X152700000Y-110700000D03*
X152700000Y-113240000D03*
X152700000Y-115780000D03*
X152700000Y-118320000D03*
X152700000Y-120860000D03*
X152700000Y-123400000D03*
X152700000Y-125940000D03*
X152700000Y-128480000D03*
X152700000Y-131020000D03*
%TD*%
D23*
%TO.C,U2*%
X128900000Y-112800000D03*
D24*
X131440000Y-112800000D03*
X133980000Y-112800000D03*
%TD*%
D18*
%TO.C,J6*%
X150235000Y-56559750D03*
D19*
X150235000Y-59099750D03*
X150235000Y-61639750D03*
X150235000Y-64179750D03*
X150235000Y-66719750D03*
X150235000Y-69259750D03*
X150235000Y-71799750D03*
%TD*%
D25*
%TO.C,J5*%
X129560000Y-102200000D03*
D19*
X132100000Y-102200000D03*
X129560000Y-99660000D03*
X132100000Y-99660000D03*
X129560000Y-97120000D03*
X132100000Y-97120000D03*
X129560000Y-94580000D03*
X132100000Y-94580000D03*
X129560000Y-92040000D03*
X132100000Y-92040000D03*
X129560000Y-89500000D03*
X132100000Y-89500000D03*
X129560000Y-86960000D03*
X132100000Y-86960000D03*
X129560000Y-84420000D03*
X132100000Y-84420000D03*
%TD*%
D26*
%TO.C,J3*%
X134700000Y-118600000D03*
X132160000Y-118600000D03*
X129620000Y-118600000D03*
%TD*%
D18*
%TO.C,J7*%
X135327175Y-71699750D03*
D19*
X135327175Y-69159750D03*
X135327175Y-66619750D03*
X135327175Y-64079750D03*
X135327175Y-61539750D03*
X135327175Y-58999750D03*
X135327175Y-56459750D03*
%TD*%
D27*
%TO.C,RV2*%
X136850000Y-146680000D03*
D28*
X136850000Y-144140000D03*
X136850000Y-141600000D03*
%TD*%
D27*
%TO.C,RV1*%
X130075000Y-146680000D03*
D28*
X130075000Y-144140000D03*
X130075000Y-141600000D03*
%TD*%
D27*
%TO.C,RV3*%
X143625000Y-146680000D03*
D28*
X143625000Y-144140000D03*
X143625000Y-141600000D03*
%TD*%
D27*
%TO.C,RV4*%
X150400000Y-146680000D03*
D28*
X150400000Y-144140000D03*
X150400000Y-141600000D03*
%TD*%
%LPD*%
M02*
